<svg width="1920" height="723" viewBox="0 0 1920 723" fill="none" xmlns="http://www.w3.org/2000/svg">
<path d="M0 13H1920V693H0V13Z" fill="#E0E0E0"/>
<path fill-rule="evenodd" clip-rule="evenodd" d="M-0.939964 606.124V604.563L19.7726 595.978L19.2323 594.657L-0.459672 600.121L-0.939964 599.64V597.839L3.86295 587.993L-0.519708 592.496L-0.939964 592.256V589.975L4.94361 579.588L0.801094 583.431L1.04124 566.08L6.0843 570.223L-0.939964 553.412V550.651L-0.339599 550.411L8.18558 556.714L9.68649 555.334L-0.939964 543.026V542.846L6.26441 545.788L-0.939964 531.439V528.257L2.7823 528.377L3.92299 519.312L6.14434 519.432L5.12372 538.643L7.04489 538.824L12.208 530.899L8.5458 548.549L10.0467 548.97C27.2171 538.703 -0.759854 509.646 -1 506.884L0.981203 505.743L20.6131 539.724L18.8721 540.745C19.2323 527.477 13.769 522.794 19.8326 507.184C29.0182 483.59 68.8824 449.729 85.2124 466.72C99.0808 481.129 89.8952 510.186 79.2688 524.415C65.8206 542.426 46.6089 549.39 38.0237 559.296L54.0534 567.641L53.273 568.782C62.4585 564.999 71.7642 554.913 81.9103 567.881L80.4094 573.465L96.7994 562.178L97.76 563.498C96.4392 552.332 91.5762 549.45 100.582 536.662C106.345 528.497 117.452 527.116 125.737 531.799C144.348 542.246 139.125 564.579 114.87 568.782C115.651 572.204 122.135 574.665 119.433 584.271C116.852 593.397 111.448 592.016 109.047 595.138C109.047 607.505 115.231 619.332 99.381 630.139C81.4301 642.386 73.2651 628.098 64.1996 624.435C59.2166 626.537 48.2899 645.028 29.7387 635.422C12.5082 626.537 25.7162 600.961 25.1159 598.8L-0.819891 606.365L-0.939964 606.124ZM117.692 584.151L116.551 574.665L115.591 574.785L117.692 584.151ZM129.579 559.296L119.973 558.395L119.373 559.716L124.536 562.358L124.296 563.078L116.311 560.497L117.452 563.799L110.848 562.598L106.825 563.018L108.927 566.2C93.0771 561.637 94.6381 541.285 108.086 534.501C126.397 525.315 140.146 547.049 132.641 555.874L122.855 556.654L129.579 559.296ZM94.9383 570.403C94.518 572.264 90.3755 576.226 88.7545 577.547C82.991 582.23 87.0735 574.005 86.8333 573.525L85.0923 573.765L86.5332 585.412L88.2742 583.431L107.006 589.674L106.886 591.836L112.769 585.352L110.248 570.943C107.546 568.482 88.2142 563.739 87.6739 571.964L94.9383 570.403ZM78.7284 568.181L65.6405 563.619L65.2202 564.879L78.7284 568.181ZM69.4228 613.029L75.3664 614.169L75.5465 615.79L69.9031 618.432L77.7678 619.573L77.5877 621.314L67.8618 620.413L65.7005 611.588V620.833L79.5689 623.595L76.1468 625.396L76.7472 627.317L99.6811 620.413C102.923 631.76 75.2463 627.497 70.6835 626.417C78.6083 637.283 100.041 630.919 105.805 618.072C115.651 596.098 93.7375 580.129 88.3943 590.995L92.4167 593.156L72.9649 611.408L74.4058 613.029H69.4228ZM62.3985 511.987L59.0365 514.029L59.4567 514.629L62.3985 511.987ZM55.3742 593.217L62.4585 592.076L57.3554 595.798L63.8394 595.498L61.4379 597.959L65.2803 598.98L61.7981 601.021L68.2821 602.762C67.0213 603.243 65.8206 606.905 65.2202 608.226L66.481 609.426L82.4507 600.181L78.1281 600.001L84.5519 595.258L80.5895 595.438L84.672 589.915C82.5708 556.774 35.0219 570.223 41.806 590.875L50.2711 591.355L59.3366 590.455L55.3742 593.217ZM48.41 632.18L43.3069 632.48L43.3669 633.501L48.41 632.18ZM39.2845 630.859L43.1268 630.559L43.0668 629.779L39.2845 630.859ZM38.3239 533.901L42.6465 531.619L42.2262 530.839L38.3239 533.901ZM28.4779 590.635L38.0837 591.355V590.515L28.4779 590.635ZM31.7799 588.954L38.2638 587.933L38.0837 586.973L31.7799 588.954ZM30.3991 629.659L39.4646 635.782L40.245 634.101L30.3991 629.659ZM29.7987 508.745L29.6786 527.237L31.6598 510.006L33.7011 510.186L32.5604 538.103C43.1268 531.499 36.4027 496.498 42.0461 494.036L43.427 494.156L42.8867 518.351C44.0273 516.73 52.8527 499.86 53.2129 498.299C54.7739 490.914 50.6314 482.87 57.5956 473.804L55.4943 494.096L67.8618 482.99L48.41 515.349L59.3967 508.505L58.0158 511.507L85.3324 502.501L86.293 504.783L41.9261 524.415L42.2863 525.375L48.0498 525.315L43.9073 528.137L48.2899 527.417L36.4027 538.463L57.8958 527.297L58.9164 529.278L37.2432 540.745L37.9637 542.126L75.6665 523.154L74.826 521.413L81.6702 517.09L72.9049 518.651L80.2894 513.908L76.5671 514.329L89.7151 500.1L83.2912 500.34L88.6945 495.177L82.4507 497.038L89.8352 482.089L88.5144 481.429C80.8297 485.811 76.8673 498.599 59.937 497.819L88.3343 479.988L87.1936 478.127L82.7509 479.267L85.5125 476.145L82.3306 475.965L83.5914 474.224L79.4489 474.525L82.6308 470.802L74.9461 473.444L80.0492 465.159L72.5447 469.121L68.102 466.179C58.316 469.782 50.7514 473.024 43.1268 480.468C40.3651 483.17 31.2996 496.258 30.219 500.7L33.4609 499.199L29.7987 508.745ZM30.3991 629.659C27.8775 625.876 42.4664 626.357 44.2075 627.317C48.8903 630.079 52.1923 633.501 58.0759 627.858C65.7005 620.533 62.3385 605.644 54.5337 599.1C45.8885 591.836 33.521 594.117 27.2772 603.483C24.0352 608.406 23.6149 614.229 24.2753 620.353C26.3166 637.824 29.9188 629.899 30.3991 629.659ZM45.7684 568.902L42.6465 569.202L47.5695 564.459L41.9861 565.48L42.5865 561.337L34.1213 567.521C25.5361 568.361 22.114 566.08 19.2923 578.328C17.7314 585.232 19.8327 593.997 26.3166 598.019L34.0613 594.537L28.4779 590.695L25.356 588.534C26.3766 587.333 35.6222 586.913 39.7648 579.588C42.4064 574.966 41.5658 575.446 46.2487 572.564C50.9315 569.742 50.3912 565.36 47.0292 568.241L45.7684 568.902ZM22.7144 565.059L70.6835 529.218L56.0947 540.084L55.1341 539.004L58.3761 535.101C54.3536 535.822 55.9746 539.544 51.4118 540.324C47.0292 541.045 47.7496 540.204 42.3463 542.486C32.3803 546.628 34.0013 544.167 29.3184 554.133L37.0031 545.728L38.504 547.049L43.2469 544.227L41.0856 549.93L48.1699 543.326L49.971 545.728L22.7144 565.059ZM22.114 539.484C20.5531 537.923 23.0146 540.384 22.114 539.484ZM21.4536 563.559L26.4967 540.024L28.1177 550.23L30.279 549.99L24.8757 502.201L22.3542 513.728L24.2753 514.209L21.0934 531.499L24.0352 524.055L25.7763 524.415L21.4536 563.559ZM18.8721 542.666C19.7726 543.566 17.3111 541.105 18.8721 542.666ZM11.8478 579.588L18.9921 573.104L17.6713 571.724L11.8478 579.588ZM12.0879 571.784L17.191 546.208L14.0091 545.608L12.0879 571.784ZM15.6301 580.489C8.90602 580.669 4.88357 591.476 9.26623 593.757C11.3075 594.838 16.1104 592.796 16.7708 590.455C17.2511 588.774 15.9303 582.47 15.6301 580.489ZM7.8854 566.861C0.0806561 565.24 8.84598 555.093 7.8854 566.861ZM7.10492 572.144L6.7447 576.346L7.64525 576.406L7.10492 572.144ZM3.62281 595.978L5.84416 592.256L5.12372 591.836L3.62281 595.978Z" fill="##E0E0E0"/>
<path fill-rule="evenodd" clip-rule="evenodd" d="M-0.939949 673.606V666.221L-0.519694 653.794L1.64162 656.555L-0.939949 648.51V633.021L7.16497 641.126L3.14253 642.087L8.54581 643.708L6.56461 646.469L10.8872 648.03L8.42574 650.432L13.4088 651.873L12.5683 653.974L17.9115 656.495L14.2493 658.236L20.433 660.158L17.6714 662.559L24.7557 664.18L18.752 665.321C28.2378 672.165 50.1511 661.719 52.0122 671.264L47.6896 670.604L50.1511 673.125L39.3445 670.604L45.3482 673.426L44.7478 675.047L38.3239 674.206L37.0631 677.028L22.2341 670.004C25.1159 675.587 35.0219 684.232 41.2657 682.851C47.0292 681.531 62.9989 678.529 67.8018 676.067L59.877 671.384L60.9576 669.583L57.9558 665.981L62.4585 666.341L51.1117 659.077L57.7757 658.296L57.8958 656.555L19.3524 654.274L19.4724 652.173L34.1213 653.253L12.8084 648.09L13.2887 645.809L16.3505 646.289C9.62647 640.286 -0.939949 630.44 -0.939949 620.053C6.98486 630.5 7.7053 637.164 21.0334 644.788C35.8024 653.193 45.4082 649.711 57.6556 654.874C74.4058 661.899 63.7794 670.784 81.0098 678.229C91.6363 682.851 99.7412 690.356 104.064 701.223C114.03 726.138 55.8545 724.457 40.2451 718.933C28.7181 714.911 20.5531 708.967 12.0279 700.442C1.04125 689.575 -0.699803 685.673 -0.939949 673.606ZM96.9795 712.87L88.9947 708.667L88.0941 709.928L94.6381 714.851C87.3737 718.873 75.3064 708.487 71.404 702.603L100.702 709.267L100.161 711.489L91.5162 708.367L96.9795 712.87ZM75.1863 682.131L66.9613 679.79L66.7812 680.75L75.1863 682.131ZM63.0589 680.87C65.0401 682.491 59.3967 677.928 63.0589 680.87ZM75.1863 682.131L54.3536 682.491L63.0589 685.313L62.5786 686.934L49.1305 683.752L59.8169 688.675L40.0049 684.652L39.5847 686.213C51.2317 698.101 63.6593 688.015 79.1487 690.296C87.3136 691.497 87.854 688.435 91.0959 689.155C90.3755 697.74 68.222 689.996 59.0965 695.399L70.3834 694.498L68.6423 697.32L83.5313 697.2L79.0886 700.982L87.7339 698.701L87.2536 701.343L102.863 707.166L93.6175 697.74L99.8613 698.341C97.1596 695.459 92.9571 695.039 92.2967 693.298C90.9158 689.395 98.8406 695.759 91.9364 688.975C85.6326 682.671 84.0717 682.311 75.1863 682.131ZM79.0286 714.13L39.7648 689.455L39.0443 690.536L47.9297 696.9L47.5695 697.56L42.5865 696.84L52.7927 701.943L52.3124 703.324L43.7272 700.862L54.8339 706.025L54.4137 707.346L46.8491 706.266L57.4755 710.708L57.0553 712.089L50.5113 711.669L61.0777 717.372L69.0626 717.132L82.2105 718.693L69.6029 715.691L69.843 714.31L79.0286 714.13ZM20.7932 698.161L27.9976 705.365L27.037 706.746L20.2529 702.183C22.114 711.849 44.2075 718.633 52.7927 718.633C47.4494 710.468 41.3858 706.506 38.1438 696.179C35.3221 687.294 31.5998 680.75 22.054 675.467L26.2566 685.493L19.5925 677.448L25.9564 690.776L20.8533 687.714L28.2378 696.78L27.037 697.921L19.3524 691.737L26.0765 700.262L20.7932 698.161ZM16.9509 702.603C16.9509 694.498 18.752 677.568 16.7708 670.784C15.9903 668.202 5.90421 651.212 4.4033 650.432C3.62282 654.094 1.10129 678.889 2.12191 681.591C4.58341 688.135 11.1874 698.581 16.9509 702.603Z" fill="##E0E0E0"/>
<path fill-rule="evenodd" clip-rule="evenodd" d="M158.186 425.253H168.933C169.293 425.133 169.713 425.013 170.014 424.833C163.77 418.829 156.806 416.247 158.427 405.261C160.108 393.794 168.933 394.094 177.098 395.055L177.518 393.494L164.971 391.332L166.772 376.563L164.971 376.503C162.389 381.006 166.892 390.372 155.605 396.675C141.977 404.3 123.305 388.511 137.474 369.539C147.2 356.451 152.003 365.336 155.545 365.336L156.746 363.595L147.02 357.111L142.097 340.481L140.776 340.842C142.037 348.586 145.279 356.751 138.314 363.355C132.911 368.518 124.206 367.678 118.803 361.914C108.296 350.628 109.857 330.635 130.39 329.014L128.048 313.285L126.307 313.525L127.508 323.071L122.225 310.463C123.005 338.44 103.373 331.296 104.094 311.304C104.334 304.64 108.476 269.458 114.78 267.657L116.041 287.109L119.103 286.028C129.429 310.943 155.425 322.05 168.693 343.303C182.501 365.396 193.128 399.257 193.008 425.193C200.992 425.013 188.565 380.886 186.043 373.922C180.7 359.153 173.015 345.585 163.47 333.157C152.903 319.289 141.616 312.925 131.77 301.518C114.18 281.105 120.303 259.492 117.302 254.089C107.876 251.808 99.2907 294.133 98.3301 301.158C93.167 338.68 103.073 374.702 127.388 403.76C132.611 410.004 138.615 415.167 145.159 419.91C148.701 422.371 153.444 424.292 158.186 425.253ZM101.512 302.839L102.653 293.413L103.673 293.533L101.512 302.839ZM104.214 331.836L106.915 329.375L104.214 342.102L109.137 329.915L109.617 365.216L108.176 365.396L101.632 318.388L104.214 331.836ZM129.309 371.7L129.129 398.116H127.748C125.647 394.574 128.348 393.734 126.607 393.133C124.566 392.413 126.727 396.976 123.605 391.993L111.658 371.7C110.457 368.638 111.478 361.974 113.699 359.693L129.309 371.7ZM130.39 402.079L131.11 391.212L132.611 391.332L130.39 402.079ZM133.632 406.101L134.052 397.096H134.892L133.632 406.101ZM144.258 409.944L146.299 401.659L147.14 401.779L145.159 414.927L143.237 415.707L135.913 398.717L138.675 397.696L140.956 407.482L143.237 401.118L144.258 409.944ZM148.581 417.388C146.84 414.987 149.601 399.557 153.744 401.478C153.804 401.538 149.901 415.827 148.581 417.388ZM155.665 422.791L154.164 414.146L151.582 420.27L150.502 419.91L153.864 405.921H154.584L155.665 422.791Z" fill="##E0E0E0"/>
<path fill-rule="evenodd" clip-rule="evenodd" d="M47.9898 460.896L55.1341 451.05L56.0347 451.531L54.0535 457.174L75.0062 439.223C77.1675 450.27 58.8564 464.739 47.9898 460.896ZM-0.939949 451.05L1.2814 451.351L-0.519694 458.795C4.64344 453.092 16.4706 436.582 25.0558 439.884C29.7387 443.366 28.8982 460.416 48.8303 464.138C61.1378 466.48 74.0456 457.895 78.1281 446.308C80.2293 440.364 79.5689 431.118 72.4846 430.218C65.4604 429.317 64.3797 439.103 61.7982 443.426C54.5938 455.553 35.8624 440.064 33.581 432.019C27.7575 411.847 60.4173 406.263 41.746 357.333C37.0031 344.906 12.8684 304.501 -0.519694 303.661L-0.339584 314.227L7.88541 314.347L-0.939949 319.03V319.691L-0.519694 320.831L10.9473 318.67L9.80658 328.696L15.2099 322.632L12.3281 335.42L20.0128 324.494L16.0504 338.962L22.8345 330.917L19.2323 340.223L25.2359 336.021L22.1141 346.107L27.8175 341.124L24.9358 350.609L25.5361 350.91L31.0595 344.966L26.2566 356.973L32.2602 352.891L29.8588 360.696L34.7217 356.013L31.7199 364.538L37.0031 360.215L32.8005 370.842L38.1438 366.759L33.3409 375.585C35.6823 375.044 38.444 373.783 40.7854 374.504L37.7235 383.449C39.8248 383.149 42.1662 382.429 44.2075 382.909L37.7235 397.018L23.5549 409.865C20.6732 404.402 37.0631 398.038 29.4985 390.474L14.8496 417.07L13.2287 408.845H11.3675C11.0073 411.847 9.56643 420.312 9.86661 422.713L-0.939949 424.814V425.055L3.68286 426.255L-0.939949 431.178V433.64L0.500926 435.201L21.8739 416.589L19.8327 422.293L33.581 413.408L27.8175 433.82L18.4518 434.961L18.0916 431.779L-0.939949 435.561V440.484L-0.699803 446.788L9.08614 442.465L-0.939949 449.189V451.05ZM50.1511 451.891C49.0704 451.951 36.2827 461.677 45.7684 449.429L45.3482 448.889L37.4834 454.292L44.8078 459.095L50.1511 451.891ZM42.5265 373.003L41.3257 368.74L42.0462 368.68L42.5265 373.003ZM35.6223 452.371C35.7423 443.306 49.0104 444.927 35.6223 452.371ZM33.3409 447.448L36.883 441.805L38.1438 443.186L33.3409 447.448ZM29.3184 437.902C32.5604 436.522 34.9619 439.283 32.5004 441.745C29.6786 444.506 27.9976 439.704 29.3184 437.902ZM25.6562 417.43L35.3221 403.441L36.4628 404.402L25.6562 417.43Z" fill="##E0E0E0"/>
<path fill-rule="evenodd" clip-rule="evenodd" d="M194.839 638.664C192.737 639.505 193.998 637.644 194.779 637.223C197.9 635.302 194.839 638.604 194.839 638.664ZM187.154 639.745C191.777 640.105 196.94 632.18 191.356 627.557L187.154 639.745ZM185.773 637.343C188.054 630.619 193.458 623.235 183.852 623.355L185.773 637.343ZM184.572 641.126L173.766 627.137L174.546 626.597C178.869 623.415 181.45 620.953 182.171 627.617C182.591 632.24 184.392 638.004 184.572 641.126ZM189.075 674.446L187.574 676.607L189.315 678.048L198.261 668.502L208.107 649.05C187.574 628.278 171.725 657.155 179.229 668.142L180.37 662.679L182.771 663.159L180.79 674.146L183.252 669.283L184.993 675.947L189.495 670.123L189.075 674.446ZM168.663 677.508C183.372 679.129 179.769 669.223 168.663 677.508ZM173.706 629.659C174.606 631.4 186.974 650.972 178.389 642.446C162.299 626.417 172.985 628.218 173.706 629.659ZM178.208 670.604L163.379 675.106L162.959 673.125L178.208 670.604ZM179.769 647.189L166.742 633.441L162.719 638.124L179.769 647.189ZM165.421 670.604C158.637 671.924 153.954 667.482 169.683 665.741C185.413 664 171.304 669.523 165.421 670.604ZM177.548 650.131C176.708 647.91 163.079 639.204 160.618 641.606C156.836 645.448 175.327 650.131 177.548 650.131ZM175.087 658.536L156.475 657.516C156.475 649.231 174.906 658.296 175.087 658.536ZM176.287 654.694L157.076 651.332C160.077 645.388 159.477 646.469 166.381 649.171C169.323 650.251 175.447 651.512 176.287 654.694ZM174.486 662.319C172.265 663.579 158.096 665.44 158.036 662.198C157.916 658.356 172.625 661.238 174.486 662.319ZM144.948 628.398L144.828 636.383C138.885 636.863 138.524 649.351 138.524 654.034C138.404 663.759 142.067 665.921 141.706 670.784C140.986 681.35 166.201 689.215 172.565 680.45L160.137 680.329L164.58 677.808L151.192 672.405L157.256 671.384C155.215 651.872 145.489 661.358 144.648 654.214C146.509 654.634 151.913 656.375 153.413 655.715L157.076 643.107L149.451 638.544C152.273 633.861 154.914 649.171 169.743 626.057L167.522 622.454L178.148 622.394C178.389 620.473 177.128 619.633 174.786 616.571L194.899 626.177L191.417 619.633L180.91 617.892C182.231 614.83 186.794 613.149 174.366 614.289C169.743 614.71 165.361 617.351 160.858 616.271L165.241 612.969C152.873 619.152 156.595 617.351 144.948 628.398ZM136.603 659.137C139.665 683.872 156.715 695.819 178.629 680.029C186.013 674.686 194.658 686.753 202.944 669.223C206.246 662.138 214.831 646.829 206.125 642.086C194.178 635.542 197.84 600.121 162.839 611.888C143.027 618.492 134.202 639.385 136.603 659.137Z" fill="##E0E0E0"/>
<path fill-rule="evenodd" clip-rule="evenodd" d="M-0.939949 230.957V212.946C-0.879912 212.405 -0.819876 211.865 -0.759839 211.325L9.44636 225.313L3.56279 221.471L7.64526 229.576L7.10494 229.936L1.9418 224.953L5.36388 232.998L2.96242 231.737L9.44636 243.024L8.90603 243.504L4.82355 240.082L16.7708 251.729L10.5871 250.348L27.0971 258.994L26.3766 260.555L16.4706 256.652L15.8102 258.333L46.8491 269.86L46.9691 265.598L50.7514 272.622C51.4719 260.975 42.8867 236.18 35.3821 226.694C18.5719 205.441 -2.62097 213.786 -0.759839 202.619C-0.0994383 202.799 21.6338 211.385 22.6544 211.925C29.0182 215.287 35.8624 222.071 39.7047 228.135C47.5095 240.382 54.1135 265.477 54.0534 279.706C28.9582 262.055 2.90238 261.875 -0.939949 230.957Z" fill="##E0E0E0"/>
<path fill-rule="evenodd" clip-rule="evenodd" d="M-0.939949 187.911V187.611C0.620999 187.13 19.1122 192.594 23.0746 193.014C36.7629 194.575 71.1638 189.231 54.1135 172.181C53.8733 171.941 37.5434 158.793 37.4834 158.793L40.7854 163.536L27.3973 153.15L34.3015 161.134L33.3409 162.335L18.5719 151.529L17.7314 152.669L27.4573 160.894L26.3766 162.215L12.5082 153.029L19.6526 159.754L19.2323 160.414L4.58341 152.189L3.86297 153.57L12.9285 160.054L12.3881 160.954L2.30202 156.271L7.10494 160.834L5.48395 162.335L-0.939949 154.891V151.949L-0.819876 151.829C26.8569 141.803 50.2712 162.455 66.6611 182.027C61.7982 186.83 43.7872 195.355 35.5022 195.836C29.4385 196.196 0.801109 194.815 -0.939949 187.911Z" fill="##E0E0E0"/>
<path fill-rule="evenodd" clip-rule="evenodd" d="M9.92665 171.581L8.60585 170.74L9.92665 170.44L36.883 169.419L36.7629 166.417L-0.939949 168.519L32.3803 189.712L21.6938 177.404L37.1832 187.31L38.2639 185.749L41.746 187.55L42.5865 185.989L28.0577 177.824L28.8381 176.383L45.2881 185.689L38.6841 178.305L53.9934 184.128L47.6896 179.625L55.4343 179.085L55.5544 177.284L9.92665 171.581Z" fill="##E0E0E0"/>
<path fill-rule="evenodd" clip-rule="evenodd" d="M36.1625 250.288L44.2674 255.391C44.5676 250.168 27.6373 243.924 18.932 227.414C21.2134 227.775 23.795 229.876 24.7556 232.277L26.9169 230.536L37.1831 236.42C33.1607 226.754 21.2134 228.975 15.0297 221.711C19.1722 221.651 25.536 226.694 27.9975 226.214C29.4384 222.131 19.8326 220.87 16.7107 219.249C12.0278 216.728 9.5063 214.266 5.54389 211.445C5.30375 216.968 15.7501 222.011 18.4517 234.799C18.9921 237.381 18.932 243.744 20.9132 245.005L21.5136 235.579C26.2565 236.78 23.3747 253.29 30.5791 253.41L27.2771 243.084C32.9806 245.485 30.6992 259.954 35.9223 260.675C36.7028 257.133 33.641 253.65 33.4608 250.528C36.6428 251.369 36.7629 256.952 40.0048 257.793C41.7459 255.091 37.9035 252.69 36.1625 250.288Z" fill="##E0E0E0"/>
<path fill-rule="evenodd" clip-rule="evenodd" d="M88.1544 92.3925L82.0306 89.5708L82.571 88.7303L88.1544 92.3925ZM-0.939751 114.846L18.5121 125.773L5.244 120.49L4.40349 122.231L10.5272 126.613L25.8965 127.814C12.3283 134.358 7.16517 126.193 -0.759641 120.43C-1.23993 128.294 15.7504 135.018 22.7747 135.138C33.4011 135.379 41.386 129.675 49.731 123.611C85.1525 97.9759 85.4527 129.795 98.3005 133.097L74.6461 106.861L92.7171 115.567L78.4885 100.497L119.553 122.531L120.874 120.37L78.8487 95.0341L77.9482 96.2949L83.0512 95.8146L81.6704 92.8728L118.233 108.182L118.893 106.501L104.124 99.8971L114.871 99.837L85.873 90.2913L85.933 88.6703L97.46 82.0062L96.9797 80.6254L84.4921 86.3889C76.087 75.7024 87.4939 42.142 60.4175 27.1929C44.4478 18.4276 -1.42004 29.1741 -0.939751 41.7217C7.94565 35.8982 11.6079 33.917 22.7747 33.4367C26.9172 33.2566 34.6018 33.1365 38.204 33.917C43.0069 34.9977 46.5491 40.6411 47.6898 37.8794L59.2168 48.1457L60.4175 46.7648L50.9317 38.5398L52.4927 37.159L66.0609 53.9091L63.5994 44.0632L70.2635 53.0686L69.7832 49.9467C72.9651 53.1287 77.2878 63.6351 77.4679 67.8976C77.5879 70.8995 74.7662 65.5562 74.466 73.6611C74.2859 79.1845 77.8281 79.4847 77.4078 82.9068L74.0458 79.6048L72.6049 80.4453L75.7268 87.1693L71.4042 83.3871L71.8845 91.6721L69.483 91.8522C73.0852 98.6964 72.0045 95.7546 65.0403 96.9553L66.7213 101.758L61.198 102.659L65.4606 104.34L59.1567 105.42L66.181 107.222L66.4812 108.843L55.1343 111.844L59.517 113.045L49.2507 114.966V116.827L55.2544 117.188L30.1591 124.812L40.3053 119.289L39.5849 117.908L16.5309 122.531L15.9905 120.43L27.2173 119.289L26.9772 117.248L20.1931 118.508L22.1743 116.887L15.6303 117.308C14.7898 114.786 20.5533 115.807 13.9493 115.146C6.44473 114.426 4.46353 109.023 -0.759641 101.938L1.64182 110.223L2.30222 110.884L9.20641 118.869L-0.219313 112.205L-0.939751 113.405V114.846ZM78.2483 78.8243L77.4679 73.1208H78.2483V78.8243ZM74.5861 90.9517C74.346 90.9517 72.4848 88.4902 74.5861 89.7509C74.5861 89.7509 76.8075 91.2518 74.5861 90.9517ZM75.9069 51.7478L73.9257 47.065L74.8262 46.8849L75.9069 51.7478ZM77.708 104.28C70.2635 93.8334 70.0834 104.46 77.708 104.28ZM71.4642 108.843L67.3817 110.043V108.843H71.4642ZM34.3017 125.953L43.6073 123.912L43.7274 125.533L34.3017 125.953ZM17.7916 132.257L35.3223 128.354L35.5624 129.795L17.7916 132.257ZM66.9014 43.6429C59.8772 40.0407 54.4739 36.6787 46.9693 34.0971C33.8214 29.5343 33.1009 32.236 20.7934 31.3354C32.3805 17.0468 79.6892 30.8551 71.5242 48.0256L64.6201 34.5774L62.819 35.538L66.9014 43.6429Z" fill="##E0E0E0"/>
<path fill-rule="evenodd" clip-rule="evenodd" d="M72.7254 70.4192C73.2658 68.6182 71.7048 69.2785 72.6054 66.9972C73.3858 65.076 74.4665 66.2167 74.3464 63.8753C66.4216 61.1136 67.3222 66.2767 65.6411 55.23L62.8194 58.1118L60.3579 56.6709L61.0183 52.9486C57.7163 52.8286 59.1572 55.1099 55.555 53.6691C53.0935 51.2076 54.9547 51.3276 53.9941 48.7461C45.7691 52.4683 49.011 50.0068 46.7897 45.8043L42.1069 47.7255L40.7861 43.9432L37.0638 45.8643L34.2421 42.022C31.4204 44.8437 31.9607 46.7649 28.3585 40.9413L26.0171 43.4629L24.3361 39.8607C18.5125 45.9244 20.4937 42.5623 18.0923 39.2603L16.1111 42.8025L13.8897 39.9808C8.36637 46.1645 11.068 41.1815 6.14502 39.4404L6.26509 42.8025L1.58225 41.1214C1.10195 43.2828 2.42276 42.6224 1.3421 44.1233C0.0212982 46.2245 -0.819212 44.4235 -0.939285 48.0857C46.1893 37.2791 69.9037 68.9784 72.7254 70.4192Z" fill="##E0E0E0"/>
<path fill-rule="evenodd" clip-rule="evenodd" d="M22.0547 76.1226L17.0717 77.0231C18.7527 73.481 19.4131 74.0813 22.0547 76.1226ZM28.4786 80.085L25.9571 82.6665L32.501 81.8861L30.0395 84.7678C33.1014 85.4282 34.6023 83.507 37.1839 85.068L32.441 86.5689C36.7036 89.8709 38.9249 84.7678 41.8667 88.4901L34.3622 89.3306C36.7636 93.293 42.4071 88.9704 45.4689 90.7715C43.1875 92.0322 40.4258 91.1317 39.8255 93.293L46.6096 93.5932L42.6472 95.1541C45.5289 98.9965 48.2906 94.0134 52.5532 96.8351L45.7691 97.6156C47.1499 101.518 50.632 98.6362 54.9547 99.4767L47.9904 101.398C50.6921 103.979 58.2567 103.139 57.116 98.8163C59.8176 98.3961 59.6375 99.5368 61.6788 97.8558C57.9565 95.5143 56.5757 96.7751 46.8498 89.3306C42.287 85.8485 37.7842 82.1262 32.6211 79.2445C27.2178 76.3027 3.02314 63.8751 -0.879234 65.9764C-0.579051 69.0383 -0.0987592 67.6574 7.64594 70.239C10.8879 71.3196 14.1899 72.4003 17.4919 73.8412C15.3906 77.0231 15.991 72.9406 14.7302 75.9425C13.9498 77.6835 15.5708 78.4039 17.1317 78.7642C21.9346 79.7248 21.6344 76.2426 26.4974 78.404L20.4937 80.3251C23.8558 83.0868 24.0959 80.205 28.4786 80.085Z" fill="##E0E0E0"/>
<path fill-rule="evenodd" clip-rule="evenodd" d="M1720.29 61.0559L1717.23 50.5493L1719.11 50.2813L1720.29 61.0559ZM1710.05 77.5125C1707.05 80.3 1715.78 95.7917 1716.43 102.814C1717.88 119.967 1710.96 86.8934 1708.28 86.6253L1706.94 87.0006L1714.28 113.642C1722 105.816 1726.34 66.6843 1714.5 58.322L1721.73 76.4404L1720.29 77.0301L1713.53 62.7176L1721.84 86.7325L1719.75 87.5366L1712.41 68.9358L1710.85 69.4718L1720.02 97.1319L1717.66 97.8823L1710.05 77.5125ZM1713.37 115.411L1708.23 121.79L1707.05 121.254L1704.53 110.908L1705.55 110.64L1707.32 117.234L1708.87 116.966L1705.92 97.3463L1707.32 97.1855L1713.37 115.411ZM1694.56 88.4479L1692.68 82.873L1693.86 82.7122L1694.56 88.4479ZM1692.15 91.7178L1689.84 86.3037L1691.02 86.0357L1692.15 91.7178ZM1688.5 117.18L1685.61 98.7936L1684.1 98.9544L1686.95 127.204L1696.06 90.6457L1693.75 90.2168L1691.18 106.834L1688.45 90.9137L1687.11 91.0745L1688.5 117.18ZM1674.29 125.489L1675.47 143.929C1682.34 143.393 1674.72 122.273 1678.1 113.749L1680.3 132.136L1682.34 131.975L1681.48 105.226C1684.32 109.3 1686.46 128.92 1684.69 132.35C1680.83 139.801 1675.9 152.666 1668.18 150.79L1674.29 125.489ZM1654.51 65.1298C1659.23 60.895 1674.46 57.0355 1680.41 56.1778C1687 55.1593 1697.72 54.9449 1704.64 56.285C1709.25 57.1963 1707.37 56.553 1705.49 59.9301L1695.09 58.2684L1701.85 61.9671L1701.63 63.4681L1679.33 60.5734L1679.07 62.1815L1691.66 65.1834L1691.39 66.5236L1666.36 61.6991L1665.93 63.8969L1682.6 67.2204L1682.39 68.7213L1654.51 65.1298ZM1654.51 65.1298L1650.49 67.1668L1650.44 67.9709L1666.25 70.1151L1666.41 69.0966L1654.51 65.1298ZM1657.46 93.594L1645.19 91.0209L1645.56 89.8952L1657.46 93.594ZM1635.59 93.9156L1625.09 91.7714C1628.73 78.6382 1681.8 80.8896 1687.59 84.4275L1676.49 85.3924L1679.44 88.5551L1658.96 83.7843L1658.59 85.3924L1673.12 90.9137L1648.67 84.4275L1648.19 86.2501L1667.06 92.093C1660.14 95.6845 1644.28 82.5514 1637.84 89.8416L1647.44 94.9341L1629.48 89.6808L1629 91.2353L1635.59 93.9156ZM1629.37 149.665L1623.1 156.794L1624.92 158.349L1636.93 144.143L1629.96 156.419L1631.68 157.437L1643.79 137.496L1644.92 138.086L1637.2 153.042C1645.99 153.149 1645.29 130.688 1653.39 128.491L1645.94 144.465L1663.73 112.57C1666.47 117.502 1652.8 140.605 1648.3 145.698C1641.7 153.202 1622.24 165.585 1613.88 156.955L1629.37 149.665ZM1608.31 120.075L1624.12 113.428L1623.64 112.302L1608.31 120.075ZM1607.66 116.537C1609.59 116.537 1605.73 116.537 1607.66 116.537ZM1598.55 148.217L1604.13 147.467V148.378L1598.55 148.217ZM1654.51 114.821C1642.99 132.297 1606.38 128.759 1589.6 124.953L1605.9 115.679L1606.48 116.858L1600.32 119.646C1606.59 124.363 1615.76 120.236 1621.92 117.609C1634.36 112.248 1629.7 112.624 1644.28 113.803L1639.18 114.5L1638.7 113.16L1620.9 119.056L1621.39 120.557C1626.64 120.557 1631.79 119.699 1636.88 120.504C1640.63 121.093 1649.96 122.862 1649.8 116.054L1641.11 119.11L1640.74 117.77L1654.51 114.821ZM1597.37 148.539C1594.16 149.075 1599.62 148.11 1597.37 148.539ZM1592.12 150.361L1578.61 158.456L1579.47 160.064L1599.03 149.986L1599.73 151.273C1598.02 152.774 1583.22 161.458 1580.27 162.208C1570.73 164.62 1562.96 164.781 1552.83 163.923L1552.18 162.691L1577.22 150.04L1577.97 151.594L1561.19 159.635L1561.94 161.458L1592.12 150.361ZM1572.23 143.393L1560.28 132.511C1567.73 132.511 1577.81 149.611 1585.85 145.912L1568.53 135.727L1569.55 133.958L1593.35 146.877L1594.16 145.376L1576.52 135.138L1577.65 133.154L1598.87 145.108L1591.8 139.104L1592.44 138.086L1607.02 144.036C1603.75 139.104 1573.14 130.206 1566.33 129.724C1547.47 128.33 1552.99 139.533 1556.42 135.084C1559.04 131.921 1564.83 142.535 1572.23 143.393ZM1657.95 117.073C1647.92 139.748 1612.22 153.631 1610.72 156.097C1610.77 165.853 1630.98 160.975 1636.4 158.349C1666.68 143.554 1658.11 111.659 1683.09 95.9526C1681.05 104.583 1660.3 145.859 1665.99 154.221C1678.05 161.243 1692.9 120.557 1694.77 112.784C1701.85 83.0874 1688.29 85.6068 1711.44 59.1797C1711.76 59.7157 1696.43 117.609 1704.69 123.559C1714.12 127.687 1720.66 107.692 1722.32 100.938C1725.59 87.9654 1724.84 75.2075 1723.34 62.0207C1719.59 29.0538 1736.48 29.3754 1743.66 0C1738.08 2.94826 1721.09 46.9578 1711.71 52.5863C1709.14 54.1409 1683.41 52.2111 1673.76 54.6233C1668.93 55.8026 1646.9 63.6289 1645.99 68.3997C1654.78 78.263 1691.93 67.7028 1703.13 64.5938C1692.95 86.3573 1682.34 80.4072 1664.81 78.9062C1655.59 78.1022 1622.41 79.3351 1620.85 92.5755C1628.41 97.5607 1643.36 98.1504 1652.42 97.2927C1664.11 96.2206 1675.63 90.9137 1682.55 90.2705C1681.42 93.4332 1669.04 104.583 1665.77 107.21C1656.61 114.661 1647.92 110.855 1637.41 110.801C1624.66 110.747 1591.37 112.677 1584.35 125.757L1584.19 127.955L1632.8 129.67C1630.98 131.225 1617.1 138.568 1614.36 139.801C1607.29 142.964 1599.78 137.014 1593.14 134.494C1584.45 131.225 1551.92 120.557 1548.22 133.744L1547.68 134.923L1577.16 148.914L1576.31 146.716L1545 165.21L1545.96 166.818C1582.42 166.711 1578.4 169.284 1608.09 148.968C1625.62 137.014 1639.51 131.546 1657.95 117.073Z" fill="##E0E0E0"/>
<path fill-rule="evenodd" clip-rule="evenodd" d="M1864.86 630.978C1863.1 631.299 1863.68 630.174 1865.02 629.906C1867.97 629.263 1865.08 630.924 1864.86 630.978ZM1920.29 674.237L1883.3 683.028L1882.55 680.509L1909.68 666.143L1907.48 659.871C1898.26 668.984 1888.93 671.932 1882.55 677.775C1874.83 684.851 1854.52 680.455 1846.1 678.901L1851.14 676.435L1846.85 673.754L1856.77 668.662L1852.43 667.643L1859.4 664.213L1858.81 662.712L1862.88 661.05L1859.56 659.335C1869.26 650.865 1895.95 639.447 1906.73 645.451L1904.16 647.863L1912.09 648.775L1908.66 650.597L1915.52 652.473L1911.34 654.296L1918.52 656.279L1915.52 658.584L1920.45 659.12C1920.45 650.383 1920.13 652.098 1913.38 646.738C1909.41 643.575 1904.21 641.913 1899.22 641.484C1884.54 640.091 1879.23 646.738 1867.92 649.364C1871.83 622.24 1861.81 609.804 1860.58 599.565C1859.13 587.504 1857.9 588.791 1851.03 579.946C1844.07 570.994 1845.89 565.902 1842.4 558.879C1837.15 567.027 1837.9 569.118 1828.9 578.338C1823.37 583.966 1818.5 591.418 1815.71 598.815C1811.21 610.608 1804.02 647.059 1801.5 651.991C1796.52 655.582 1781.67 655.207 1774.86 656.762C1765.64 658.852 1762.8 664.588 1755.4 668.716C1747.2 673.218 1742.27 671.717 1734.71 679.437C1732.14 682.117 1730.1 684.851 1727.31 687.477C1722.06 692.516 1719.11 690.426 1716.75 691.39C1717.13 691.658 1717.5 691.926 1717.93 692.141H1725.33C1730.53 689.461 1734.98 682.224 1738.14 679.437C1743.07 675.148 1745.43 676.059 1751.17 674.719C1756.42 673.486 1757.17 670.002 1761.09 666.893C1773.09 657.244 1803.38 652.849 1816.99 659.764L1809.28 661.372L1821.6 663.623L1815.82 666.25L1824.82 667.911L1820.48 669.734L1831.09 673.058L1827.77 675.041L1834.9 678.311L1833.88 680.026L1803.75 661.908L1802.84 663.409L1827.88 681.688C1791.26 695.411 1782.26 666.679 1768.59 666.518L1774.81 675.363L1784.14 677.4L1780.22 680.509L1790.67 683.135L1783.33 684.958L1794.11 687.156L1794.05 689.246L1740.5 687.477L1748.76 691.069L1743.13 691.658L1743.18 692.087H1764.03L1852.7 684.154L1794.16 691.23L1794.27 692.087H1800.43L1817.96 691.176L1818.07 692.087H1819.03L1822.57 690.962H1827.72L1833.72 689.621L1853.07 692.141H1859.61L1859.72 691.337L1846.69 690.426C1848.09 686.459 1859.13 684.797 1864.17 685.387C1872.58 686.352 1874.03 692.141 1881.43 692.141L1878.43 689.353L1883.25 687.531L1872.37 684.851C1881.91 682.814 1888.13 683.135 1896.76 686.566C1909.41 691.605 1903.57 692.141 1920.34 692.141L1911.82 690.962L1915.52 689.085L1896.17 685.065L1896.38 682.224C1899.87 681.902 1916.54 679.919 1920.34 680.401V679.973L1918.25 677.882L1920.34 674.505V674.237H1920.29ZM1852.11 636.714L1852.37 638.643L1856.93 635.534L1851.95 644.754L1858.81 639.287L1859.93 640.198L1852.96 651.133L1858.43 650.061L1852.64 658.531L1854.04 659.764L1867.28 645.987L1861.27 645.773L1866.1 639.715L1861.17 639.769L1864.01 635.105L1861.33 630.388L1865.13 624.331L1859.72 624.652L1864.54 618.059L1863.2 616.987L1850.98 629.531L1855.59 627.976L1852.11 636.714ZM1846 688.121C1844.49 688.281 1843.85 687.316 1846.1 686.995C1849.16 686.566 1846.05 688.121 1846 688.121ZM1840.37 609.214C1844.01 611.894 1849.75 641.484 1850.39 647.22C1851.3 654.939 1851.89 660.621 1847.92 667.751C1845.51 672.093 1842.51 684.315 1839.24 681.313C1822.09 665.714 1826.54 625.671 1840.37 609.214ZM1838.06 681.742L1830.02 681.795L1830.24 680.509L1838.06 681.742ZM1829.38 666.25C1823.75 655.636 1824.12 665.66 1829.38 666.25ZM1827.18 636.714L1824.18 640.895L1823.37 640.144L1827.18 636.714ZM1823.16 661.265L1826.21 658.155L1826.64 658.692L1823.16 661.265ZM1822.14 659.442L1825.57 654.135L1826.43 654.993L1822.14 659.442ZM1825.95 650.544C1825.36 651.616 1818.82 658.37 1817.69 657.244C1816.3 655.85 1823.8 650.812 1825.95 650.544ZM1813.99 609.858L1819.51 608.303C1818.55 610.179 1813.83 614.2 1811.85 617.469C1805.36 628.137 1811.85 624.706 1813.89 625.725C1792.5 647.542 1813.56 665.607 1823 648.507L1817.05 631.889L1823.43 636.445L1827.72 631.675L1821.77 632.157L1829.06 625.564L1825.14 625.939L1832.97 617.362L1828.41 619.721L1826.59 606.159L1830.56 613.395C1846.96 618.488 1830.18 587.933 1833.02 584.824L1838.49 596.939L1840.26 581.554L1841.44 581.608L1841.76 594.098L1848.73 587.665C1851.41 590.56 1834.68 600.37 1843.31 609L1848.62 606.266L1844.6 614.414L1850.98 613.235L1848.03 620.578L1852.43 618.488L1849.53 624.92L1863.04 613.503L1857.52 612.752L1857.14 595.116L1849.8 599.887L1856.18 591.096L1852 588.898L1841.92 568.314C1840.74 568.153 1824.39 585.95 1824.18 587.076C1823.48 590.238 1828.84 586.271 1824.07 591.096C1819.35 595.813 1814.15 602.728 1813.99 609.858Z" fill="##E0E0E0"/>
<path fill-rule="evenodd" clip-rule="evenodd" d="M1882.08 344.514V344.782C1876.29 347.784 1814 321.089 1812.23 306.026L1818.67 309.993L1812.61 300.612L1819.47 306.187L1819.95 305.651L1814.11 297.235L1817.49 298.467L1808.16 286.782L1808.75 286.138L1815.18 291.016L1798.3 278.366L1806.66 279.599L1807.09 278.473L1785.91 272.308L1786.29 270.915L1798.56 273.327L1798.94 271.343L1762.11 263.732L1763.02 268.878L1757.13 260.891C1756.97 266.841 1768.65 292.678 1772.78 298.789C1779.96 309.403 1790.63 319.159 1803.55 321.732C1824.51 325.913 1824.51 323.501 1844.34 334.597C1855.49 340.815 1869.64 347.409 1882.08 349.982V352.501L1877.04 356.361L1882.08 357.326C1881.06 358.826 1868.14 361.775 1864.61 363.919C1855.17 369.655 1847.29 385.093 1821.4 390.989C1808.16 393.991 1794.28 391.525 1782.48 384.986C1777.6 382.252 1757.5 369.065 1755.36 365.527C1756.22 364.08 1773.75 349.767 1776.43 348.32C1810.36 330.041 1856.89 358.666 1872.06 351.429C1870.72 350.411 1841.82 339.314 1834.32 334.919C1814.86 323.501 1808.16 329.076 1793.74 321.786C1772.83 311.279 1754.82 276.811 1753 254.565C1779.16 270.915 1807.36 258.961 1820.54 296.699C1828.26 318.784 1819.47 315.246 1844.4 327.682C1850.51 330.738 1857.05 333.632 1863.48 336.044C1868.04 337.76 1881.6 340.118 1882.08 344.514ZM1870.07 356.789L1859.83 356.575V355.878L1875.86 353.466L1876.13 354.645L1870.07 356.789ZM1858.71 360.595L1864.39 359.684L1864.23 358.451L1858.71 360.595ZM1792.94 386.487L1786.34 380.536L1804.09 390.453L1804.84 389.22L1794.49 382.413L1795.29 381.019L1813.41 390.507L1814.32 388.845L1802.42 381.555L1803.33 379.947L1819.85 388.416L1820.38 387.398L1811.11 381.287L1829.28 387.13L1829.82 385.522L1818.34 379.572L1831.64 382.252L1824.94 377.588C1827.3 375.873 1841.07 386.862 1847.61 374.693C1840.75 367.242 1830.19 366.385 1821.56 370.03C1810.52 374.693 1802.8 375.658 1790.63 375.658L1790.31 374.104L1821.19 368.207L1820.81 365.42L1767.74 368.422L1767.58 366.331L1777.44 364.937L1768.92 360.863L1769.4 359.47L1787.36 365.045L1778.03 357.433L1798.67 365.098L1799.37 363.222L1781.14 356.414L1781.73 354.753L1786.61 356.146L1783.82 352.34L1805.91 362.525L1791.7 350.411L1792.72 349.178C1795.03 348.802 1802.16 356.361 1804.78 358.076C1816.58 365.688 1810.79 359.47 1816.15 361.185C1823.44 363.49 1825.9 364.723 1833.94 365.527C1837.96 365.902 1849.22 363.973 1849.76 369.387L1843.81 369.279C1845.15 373.139 1857.31 372.925 1856.62 365.42L1850.19 361.132L1857.26 362.043L1849.54 356.736L1855.81 357.272C1854.63 353.466 1827.62 347.087 1822.79 346.283C1809.55 344.085 1796.9 344.139 1784.09 348.534C1775.25 351.59 1757.23 359.095 1766.45 370.03C1772.03 376.623 1777.01 375.39 1779.64 377.91C1783.07 381.233 1788.38 386.111 1792.94 386.487Z" fill="##E0E0E0"/>
<path fill-rule="evenodd" clip-rule="evenodd" d="M1657.6 596.724C1684.29 600.905 1718.65 646.201 1715.97 659.067C1714.31 667.107 1702.36 677.56 1693.99 678.364C1676.9 680.026 1653.63 660.085 1645.21 646.309C1634.82 629.423 1628.92 592.222 1657.6 596.724ZM1635.89 641.27C1636.85 642.235 1636.1 640.144 1636.1 640.037C1636.37 638.536 1636.32 639.662 1636.16 639.501C1634.71 638.054 1635.51 640.948 1635.89 641.27ZM1652.45 585.306L1656.36 590.345L1656.47 586.432L1661.24 590.721L1658.78 583.913L1665.21 593.294L1666.33 592.597L1669.82 594.795L1667.89 588.737L1677 599.458L1675.88 593.883L1681.24 603.211L1682.42 602.674L1679.63 596.188L1680.33 595.759L1687.88 609L1688.63 608.625L1686.76 602.514L1690.08 608.357L1691.37 605.891L1702.2 617.898L1706.65 628.619L1707.34 624.17C1708.84 626.314 1708.79 629.155 1710.24 631.782C1713.88 638.536 1710.08 626.261 1713.56 633.229C1716.24 638.643 1717.31 644.379 1717.05 650.972L1713.99 640.251C1710.93 640.251 1715.54 645.826 1707.07 633.122C1696.84 617.845 1671.05 591.578 1651.75 594.795C1635.62 597.475 1638.03 606.534 1634.55 615.379L1635.62 599.565L1636.8 599.887L1641.19 590.667L1645.7 593.722L1644.04 589.648L1648.16 592.543L1646.13 586.861L1650.95 590.828L1649.18 585.253L1654.01 590.989L1652.45 585.306ZM1633.05 640.144L1633.64 643.575L1634.44 643.468L1633.05 640.144ZM1631.33 648.721C1632.03 649.418 1631.55 648.56 1631.6 647.756C1631.81 645.665 1630.9 648.292 1631.33 648.721ZM1605.01 567.563C1582.44 565.205 1573.22 582.305 1590 599.137C1599.6 608.732 1614.28 620.15 1625.97 627.172C1641.36 636.392 1634.01 629.906 1631.87 618.434C1630.26 609.911 1631.17 599.512 1636.8 592.49C1642.75 585.038 1635.94 581.929 1628.22 576.408C1620.23 570.672 1614.71 568.582 1605.01 567.563ZM1591.88 559.576L1594.18 564.508L1593.49 564.883L1588.5 559.844L1586.84 560.487L1586.46 563.811L1584.48 563.597L1585.02 569.815C1623.72 555.234 1639.53 588.844 1645.11 584.878L1640.71 577.105L1639.85 578.606L1630.15 569.225L1629.56 568.635L1626.72 566.92L1627.95 571.959L1627.31 572.281L1622.11 564.669L1621.9 568.635L1616.96 562.364L1618.09 566.813L1617.5 567.188L1614.66 563.489L1613.75 565.634L1609.51 559.523L1611.98 564.99L1610.96 565.58L1606.08 558.933L1607.26 563.489L1606.62 563.65L1603.24 558.933L1603.19 562.739L1598.69 557.807L1599.86 562.31L1599.01 562.632L1595.79 557.7L1595.15 558.022L1596.38 563.329L1595.74 563.489L1591.88 559.576ZM1585.02 569.868L1578.16 584.395L1577.3 584.181L1582.55 566.866L1585.02 569.868ZM1659.31 692.087C1655.02 685.547 1648.43 680.455 1643.12 671.717C1640.01 666.518 1631.71 648.292 1636.64 643.682C1641.36 639.769 1646.5 652.312 1648.75 655.207C1655.99 664.588 1667.78 672.146 1678.34 677.024C1690.19 682.492 1689.92 678.632 1699.57 679.115C1704.61 699.967 1696.14 685.655 1704.18 676.381C1710.93 668.555 1715.28 670.056 1718.44 656.333C1722.62 638.161 1710.13 621.919 1698.34 609.643C1689.01 599.994 1670.62 584.127 1657.28 582.197C1642.16 580 1629.24 563.275 1612.62 557.754C1593.65 551.482 1570.33 562.846 1577.24 583.966C1582.66 600.477 1615.46 624.224 1631.92 632.64C1643.12 638.322 1624.74 634.998 1630.74 651.616C1634.92 663.301 1647.2 687.96 1659.31 692.087Z" fill="##E0E0E0"/>
<path fill-rule="evenodd" clip-rule="evenodd" d="M1880.84 427.065L1883.68 428.245L1883.36 428.834L1880.84 427.065ZM1878 429.317C1878.8 430.121 1876.6 427.923 1878 429.317ZM1867.12 438.215L1860.36 438.805L1860.41 437.84L1867.12 438.215ZM1863.74 448.185L1868.94 450.383L1868.56 451.134L1863.74 448.185ZM1860.84 442.45L1868.24 443.951L1868.03 444.808L1860.84 442.45ZM1859.72 440.198L1867.81 441.163L1867.71 442.021L1859.72 440.198ZM1868.88 447.06L1860.41 444.058L1860.15 444.701L1868.88 447.06ZM1858.59 417.899L1860.68 416.666L1860.95 417.416L1858.59 417.899ZM1858 416.183L1854.95 419.239L1854.3 418.488L1858 416.183ZM1865.99 455.047L1855.97 436.392C1859.99 434.409 1869.26 432.855 1874.03 431.782L1874.41 430.55L1868.67 426.744L1869.53 425.672L1877.51 432.104C1877.09 424.975 1872.42 427.708 1879.61 425.296C1881.8 424.546 1878.21 422.777 1876.39 421.812L1877.46 420.472V416.291L1851.14 421.437C1851.14 419.025 1850.93 419.453 1849.1 416.344L1853.07 416.505L1850.71 413.932L1854.84 412.806L1852.37 411.573L1856.56 406.803L1849.16 406.642L1848.62 403.694L1846.53 407.446L1844.71 404.176C1842.62 406.267 1845.83 406.374 1843.32 406.159C1841.49 405.999 1843.37 404.39 1841.33 406.052C1838.71 408.196 1830.13 408.893 1833.83 417.095L1831.2 416.398L1832.27 424.707L1834.85 427.28L1831.09 430.067L1847.66 455.797L1848.09 453.6L1850.87 457.727L1851.09 456.709L1859.56 456.977L1859.99 454.886L1862.61 457.566L1862.24 456.333L1865.99 455.047ZM1886.36 429.156L1880.52 413.718L1863.04 417.256C1859.5 411.359 1860.95 404.926 1852.59 402.729C1846.32 401.121 1838.76 402.675 1834.04 407.66C1825.41 416.827 1828.95 436.607 1835.27 446.363C1841.39 455.851 1860.2 465.875 1868.4 455.744C1874.3 448.454 1866.95 438.108 1868.88 436.66C1871.19 434.999 1884.11 433.927 1886.36 429.156Z" fill="##E0E0E0"/>
<path fill-rule="evenodd" clip-rule="evenodd" d="M1832.02 199.376L1834.86 198.25L1839.04 202.164L1839.42 199.376L1842.42 203.236L1843.39 202.646L1841.83 199.001L1846.01 204.201L1846.55 203.986L1846.28 201.092C1854.7 206.613 1849.5 223.874 1835.51 222.801C1820.71 221.622 1818.68 202.539 1826.72 199.269L1832.45 202.753L1832.02 199.376ZM1829.72 179.382L1824.04 172.574L1824.89 171.877L1829.72 179.382ZM1822.86 174.825C1827.09 177.237 1818.14 172.199 1822.86 174.825ZM1822.27 171.877L1818.68 171.716L1818.89 170.912L1822.27 171.877ZM1829.72 179.382L1831.81 178.363C1834.76 198.572 1809.88 209.4 1802.75 190.317C1799.91 182.759 1803.56 171.019 1811.55 170.269C1815.73 169.947 1829.13 185.814 1829.72 179.382ZM1821.41 202.217C1821.68 208.328 1817.17 214.332 1826.18 221.783C1841.56 234.541 1858.93 211.866 1850.14 202.378C1841.83 193.426 1838.99 196.428 1830.15 194.981C1830.58 190.96 1839.8 181.526 1830.31 173.646C1824.63 168.929 1813.53 165.552 1806.88 169.733C1800.4 173.807 1798.47 185.921 1800.99 192.676C1805.81 205.809 1813.1 200.502 1821.41 202.217Z" fill="##E0E0E0"/>
<path fill-rule="evenodd" clip-rule="evenodd" d="M1769.75 589.691L1766.16 589.584L1766.37 588.727L1769.75 589.691ZM1766.91 586.422C1766.96 587.065 1765.14 587.708 1764.98 586.368C1764.87 585.403 1766.8 585.564 1766.91 586.422ZM1758.33 584.117L1764.18 589.155L1763.59 589.852L1758.33 584.117ZM1780.63 565.301C1776.13 558.44 1765.57 559.619 1760.48 565.14C1757.42 568.464 1750.99 584.867 1757.8 583.044C1756.4 579.56 1767.39 584.063 1768.3 585.081C1771.09 588.137 1773.02 592.693 1779.51 588.78C1786.21 584.653 1786.9 569.429 1780.63 565.301ZM1753.78 563.586L1750.35 564.712L1747.02 563.05L1746.11 564.497L1742.73 560.852L1741.98 561.281L1742.41 563.532C1734.26 558.172 1741.72 562.996 1738.07 562.675C1734.59 562.299 1729.6 546.432 1742.57 541.501C1756.24 536.301 1768.95 552.49 1758.82 562.889L1752.28 560.048L1753.78 563.586ZM1756.03 567.017C1754.15 573.932 1748.25 582.026 1757.69 588.78C1763.48 592.908 1775.49 594.784 1781.54 589.745C1787.28 584.921 1788.03 573.181 1784.97 566.641C1779.45 554.848 1772.91 559.458 1763.53 559.512C1763.64 551.418 1764.55 545.575 1756.4 540.375C1749.81 536.14 1741.66 537.534 1736.52 543.538C1722.42 559.941 1743.86 573.02 1756.03 567.017Z" fill="##E0E0E0"/>
<path fill-rule="evenodd" clip-rule="evenodd" d="M1805.53 312.244L1790.2 308.92L1789.72 310.475L1818.08 321.41C1817.81 318.087 1807.84 311.279 1804.35 306.562C1799.53 299.968 1797.28 286.782 1794.49 287.21L1795.29 298.36L1785 278.366L1782.86 279.491L1789.08 290.748L1787.79 291.445L1776.53 271.022L1774.92 271.879L1780.93 283.512L1771.98 275.685L1770.64 276.972L1777.5 284.208L1767.63 280.617L1801.89 304.9L1800.6 306.83L1778.57 300.022C1780.23 308.116 1801.3 305.811 1805.53 312.244Z" fill="##E0E0E0"/>
<path fill-rule="evenodd" clip-rule="evenodd" d="M1885.45 267.109L1892.2 272.415L1886.47 262.445L1918.63 273.97L1913 274.613L1920.34 277.99C1920.4 266.68 1891.02 258.639 1882.12 258.478C1882.12 286.621 1890.11 317.604 1920.4 327.039V322.482C1894.51 316.157 1885.45 291.391 1885.45 267.109Z" fill="##E0E0E0"/>
<path fill-rule="evenodd" clip-rule="evenodd" d="M1905.82 595.599L1904.8 585.521C1909.89 585.521 1915.95 598.922 1913.7 605.14L1910.86 593.079L1909.68 593.294L1910.64 600.477L1909.41 600.691L1907 589.916L1905.82 595.599ZM1920.29 557.432C1919.65 557.271 1917.83 558.504 1914.77 562.096C1907.59 570.458 1899.39 579.142 1901.8 591.257C1902.82 596.456 1916.38 614.575 1919.86 615.7L1915.52 599.19L1916.91 598.761L1919.81 602.085C1923.19 593.186 1901.69 584.878 1907.43 575.872C1909.68 572.388 1913.91 566.974 1916.75 563.972C1918.58 562.042 1919.81 560.219 1920.35 558.987V557.432H1920.29Z" fill="##E0E0E0"/>
<path fill-rule="evenodd" clip-rule="evenodd" d="M1906.14 291.338C1902.44 291.445 1902.12 285.602 1897.94 286.728C1897.56 289.944 1912.63 296.806 1912.52 306.079C1908.55 305.811 1900.46 297.77 1895.53 299.379C1895.69 303.399 1909.52 307.151 1914.56 310.528C1916.97 312.083 1918.31 313.798 1920.24 315.085C1920.24 309.617 1916.7 309.671 1915.79 304.096C1914.98 299.164 1917.56 293 1914.5 290.427C1911.71 293.965 1913.7 296.752 1913.22 301.308C1911.71 298.575 1911.07 293.964 1906.41 287.21C1902.71 281.85 1903.83 272.791 1900.83 271.343C1898.63 274.667 1901.58 279.545 1901.21 282.011C1897.78 282.064 1895.42 274.774 1892.1 275.685C1890.65 280.456 1905.76 285.977 1906.14 291.338Z" fill="##E0E0E0"/>
<path fill-rule="evenodd" clip-rule="evenodd" d="M1920.02 195.171C1920.72 191.794 1909.89 190.347 1910.43 186.326C1914.56 185.254 1918.15 191.687 1919.97 191.794C1920.08 191.472 1920.18 191.151 1920.24 190.829V187.345C1919.38 185.79 1916.97 186.058 1915.57 184.664C1917.4 183.003 1920.67 185.361 1920.18 181.073C1918.42 179.733 1907.21 182.52 1905.12 184.021C1905.6 186.809 1909.25 186.165 1908.93 189.06C1906.94 189.81 1902.66 189.06 1900.3 188.738C1896.28 188.202 1895.95 186.969 1896.17 183.11C1912.14 172.657 1919.76 177.857 1920.18 172.818C1915.84 170.298 1895.15 177.481 1893.17 184.182C1890.81 192.062 1899.44 191.419 1904.1 191.74C1907.21 191.955 1919.06 195.385 1920.02 195.171Z" fill="##E0E0E0"/>
<path fill-rule="evenodd" clip-rule="evenodd" d="M1763.48 618.424C1760.1 617.619 1760.85 616.172 1758.44 615.69C1758.23 619.442 1759.4 617.78 1761.17 620.032C1757.42 619.603 1758.01 616.869 1755.06 616.279L1755.55 619.013C1753.88 617.191 1753.83 615.261 1751.26 616.011L1753.99 619.817C1750.99 618.906 1751.36 617.351 1748.63 615.529L1748.36 617.887C1739.57 612.634 1743.22 595.642 1757.26 595.534C1772.32 595.481 1775.97 612.849 1768.04 617.727L1761.92 614.51C1761.82 616.762 1762.25 616.547 1763.48 618.424ZM1741.77 613.277C1744.56 620.032 1756.35 624.427 1763.16 622.658C1783.8 617.298 1770.5 585.725 1752.81 593.444C1746.22 596.285 1738.93 606.47 1741.77 613.277Z" fill="##E0E0E0"/>
<path fill-rule="evenodd" clip-rule="evenodd" d="M1870.01 156.254L1867.76 153.574C1869.63 153.842 1869.47 154.163 1870.01 156.254ZM1857.41 153.413C1858.65 155.289 1859.02 155.021 1858.97 157.38C1856.61 156.039 1855.43 154.217 1852.75 153.895C1843.26 161.4 1849.85 176.034 1861.49 177.321C1873.66 178.661 1881.32 165.956 1872.58 155.557L1872.37 158.505L1869.96 156.254L1868.62 157.54L1865.94 154.539L1865.72 156.844L1862.51 154.003L1862.4 156.736C1859.72 156.2 1861.81 154.485 1857.41 153.413ZM1847.17 166.546C1852.48 189.757 1880.2 178.982 1879.18 161.99C1878.8 155.986 1865.94 148.588 1860.52 149.071C1851.09 149.929 1844.98 157.165 1847.17 166.546Z" fill="##E0E0E0"/>
<path fill-rule="evenodd" clip-rule="evenodd" d="M1847.71 528.754C1837.69 522.107 1843.8 506.561 1856.34 505.918C1868.88 505.275 1876.76 522.375 1866.95 528.7C1865.13 527.681 1863.09 526.073 1860.95 525.966L1863.15 529.343C1859.61 529.022 1860.09 526.341 1857.79 526.877L1858.54 529.933C1856.82 529.29 1857.2 528.432 1854.68 527.145L1854.52 529.397C1852.32 527.842 1854.04 527.199 1850.6 526.663C1850.66 529.236 1851.25 528.378 1852.75 530.415C1849.26 529.933 1850.66 526.77 1847.17 526.073L1847.71 528.754ZM1841.44 524.733C1844.6 531.005 1856.07 535.454 1862.67 533.417C1871.19 530.737 1875.37 521.624 1871.62 513.423C1861.17 490.641 1834.85 511.761 1841.44 524.733Z" fill="##E0E0E0"/>
<path fill-rule="evenodd" clip-rule="evenodd" d="M1916.27 405.891C1914.77 406.856 1914.93 406.803 1913.32 405.891C1914.98 404.927 1914.39 405.034 1916.27 405.891ZM1920.29 410.501C1920.29 401.817 1918.47 398.119 1910.7 404.23C1910.59 395.76 1920.45 390.828 1920.13 386.54C1916.91 388.952 1898.58 409.697 1898.15 412.699C1905.07 408.196 1912.36 408.572 1920.29 410.501Z" fill="##E0E0E0"/>
<path fill-rule="evenodd" clip-rule="evenodd" d="M1919.7 496.162L1918.31 493.535L1917.99 490.908C1914.77 490.158 1917.88 490.908 1915.47 492.034C1914.18 489.89 1914.93 491.069 1915.52 488.818L1913.43 488.496C1913.48 485.923 1913.32 486.513 1914.5 484.583C1912.04 483.404 1914.02 485.441 1911.71 484.208L1913.43 479.491C1911.29 479.062 1912.68 480.509 1911.71 478.526L1913.97 475.953C1912.63 473.38 1912.68 477.025 1912.36 473.272C1914.29 472.576 1912.57 474.398 1915.09 472.576C1911.93 470.11 1913.48 469.574 1914.98 466.84C1916.75 463.677 1913.43 465.5 1918.47 462.176C1917.24 459.121 1916.81 460.783 1920.29 458.531L1920.18 455.744C1914.5 460.086 1910.59 470.378 1910 477.346C1909.46 483.779 1913 497.234 1920.13 498.949L1919.7 496.162Z" fill="##E0E0E0"/>
<path fill-rule="evenodd" clip-rule="evenodd" d="M1685.88 646.416C1688.67 641.913 1666.58 618.756 1661.06 619.989C1661.59 621.597 1672.15 628.994 1674.62 631.46C1677.78 634.623 1684.27 645.344 1685.88 646.416Z" fill="##E0E0E0"/>
<path fill-rule="evenodd" clip-rule="evenodd" d="M1920.29 47.0073V47.061C1917.93 47.0073 1875.96 37.5729 1870.12 36.7688C1862.72 35.7503 1817.48 32.3196 1815.23 38.5378C1816.19 40.4676 1819.03 42.4509 1819.35 39.8243C1819.68 37.1977 1817.8 38.2162 1823.21 39.8243C1829.22 41.5933 1822.94 38.913 1824.87 37.8409C1826.43 37.0369 1828.14 39.181 1831.2 38.4842C1843.85 35.5895 1891.83 47.329 1907.8 51.0813C1912.95 52.2606 1920.29 52.1534 1920.24 56.9778L1857.68 52.3678L1857.52 54.244L1920.24 61.7487V63.5712L1920.18 64.0001L1851.57 55.9057L1851.68 53.7615L1858.91 50.17C1852.11 49.3124 1843.37 49.8484 1836.35 49.4196C1833.56 49.2587 1827.61 49.0979 1825.14 48.6155C1820.48 47.7042 1820.85 44.7559 1818.55 43.7375L1799.63 40.95C1813.99 30.8723 1835.22 34.4102 1852.75 32.6413L1806.54 18.5968C1806.65 0.63921 1920.56 30.9259 1920.24 39.0738C1918.95 39.7707 1875.26 24.1717 1869.31 22.6708C1860.36 20.4194 1814.21 11.6282 1809.17 17.6319L1820.59 20.7946L1820.69 18.972L1837.15 25.8871L1835.54 22.1883L1842.94 27.0128L1841.6 23.6893L1852.32 29.425L1849.26 25.7799L1849.8 25.1902L1866.42 35.2679L1867.44 33.4989L1855.75 27.388L1856.66 25.6726L1873.44 34.571L1873.33 32.6949L1896.01 39.5563L1895.04 36.2864L1920.29 47.0073ZM1822.52 45.3456L1881.86 51.0277C1876.87 42.8798 1828.04 37.0369 1822.52 45.3456ZM1806.65 40.95L1813.56 41.0572L1813.51 39.4491L1806.65 40.95Z" fill="##E0E0E0"/>
<path fill-rule="evenodd" clip-rule="evenodd" d="M1920.29 76.5436V78.2054C1919.81 78.4734 1919.11 78.795 1918.04 79.063C1914.5 80.0815 1910.27 79.9207 1905.93 81.4216C1893.7 85.6028 1880.95 103.882 1840.26 88.9263C1826.64 83.9411 1813.56 78.527 1800.59 72.0408C1761.94 52.6895 1809.12 66.7339 1809.38 66.6267L1787.03 54.7265L1788.05 51.5102L1830.77 58.1572L1823.16 53.4936C1843.74 53.4936 1851.41 57.6211 1870.22 61.8023C1887.7 65.6618 1902.33 66.6267 1920.24 66.6267C1920.24 71.5584 1910.64 70.6471 1904.91 71.88C1899.22 73.0593 1893.6 74.0778 1887.91 75.4179C1875.96 78.3126 1866.58 82.9762 1853.98 82.6545C1833.45 82.1185 1810.99 69.1461 1791.16 63.7857C1795.55 70.3255 1819.25 75.954 1828.9 81.4753C1840.05 87.8006 1860.52 93.3219 1872.8 91.6066L1861.43 90.5345L1896.97 86.0317L1896.71 83.7803L1888.88 84.6915L1905.34 78.3662L1914.72 78.3126L1913.11 74.2386C1914.34 74.6138 1918.63 75.4715 1920.29 76.5436ZM1866.58 70.0038L1861.22 66.6803L1862.29 70.5399L1840.9 60.6766L1841.49 59.2293L1841.44 62.5528L1829.81 56.013C1835.33 57.0851 1844.33 57.2459 1850.98 58.6932C1864.22 61.5879 1877.09 65.8227 1890.49 67.806C1893.65 68.2885 1912.47 68.6637 1912.84 68.8781C1907.32 68.8781 1895.37 70.3791 1889.2 70.9687C1874.83 72.3624 1876.5 70.1646 1866.47 67.6988L1866.58 70.0038ZM1857.41 76.8652L1858.54 79.7063L1849.91 75.7395L1851.41 80.832L1842.94 74.721C1842.51 79.2775 1843.05 78.259 1841.22 79.9207L1826.54 69.843L1827.07 75.1499L1819.03 66.1979L1819.46 71.3439L1793.84 55.2625C1795.87 50.4917 1832.92 63.3568 1837.69 65.1258C1853.5 70.9687 1866.42 75.5787 1883.63 73.4345L1865.13 78.3126L1857.41 76.8652Z" fill="##E0E0E0"/>
<path fill-rule="evenodd" clip-rule="evenodd" d="M1920.29 107.42V109.35C1919.17 111.494 1914.07 111.762 1912.47 110.315L1910.32 106.455L1913.86 106.616L1911.55 104.15L1915.57 102.81L1913.16 101.47L1916.81 100.076C1916.49 98.1999 1914.56 99.4864 1917.34 97.0742L1913.32 96.9134L1914.23 94.9836L1910.05 96.3773L1909.95 93.6971L1907.48 97.1278L1905.28 94.0187L1905.01 96.431L1902.71 94.8764L1902.07 97.5566L1899.92 96.2165C1897.72 100.022 1900.24 96.8598 1896.49 98.0927C1894.24 103.4 1896.17 99.3792 1892.9 103.185L1894.88 106.455L1892.26 106.937L1894.19 109.939L1892.1 110.583L1894.13 112.834L1891.45 114.657L1895.79 117.337L1891.61 117.819L1892.26 120.339C1892.9 122.644 1893.17 121.411 1893.49 122.858C1893.81 124.413 1893.6 122.322 1893.49 123.769C1893.22 127.736 1892.52 126.342 1894.94 127.683L1894.61 131.596L1896.81 131.757C1896.97 137.921 1896.97 133.365 1899.55 137.653C1901.37 140.762 1901.42 140.869 1904.1 139.368C1904.26 142.638 1901.8 140.869 1904.8 143.228L1905.98 141.566L1908.44 145.801L1909.36 144.139L1912.41 147.624C1914.66 146.659 1912.52 147.355 1913.7 145.05L1916.7 147.784L1918.31 146.015C1920.08 148.535 1919.97 146.819 1920.18 149.446C1901.53 149.446 1890.86 134.115 1889.9 116.908C1888.18 85.1203 1919.97 89.4623 1920.18 99.7544C1919.22 102.596 1920.4 98.6287 1919.38 101.095C1917.66 105.329 1917.08 102.167 1916.16 105.49L1919.97 103.936C1919.65 107.42 1915.09 106.455 1915.9 109.028L1919.49 106.455C1919.92 106.723 1920.13 107.045 1920.29 107.42Z" fill="##E0E0E0"/>
<path fill-rule="evenodd" clip-rule="evenodd" d="M1892.26 120.285C1894.29 121.25 1893.27 121.411 1894.99 120.071C1894.03 118.838 1893.7 118.891 1892.31 118.677L1892.26 120.285Z" fill="##E0E0E0"/>
</svg>
