<svg width="1920" height="650" viewBox="0 0 1920 650" fill="none" xmlns="http://www.w3.org/2000/svg">
<path fill-rule="evenodd" clip-rule="evenodd" d="M592.605 4.35697C592.038 0.298685 591.281 -3.7596 590.335 -7.81789C588.696 -14.7931 586.489 -21.7048 583.147 -28.0459C579.994 -34.0065 575.707 -39.2062 570.158 -43.0742C563.915 -47.4496 556.79 -51.2542 549.35 -53.0297C543.044 -54.5516 535.478 -54.9321 529.424 -52.0786C523.875 -56.3271 518.138 -60.1317 512.084 -63.4291C512.025 -64.0721 511.969 -64.7115 511.913 -65.3491L511.911 -65.374V-65.3756C511.731 -67.4329 511.552 -69.4709 511.265 -71.5457L511.236 -71.781C510.932 -74.3183 510.602 -77.0605 507.544 -76.999C505.716 -76.9356 501.68 -76.4283 500.924 -74.3358C500.608 -73.448 501.05 -72.6237 501.554 -71.8628L501.713 -71.4899C502.416 -69.8458 503.103 -68.2372 503.572 -66.4094C504.265 -63.7461 504.833 -60.9561 505.148 -58.2294C505.211 -57.7855 505.259 -57.3417 505.306 -56.8978C505.339 -56.5896 505.372 -56.2815 505.41 -55.9733C505.426 -55.8376 505.444 -55.7019 505.463 -55.5662C505.526 -54.615 505.574 -53.6797 505.621 -52.7444C505.668 -51.8091 505.716 -50.8738 505.779 -49.9226V-49.8592C505.779 -49.2251 505.779 -48.591 505.716 -47.9569C498.906 -50.4933 490.078 -45.9911 485.286 -41.489C479.208 -35.7882 475.784 -28.1265 472.454 -20.6747C472.191 -20.0864 471.929 -19.4994 471.666 -18.9148C469.711 -14.6028 467.694 -10.2275 464.982 -6.29601C462.145 -2.17434 458.614 1.4401 455.02 4.86427C454.389 5.49839 453.743 6.11665 453.096 6.7349C452.45 7.35316 451.804 7.97141 451.173 8.60551C442.03 17.166 433.266 25.663 428.789 37.6476C428.032 39.6134 427.465 41.6425 427.023 43.6716C423.114 58.1927 426.645 70.1773 435.914 78.4208C439.193 81.9083 443.228 84.6984 447.705 86.4739C450.254 87.4823 452.996 88.0731 455.738 88.6636C461.271 89.8556 466.799 91.0466 470.72 95.6684C473.621 99.0926 479.737 99.8536 483.962 99.9804C490.015 100.171 496.131 98.9658 501.743 96.8099C507.923 94.4637 513.408 90.7858 518.074 86.2203C522.299 82.2888 525.956 77.7866 528.668 72.904C533.145 64.9776 535.415 55.9733 535.415 46.9056C535.415 40.0717 533.642 33.7086 531.851 27.2776L531.851 27.2762L531.85 27.2725C531.182 24.8736 530.511 22.4652 529.929 20.0194C528.668 14.5661 528.352 9.30302 529.74 3.78629C530.719 -0.262991 531.98 -4.26504 533.239 -8.26061L533.242 -8.26739C533.441 -8.89974 533.64 -9.53191 533.838 -10.1641C538.378 -1.22317 546.638 6.89341 556.349 9.55668C560.532 10.7204 564.905 10.9679 569.244 11.2136C571.052 11.3159 572.854 11.4179 574.635 11.5858C577.535 11.8395 580.436 12.3467 583.273 13.1711C583.778 13.2979 584.219 13.4881 584.66 13.6784C585.481 14.1141 586.278 14.5914 587.073 15.0682C588.477 15.9094 589.878 16.7491 591.407 17.3562C592.605 17.8635 593.866 16.405 593.551 15.327C593.725 12.0106 593.208 8.48069 592.732 5.227L592.713 5.09876C592.677 4.84974 592.641 4.60243 592.605 4.35697ZM526.461 -49.3519C525.452 -46.6887 524.884 -43.8352 524.695 -40.9817C524.678 -40.6767 524.653 -40.34 524.625 -39.9802C524.549 -38.9931 524.46 -37.8314 524.506 -36.6698C521.353 -39.4599 517.759 -41.9963 513.787 -44.5961C513.745 -45.1364 513.677 -45.6494 513.617 -46.0995C513.585 -46.3362 513.556 -46.5554 513.535 -46.7521C513.156 -51.0006 512.778 -55.1857 512.4 -59.4342C512.368 -59.656 512.352 -59.8935 512.337 -60.1311C512.321 -60.3691 512.305 -60.6071 512.273 -60.8293C514.071 -59.3638 515.896 -57.9078 517.728 -56.4467L517.739 -56.438L517.744 -56.4338C520.662 -54.1057 523.597 -51.7646 526.461 -49.3519ZM503.446 -73.7016V-73.8919C503.824 -74.9065 507.292 -75.3503 508.049 -74.526C508.639 -73.8832 508.769 -72.0068 508.857 -70.7304L508.858 -70.722C508.882 -70.365 508.904 -70.0554 508.932 -69.8336C509.108 -68.2944 509.23 -66.7 509.348 -65.1536L509.373 -64.8241C509.31 -64.8241 509.31 -64.8876 509.247 -64.8876C508.869 -65.0778 507.86 -64.5071 508.301 -64.1266C508.679 -63.8096 509.121 -63.4291 509.499 -63.1121C509.562 -62.2243 509.625 -61.4 509.751 -60.5122C509.981 -57.6838 510.263 -54.8555 510.549 -51.9792L510.634 -51.1274L511.012 -46.9423C511.034 -46.676 511.057 -46.4019 511.079 -46.1255L511.11 -45.7359C511.14 -45.3507 511.171 -44.9659 511.202 -44.5961C511.225 -44.3594 511.284 -43.9371 511.348 -43.4744C511.456 -42.6976 511.58 -41.8069 511.58 -41.489H509.814C509.121 -41.6158 508.49 -41.8061 507.86 -42.0597C508.718 -44.271 508.618 -47.0787 508.53 -49.5463V-49.5476C508.515 -49.9807 508.5 -50.4033 508.49 -50.8104C508.427 -53.8541 508.175 -56.8978 507.734 -59.9415C507.229 -63.0486 506.599 -66.2192 505.653 -69.1995C505.211 -70.9116 504.581 -72.5603 503.446 -73.7016ZM529.992 -11.5591C529.803 -10.7348 529.551 -9.91042 529.298 -9.08608C529.129 -8.71688 528.956 -8.34768 528.783 -7.97777L528.783 -7.97677C528.184 -6.69515 527.581 -5.40499 527.091 -4.07665C526.083 -1.22317 525.452 1.75715 525.137 4.80085C525.074 5.1179 525.074 5.49839 525.074 5.81544C524.632 8.22505 524.443 10.6981 524.632 13.2345C524.821 16.2782 525.452 19.2585 526.209 22.1754C526.272 22.4924 526.319 22.7936 526.366 23.0949C526.413 23.3961 526.461 23.6973 526.524 24.0143C526.685 24.8731 526.848 25.73 527.011 26.5851L527.019 26.6253C529.271 38.4466 531.461 49.9468 528.289 61.9974C527.217 66.1825 525.515 70.2408 523.434 74.0454C517.192 83.6204 507.607 91.0395 496.573 94.4002C488.439 96.8732 479.737 96.8733 472.927 91.3565L472.486 90.9977C469.686 88.7161 467.007 86.5345 463.532 85.2691C460.833 84.2781 458.017 83.7848 455.204 83.2919C453.877 83.0594 452.55 82.827 451.236 82.5425C442.598 80.5767 436.04 74.9331 432.383 66.9434C432.068 66.2459 431.752 65.5483 431.5 64.8508C429.735 60.2218 428.978 55.2124 429.167 50.1395C429.546 47.6665 429.987 45.1935 430.807 42.7205C432.257 38.3451 434.275 34.0966 436.797 30.1651C441.652 22.4291 448.021 15.8343 454.578 9.49327C454.872 9.21003 455.164 8.92762 455.457 8.64576C461.512 2.80641 467.318 -2.79296 471.288 -10.3543C472.742 -13.1615 474.022 -16.0652 475.303 -18.9707L475.303 -18.9726L475.304 -18.9741C477.465 -23.8778 479.629 -28.7866 482.638 -33.2456C485.223 -37.1136 488.502 -40.6012 492.726 -42.8206C493.735 -43.3279 494.744 -43.8352 495.816 -44.2157C496.131 -44.3425 496.51 -44.4693 496.825 -44.5327C496.951 -44.5961 497.014 -44.5961 497.14 -44.5961C497.251 -44.624 497.362 -44.6519 497.479 -44.6798C497.556 -44.6983 497.635 -44.7168 497.719 -44.7353C497.796 -44.7523 497.875 -44.7693 497.96 -44.7863C498.464 -44.9132 498.906 -44.9766 499.41 -45.1034C500.997 -45.3452 502.51 -45.2183 504.062 -45.0881L504.064 -45.0879C504.547 -45.0474 505.033 -45.0066 505.527 -44.9766V-43.7084C505.422 -43.8135 505.311 -43.9186 505.199 -44.0237L505.197 -44.0252C504.973 -44.2366 504.749 -44.4481 504.581 -44.6595C504.328 -44.9132 503.635 -44.5961 503.761 -44.2791C504.707 -41.8061 506.914 -40.4744 509.436 -40.094C510.76 -39.9037 512.778 -39.9671 514.165 -40.6646C518.642 -37.6209 522.677 -34.1334 526.019 -29.8214C527.722 -27.6654 529.298 -25.3827 530.496 -22.9096V-22.8462C531.253 -19.1684 530.875 -15.0467 529.992 -11.5591ZM588.696 11.5224C585.039 9.42985 580.877 8.09822 576.715 7.46409C574.737 7.17982 572.739 6.99958 570.74 6.81928C566.496 6.4365 562.25 6.05342 558.177 4.67405C553.133 3.02537 548.404 0.171884 544.494 -3.44253C540.986 -6.69054 538.708 -10.4826 536.312 -14.4692C535.995 -14.9967 535.676 -15.5277 535.352 -16.0613C535.352 -16.1247 535.288 -16.1247 535.225 -16.1881C535.478 -17.71 535.478 -19.1684 535.162 -20.7537C535.036 -21.4512 534.847 -22.0853 534.595 -22.7194C533.712 -26.3972 531.82 -29.758 529.109 -32.4213C529.063 -32.5596 529.026 -32.6895 528.99 -32.8171L528.951 -32.9602C528.904 -33.1346 528.857 -33.309 528.794 -33.4992C528.352 -35.4016 528.1 -37.3673 528.1 -39.2696C528.037 -41.9963 528.542 -44.5327 529.109 -47.1325C534.91 -42.1231 540.585 -36.9868 546.071 -31.6603C551.872 -26.0802 557.547 -20.3098 562.843 -14.2224C564.167 -12.7005 565.476 -11.1787 566.784 -9.65679L566.808 -9.62914C568.109 -8.11648 569.409 -6.60384 570.725 -5.09121L570.96 -4.82601C573.464 -1.99856 575.94 0.796396 579.364 2.51808C579.742 2.70829 580.751 2.26444 580.436 1.75715C578.886 -0.825735 576.838 -3.09588 574.796 -5.36077C573.93 -6.32091 573.064 -7.28008 572.239 -8.26174C570.454 -10.4061 568.7 -12.5806 566.955 -14.7436L566.953 -14.747L566.914 -14.7949C566.145 -15.749 565.377 -16.7007 564.609 -17.6465C559.438 -23.9242 553.953 -29.9482 548.089 -35.6552C542.666 -40.9817 536.865 -46.1814 530.749 -50.9372C534.28 -51.5713 537.748 -51.9518 541.468 -51.5713C545.945 -51.1274 550.232 -49.7958 554.331 -48.0203C562.213 -44.6595 570.284 -39.6501 575.58 -32.8651C580.625 -26.4607 583.588 -18.7879 585.795 -11.0518C587.056 -6.67647 588.128 -2.23772 588.948 2.20103C589.39 4.54722 589.768 6.95683 590.146 9.36643C590.276 10.1087 590.347 10.8509 590.419 11.6139C590.452 11.959 590.485 12.3083 590.524 12.6638C589.957 12.1565 589.326 11.8395 588.696 11.5224ZM1362.62 23.1551C1361.71 12.7047 1360.79 2.25437 1362.21 -8.19597C1364.02 -21.7352 1370.4 -33.3064 1381.18 -41.8865C1389.29 -48.3413 1399.91 -53.9301 1410.93 -56.8426H1440.14H1440.22H1444.23C1444.23 -56.3703 1444.23 -55.8193 1444.31 -55.2683C1446.67 -54.4024 1448.8 -53.0642 1450.76 -51.5686L1450.77 -51.5683C1450.84 -51.4896 1451 -51.3324 1451.16 -51.2538C1451.16 -52.1984 1451.18 -53.143 1451.2 -54.0875C1451.22 -55.0322 1451.24 -55.9768 1451.24 -56.9213H1456.35C1456.31 -56.331 1456.27 -55.7209 1456.24 -55.1109C1456.2 -54.5008 1456.16 -53.8908 1456.12 -53.3004C1456.12 -52.9462 1456.1 -52.5723 1456.08 -52.1984C1456.06 -51.8245 1456.04 -51.4506 1456.04 -51.0963C1456.2 -42.9885 1456.43 -34.6446 1457.53 -26.5369C1458.09 -23.5456 1458.72 -20.5544 1459.58 -17.6419C1462.81 -6.14934 1468.71 4.00504 1476.58 12.9C1481.54 18.4888 1487.13 23.6054 1492.8 28.5645C1496.5 31.3455 1500.29 34.0216 1504.07 36.6976L1504.07 36.6986C1511.65 42.0513 1519.22 47.404 1526.1 53.5963C1525.64 52.5152 1525.18 51.4341 1524.73 50.3549L1524.73 50.3512C1523.63 47.7387 1522.54 45.1376 1521.37 42.576C1518.93 37.1446 1516.41 31.7132 1513.82 26.2817C1509.55 17.4707 1505.16 8.72196 1500.77 -0.026846L1500.77 -0.0294095L1500.77 -0.031973L1500.77 -0.0345365L1500.77 -0.0370999L1500.76 -0.0396634L1500.76 -0.0422269C1495.27 -10.9849 1489.78 -21.9275 1484.53 -32.9916C1480.83 -40.8632 1477.29 -48.8136 1473.99 -56.8426H1476.98C1485.16 -37.7933 1494.45 -19.2162 1503.82 -0.875357C1508.78 8.88548 1513.66 18.6463 1518.3 28.5645C1518.84 29.7195 1519.39 30.8791 1519.93 32.0431L1519.93 32.0436L1519.94 32.044L1519.94 32.0445L1519.94 32.0449L1519.94 32.0454L1519.94 32.0458C1523.3 39.2106 1526.75 46.542 1529.32 53.9899C1529.87 42.6547 1529.64 31.2409 1528.69 19.9057C1526.73 -4.73244 1521.29 -30.0004 1510.98 -52.5919C1510.27 -54.0875 1509.57 -55.5044 1508.78 -57.0001H1514.6C1520.9 -44.0906 1524.92 -29.7642 1527.99 -16.3037C1533.89 9.43647 1535.46 35.7277 1532.71 61.9402C1532.55 63.121 1530.98 65.9548 1528.77 64.3804C1522.63 60.051 1516.57 54.9345 1510.83 50.0541C1505.71 45.8034 1500.59 41.474 1495.55 37.1446L1493.9 35.9638C1491.78 34.3895 1489.57 32.7365 1487.45 31.0834C1487.6 34.6257 1486.82 38.3254 1486.11 41.2378C1484.85 46.5906 1482.96 51.7858 1480.76 56.8236C1473.36 73.8264 1461.47 88.7038 1447.62 100.983C1435.81 111.453 1420.07 123.654 1403.38 125.386C1390.78 127.826 1377.95 126.173 1367.25 117.278C1356.23 108.147 1354.57 94.0564 1356.94 80.6747C1357.65 76.6645 1358.69 72.7222 1359.72 68.775L1359.72 68.7713L1359.72 68.7706L1359.72 68.7699L1359.72 68.7691L1359.72 68.7684L1359.72 68.7677C1360.62 65.3567 1361.52 61.9421 1362.21 58.4767C1363.78 50.8412 1364.02 43.0483 1363.55 35.2554C1363.33 31.222 1362.97 27.1885 1362.62 23.1551ZM1445.15 -50.1864L1445.14 -50.1878C1444.45 -50.6882 1443.75 -51.193 1443.05 -51.7261C1433.76 -55.1109 1423.21 -55.2683 1413.61 -52.9855C1399.68 -49.6794 1384.72 -41.8865 1375.75 -30.4727C1363.73 -15.1608 1365.56 4.054 1367.35 22.7698C1368.12 30.8981 1368.89 38.9323 1368.51 46.5118C1368.17 53.8204 1366.4 60.8151 1364.63 67.807C1363.08 73.9183 1361.54 80.0276 1360.95 86.3423C1360.32 93.2693 1361.03 100.59 1364.73 106.651C1367.64 111.295 1371.97 114.916 1376.85 117.356L1376.85 117.357C1378.19 117.986 1379.53 118.616 1380.86 119.088C1381.1 119.01 1381.34 119.01 1381.57 119.088C1387.24 120.269 1392.83 121.056 1398.65 120.19C1404.24 119.324 1409.67 117.514 1414.79 115.152C1430.38 107.989 1444.7 97.3625 1455.8 84.2169C1458.09 81.4619 1460.21 78.6281 1462.34 75.7156C1467.77 67.6865 1472.02 58.949 1474.85 49.7392C1476.35 45.0162 1477.45 40.1358 1478.08 35.2554C1478.43 32.355 1478.52 29.4991 1478.61 26.6208L1478.61 26.6165C1478.64 25.6685 1478.67 24.7181 1478.71 23.7628C1474.93 20.378 1471.39 16.6784 1468.16 12.7426C1460.37 3.06046 1455.57 -7.88109 1453.44 -20.0821C1452.1 -28.2686 1451.39 -36.6912 1451.24 -45.0352C1450.65 -45.5407 1450.09 -46.0847 1449.54 -46.6102L1449.54 -46.6106C1448.99 -47.1486 1448.45 -47.6671 1447.93 -48.1051C1447.02 -48.8311 1446.09 -49.5048 1445.15 -50.1864ZM59.8409 82.4C59.238 81.847 58.7565 81.2615 58.3191 80.5991C54.0345 83.7609 47.3653 83.5991 42.6832 82.1254C37.8474 80.563 34.1207 77.0794 31.9287 72.535C31.5358 71.7958 31.1428 71.0567 30.7943 70.2406C30.0765 68.2893 29.7993 66.2849 29.8413 64.26C23.4581 66.6199 15.9628 61.6777 13.0704 56.2167C9.92687 50.3032 9.86132 42.7856 12.4973 36.6228C18.281 23.0556 37.5787 14.8318 48.3119 26.7665C53.991 16.93 69.7228 11.1557 78.6329 19.6813C79.2477 20.0362 79.8181 20.468 80.2673 20.9323C84.2057 18.9026 88.9536 17.9552 93.0297 19.5913C93.4354 17.4689 94.1929 15.4471 95.4675 13.4166C102.596 1.95765 125.561 -1.79232 134.308 8.79072C139.813 5.82151 145.986 3.64775 152.333 4.54551C160.297 5.65959 165.663 11.6269 169.85 18.0403L169.914 18.1372L169.969 18.2221L170.058 18.3603C170.109 18.4404 170.159 18.5205 170.209 18.6004L170.294 18.7355L170.33 18.7936C170.43 18.9546 170.528 19.1148 170.625 19.2735C171.863 21.2946 172.954 23.0767 175.648 23.4372C177.463 23.6654 179.19 24.0473 180.948 24.5504C182.545 24.9761 184.113 25.4715 185.678 25.9656C188.638 26.9005 191.585 27.8309 194.679 28.2767C199.607 28.97 204.08 27.9663 208.231 25.0351C209.83 23.9388 211.304 22.6015 212.784 21.2593L212.785 21.2586C214.759 19.4682 216.743 17.669 219.045 16.4212C220.284 14.9849 222.439 15.5118 223.721 16.6622C225.574 18.2444 226.245 20.988 224.266 22.8172C223.427 23.5619 222.401 24.0966 221.298 24.587C219.432 25.8664 217.522 27.2227 216.44 28.0324C215.104 29.012 213.891 30.1103 212.667 31.218L212.667 31.2185C212.392 31.4674 212.116 31.7168 211.839 31.9654C211.545 32.2289 211.249 32.4915 210.948 32.7517C207.601 35.5324 203.881 37.8932 199.666 37.9185C196.021 37.7958 192.514 36.5922 189.035 35.3983C186.757 34.6168 184.492 33.8395 182.208 33.3721C179.305 32.7208 176.225 32.3769 173.141 32.7484C171.34 32.9527 169.818 33.5793 168.296 34.206C167.687 34.4566 167.078 34.7073 166.451 34.9309C166.893 39.4895 165.254 44.281 162.858 48.4307C162.148 49.6603 161.361 50.8455 160.498 51.9863C160.232 52.4469 159.889 52.8632 159.546 53.2794L159.545 53.2808C155.34 58.4351 149.846 61.2062 144.029 60.1017C144.014 61.0152 143.922 61.8843 143.709 62.7858C143.184 66.8889 140.372 70.6956 137.134 73.6419C136.25 74.4634 135.289 75.2406 134.295 75.8965C133.818 76.2439 133.305 76.5711 132.818 76.8816L132.552 77.0521C132.411 77.142 132.275 77.2305 132.142 77.3178C128.556 79.448 124.742 80.7298 120.834 80.9325C119.522 86.2207 112.811 90.7475 108.346 92.2685C105.712 93.1043 102.992 93.3783 100.296 93.2563C100.18 94.5215 99.5798 95.9166 98.6837 96.9362C97.0572 98.8661 94.7185 100.077 92.2562 99.373C90.0688 98.7249 87.7666 96.6785 87.0608 94.5291C86.343 92.5778 87.1448 90.4791 88.6145 89.1759C88.2558 88.9688 87.9365 88.6934 87.6173 88.418C87.4578 88.2804 87.2982 88.1427 87.1338 88.0137C86.1467 87.2388 85.2038 86.3871 84.3498 85.3818C81.5199 88.1538 76.4202 89.0006 72.7014 88.6978C67.7942 88.3238 63.2483 85.9042 59.8409 82.4ZM92.7894 95.7873C94.1078 96.3435 95.1899 95.5339 95.9648 94.5467C96.441 93.8995 96.5535 93.3496 96.5566 92.6343C94.8304 92.2524 93.116 91.6724 91.4902 90.9387C91.1472 91.3554 90.7598 91.849 90.4936 92.3101L90.4579 92.9043C90.4702 93.0942 90.4825 93.2842 90.504 93.4579C90.5187 93.5762 90.5377 93.6871 90.5641 93.7853C90.9895 94.6456 92.1304 95.5092 92.7894 95.7873ZM79.6283 82.9117C79.8241 82.7943 80.0199 82.6769 80.2239 82.5898C80.7207 82.2618 81.2618 81.857 81.6373 81.5615C81.0496 80.095 80.6273 78.5192 80.4475 76.8785C80.3738 76.1187 80.3445 75.2821 80.3921 74.4898C80.1568 70.4605 81.2312 66.4699 84.0082 63.2574C84.2406 62.8547 84.4979 62.5444 84.788 62.1947L84.9161 62.0397C81.8921 61.4209 79.0575 60.2967 76.8288 59.01C73.6456 57.0697 70.9506 54.2841 69.2045 50.9194C68.0692 51.2886 67.055 51.6253 65.9404 52.3137C65.1568 52.7835 64.4502 53.2976 63.7759 53.933C61.1084 57.3111 59.4105 60.4293 58.6379 63.3646C58.0073 66.5866 58.157 70.0543 59.1995 73.2178C60.006 75.0154 61.0548 76.7481 62.4674 78.3833C65.0294 81.3995 68.7181 83.5291 72.623 84.0418C74.042 84.2462 75.3959 84.2082 76.7617 83.9722C77.6427 83.866 78.3375 83.5499 79.0323 83.2338C79.0807 83.2132 79.1285 83.1909 79.176 83.1672C79.2422 83.1343 79.3077 83.0989 79.3728 83.062C79.4584 83.0136 79.5433 82.9626 79.6283 82.9117ZM114.75 80.2891C113.651 80.0641 112.64 79.6853 111.552 79.2623C105.082 76.4488 97.9974 70.6169 96.8085 63.2704C96.7235 62.7786 96.7014 62.27 96.6802 61.7853C96.672 61.597 96.6639 61.4122 96.6525 61.2335C95.9252 61.4284 95.1979 61.6233 94.4381 61.6969C92.5311 62.3378 90.373 62.5263 88.2712 62.4399L88.0707 62.8394C86.1031 66.7565 84.1442 70.6565 84.56 75.2568C84.9989 80.5308 88.5037 84.3987 93.1501 86.4665C97.4123 88.3126 102.21 88.521 106.61 86.7576C108.727 85.9306 110.669 84.6955 112.272 83.1617C113.2 82.2633 113.975 81.2762 114.75 80.2891ZM139.512 58.5187L138.974 58.2081C136.702 56.9983 134.772 55.3718 133.129 53.6034L133.084 53.6803C132.063 58.1113 126.356 54.5088 124.801 52.5868C123.684 51.3271 123.185 49.7069 123.523 48.0575C123.691 47.2327 124.014 46.4967 124.49 45.8495C124.579 45.6958 126.182 44.1621 126.832 43.9228C126.374 42.9412 125.961 41.8827 125.624 40.8687C122.688 42.7597 118.711 43.4354 115.486 43.5201C113.296 43.5874 111.206 43.3029 109.172 42.7435C107.259 44.8152 105.697 46.9875 104.52 49.3817C102.952 52.9848 102.043 56.866 102.642 60.7979C103.441 66.6899 108.453 73.272 113.956 75.6299C119.153 77.8103 126.139 76.0033 130.698 72.8978C134.882 70.0878 136.947 66.1567 138.87 61.9388C138.938 61.4658 139.083 61.0372 139.228 60.6086C139.268 60.2738 139.319 59.9197 139.37 59.5657C139.421 59.2103 139.472 58.8548 139.512 58.5187ZM131.135 51.7737C131.149 51.758 131.164 51.7427 131.178 51.7279C131.217 51.6885 131.257 51.6529 131.299 51.6252C130.194 50.1674 129.178 48.5559 128.359 46.9564C127.984 47.2519 127.608 47.5474 127.342 48.0084C126.721 49.0843 127.146 49.9447 127.935 50.7077C128.385 51.1719 129.174 51.9349 129.8 52.0917C129.933 52.1296 130.067 52.1394 130.199 52.1359C130.325 52.1325 130.45 52.117 130.571 52.102L130.655 52.0918C130.716 52.0845 130.776 52.0781 130.835 52.0744C130.884 52.042 130.93 51.999 130.975 51.9516C131.006 51.9191 131.037 51.8845 131.067 51.8499L131.068 51.849C131.09 51.8236 131.112 51.7983 131.135 51.7737ZM140.436 53.724C147.066 57.8589 152.704 54.6592 156.913 48.7895C160.689 43.4902 161.968 38.0808 161.358 31.6834C155.421 25.2843 146.201 17.2966 136.734 20.028L136.69 20.1049C125.048 29.2654 128.747 46.4628 140.436 53.724ZM137.628 17.0603C138.63 16.9217 139.709 16.8274 140.821 16.8544C148.249 16.9425 155.704 21.2462 161.106 26.6193C162.463 25.8659 164.92 25.3375 166.439 25.1902C166.144 24.8147 165.925 24.4835 165.751 24.0755C159.14 15.6482 147.796 9.91841 137.144 14.5267C137.339 15.254 137.489 16.0581 137.595 16.9391C137.604 16.9443 137.612 16.95 137.618 16.956C137.62 16.9586 137.623 16.9612 137.625 16.9639L137.63 16.9719C137.634 16.9781 137.636 16.9844 137.638 16.9907C137.647 17.0264 137.628 17.0603 137.628 17.0603ZM222.633 18.9027C222.476 19.5293 222.242 20.1116 221.932 20.6495C221.68 20.1972 221.914 19.6149 222.633 18.9027ZM158.927 9.27458C151.496 4.57478 142.89 6.88084 135.696 10.8221C135.915 11.1533 136.057 11.44 136.243 11.65C141.284 9.12998 147.338 8.93681 152.417 10.4343C155.461 11.3724 158.054 12.5616 160.193 14.002C162.159 15.0343 163.87 16.3297 165.36 18.0093C166.958 19.8544 168.796 22.3501 169.401 24.8512L169.402 24.8526C169.532 25.3367 169.629 25.7001 169.605 26.0958C169.593 26.2939 169.626 26.4151 169.614 26.6132C169.611 27.3286 168.629 27.7865 168.103 27.2778C168.05 27.2267 168 27.1773 167.952 27.129C167.881 27.0575 167.814 26.9883 167.748 26.9192C167.678 26.8473 167.608 26.7755 167.534 26.701C167.489 26.655 167.441 26.6079 167.391 26.5592C166.557 27.0098 165.579 27.2766 164.636 27.5337C164.231 27.6441 163.833 27.7528 163.456 27.8735C163.344 27.8668 163.191 27.9328 163.014 28.0093C162.971 28.0278 162.926 28.0469 162.881 28.0658L162.847 28.0797L162.794 28.1008C162.762 28.113 162.73 28.1249 162.697 28.1361C162.653 28.1514 162.608 28.1655 162.563 28.1777C163.037 28.6568 163.473 29.2042 163.908 29.7516C164.031 29.9055 164.153 30.0595 164.276 30.2119L164.342 30.2923L164.425 30.394L164.497 30.4806L164.566 30.564C164.676 30.7296 164.708 30.8508 164.741 30.972L165.278 31.2826C173.478 26.4873 183.156 28.1813 191.816 30.9275C196.729 32.5343 201.589 33.7006 206.154 31.8278C208.008 30.7464 209.829 29.5438 211.299 28.2406L211.36 28.1854C213.719 26.0557 217.543 22.6032 220.199 21.6984C219.487 20.9799 218.819 20.1844 218.515 19.2915C216.137 21.8124 213.177 24.0996 210.56 25.97C207.568 28.136 204.248 29.8052 200.603 30.2622C195.208 30.9579 190.164 29.3706 185.122 27.7843C182.299 26.8962 179.478 26.0085 176.597 25.5216C176.125 25.425 175.583 25.3852 175.023 25.344C173.953 25.2654 172.813 25.1816 171.956 24.6865C171.01 24.1406 170.425 23.0756 169.892 22.1058L169.883 22.0898C169.811 21.9591 169.74 21.8303 169.67 21.7047C169.586 21.5557 169.502 21.4114 169.417 21.2742C166.587 16.771 163.404 12.1672 158.927 9.27458ZM110.33 7.5503C105.91 8.99449 102.013 11.6627 99.7385 15.7799C97.3308 20.1278 97.1548 25.0468 98.6758 29.5111C99.8664 31.5306 101.586 33.3433 103.682 34.8605C109.738 39.279 117.483 40.062 124.451 37.2203C124.462 37.2022 124.474 37.1908 124.487 37.183C124.491 37.181 124.494 37.1792 124.498 37.1777L124.51 37.1729L124.519 37.1698L124.534 37.1657C124.564 37.1575 124.595 37.1494 124.617 37.111C124.242 34.743 124.264 32.3987 124.637 30.1551C125.753 24.1395 129.592 19.7981 134.751 17.961C134.773 17.9238 134.802 17.915 134.831 17.9071L134.834 17.9064C134.844 17.9037 134.854 17.901 134.864 17.8972L134.871 17.8942L134.879 17.89C134.893 17.8821 134.906 17.8706 134.917 17.8517C134.84 17.8073 134.807 17.6861 134.775 17.5649C132.499 7.13172 120.249 4.56773 110.33 7.5503ZM92.1891 22.9995C90.439 23.0137 88.6445 23.1048 86.7375 23.7457C84.2245 24.549 81.9182 25.8815 80.0731 27.4802C75.2236 31.4429 72.1092 36.3049 72.7634 42.6254C73.2086 46.4686 74.5023 50.0845 76.8337 52.9675C78.1932 54.1623 79.6415 55.2033 81.2671 55.937C86.1766 58.2592 89.6855 58.7481 96.0061 58.0938C96.0238 58.0891 96.042 58.0846 96.0604 58.0802L96.1037 58.0705L96.1579 58.0592L96.2545 58.0405L96.256 58.0402L96.2578 58.0398C96.3599 58.0204 96.4673 57.9999 96.5749 57.9702C96.6691 57.9443 96.7634 57.9115 96.8546 57.8665C97.6073 51.9484 100.802 46.4154 104.191 41.6097C104.445 41.3467 104.655 41.1605 104.942 41.0187C103.976 40.5632 103.098 39.9539 102.22 39.3446C100.772 38.3036 99.6105 37.1207 98.5378 35.7842C94.9768 32.1913 92.8616 27.6912 92.7389 23.112C92.5852 23.0233 92.3871 23.0114 92.1891 22.9995ZM58.3942 21.7264C56.011 23.0145 54.0327 24.8438 52.4267 27.0929C50.9983 29.0347 49.8978 31.4732 49.3915 33.9474C48.9383 36.8621 49.2773 39.8243 50.4648 42.5592C52.988 46.8849 58.2667 50.3424 63.017 51.3431C64.6404 50.1286 66.4498 49.1241 68.345 48.6813C67.6597 46.8512 67.2937 45.0005 67.2146 43.008C66.8946 35.7533 71.2545 28.0243 76.7014 23.3818C76.9557 23.1188 77.3312 22.8233 77.6623 22.6047C74.9933 21.3711 72.478 20.2262 69.6846 19.7405C65.812 19.349 61.8357 20.0247 58.3942 21.7264ZM16.8103 36.9612C14.1807 41.6932 13.218 47.7974 15.4631 52.7823C18.1661 58.7488 23.5842 60.545 29.6711 60.473C29.7889 60.4801 29.9341 60.5028 30.0647 60.5389C30.0947 60.5471 30.1239 60.5561 30.1518 60.5657L30.1648 60.5703L30.1966 60.5823C30.2081 60.5868 30.2192 60.5913 30.23 60.596L30.2517 60.6059L30.2779 60.619L30.2977 60.6299C30.5553 59.6515 30.8572 58.5962 31.3127 57.6296C33.6326 50.772 39.2394 44.7875 45.7676 41.9989C44.607 38.1525 45.1435 33.8514 46.6465 30.0059C46.4772 29.8913 46.3088 29.7765 46.1415 29.6616L45.8612 29.469L45.5961 29.2862C42.9115 27.435 40.3729 25.6845 36.9043 25.4059C34.1758 25.1626 31.3998 25.7116 28.798 26.6686C23.8369 28.5175 19.4398 32.2291 16.8103 36.9612ZM34.6612 69.3994C35.4764 71.7143 36.8208 73.8225 38.6295 75.4815C39.649 76.3776 40.7574 77.12 41.9101 77.7855C42.6461 78.108 43.3821 78.4304 44.1625 78.676C48.6066 80.0352 52.1832 78.6238 56.2019 77.0381L56.4313 76.9476C55.4624 74.5439 55.0671 71.8566 55.068 69.1931C54.7797 64.7232 55.8453 60.2153 58.2618 56.3849C58.4164 56.1749 58.5581 55.9683 58.698 55.7644C58.9891 55.3399 59.2723 54.9272 59.6459 54.5199C58.5463 54.2949 57.5354 53.9162 56.5688 53.4606C52.8445 51.9252 49.5021 48.6634 47.5018 45.5617C44.7107 47.0241 42.017 48.8502 39.74 51.0193C35.1061 56.0286 32.3575 62.7413 34.6612 69.3994ZM1858.36 89.9658C1858.3 89.9658 1858.27 89.9353 1858.24 89.9048C1858.21 89.8742 1858.18 89.8437 1858.12 89.8437C1858 89.8437 1857.87 89.7215 1857.87 89.7215C1853.43 88.0137 1847.82 89.7023 1843.42 91.0275C1843.1 91.1238 1842.79 91.2183 1842.48 91.3093C1828.44 95.3398 1815 101.569 1802.91 109.752C1795.95 114.515 1789.48 120.011 1783.61 126.118C1778.85 131.004 1773.84 136.377 1770.42 142.362C1765.42 131.981 1756.26 122.943 1747.22 116.103C1738.18 109.263 1725.48 102.179 1713.75 101.324C1713.26 101.08 1712.9 101.08 1712.41 101.324C1712.16 101.324 1712.04 101.447 1711.92 101.691C1710.94 102.424 1710.33 104.134 1711.07 105.477C1713.14 109.508 1715.71 113.538 1718.52 117.324C1692.99 120.256 1674.06 144.072 1665.75 166.667C1655.13 195.369 1653.05 227.735 1656.59 257.903L1656.72 258.926C1658.15 270.921 1659.83 284.953 1666.24 295.521C1670.39 306.879 1683.22 312.62 1693.48 312.986C1704.85 313.278 1716.07 308.85 1726.77 304.628L1726.77 304.628L1726.77 304.628L1726.77 304.627C1729.51 303.545 1732.22 302.477 1734.88 301.505C1738.05 300.328 1741.25 299.176 1744.46 298.021C1769.51 288.995 1794.96 279.829 1811.1 257.414C1815.49 251.308 1819.03 244.712 1821.6 237.75C1824.16 231.033 1826.12 219.308 1825.38 209.049C1825.51 204.529 1825.26 200.01 1824.53 195.491C1827.09 196.102 1829.66 196.591 1831.98 196.713C1832.84 196.713 1833.32 196.468 1833.45 195.98C1833.81 195.613 1834.06 195.003 1833.81 194.27C1826.12 171.797 1802.79 155.431 1779.71 150.667C1785.93 140.897 1793.02 131.37 1802.3 124.164C1810.61 117.691 1820.5 114.271 1830.64 111.95C1835.64 110.851 1840.77 109.996 1845.9 109.263C1846.6 109.161 1847.3 109.07 1848.01 108.978L1848.01 108.977C1851.54 108.516 1855.19 108.041 1858.24 106.21C1861.54 104.256 1864.1 100.958 1863.98 97.0497C1863.74 94.7291 1861.42 91.3093 1858.36 89.9658ZM1797.29 259.857C1779.31 280.311 1754.76 286.849 1729.32 293.626C1728.32 293.891 1727.33 294.155 1726.33 294.422C1719.25 296.376 1712.16 298.086 1705.08 299.673C1704.81 299.733 1704.54 299.794 1704.27 299.856L1703.73 299.98L1703.5 300.031L1703.5 300.032C1696.82 301.557 1689.42 303.244 1682.97 300.528C1669.3 294.666 1666.85 280.01 1664.78 267.185C1660.5 240.193 1660.62 213.567 1666.73 186.942C1670.39 170.698 1677.84 153.843 1688.96 141.019C1697.87 130.759 1707.65 123.187 1720.59 120.133C1722.09 122.088 1723.8 124.042 1725.42 125.895L1725.42 125.895L1725.72 126.24C1725.36 126.607 1725.11 127.095 1724.87 127.584C1724.13 129.049 1724.26 130.881 1725.36 132.103C1726.45 133.324 1728.41 133.568 1730 133.202C1730.61 133.08 1731.34 132.713 1731.95 132.347C1733.54 133.813 1735.13 135.156 1736.84 136.5C1722.42 134.179 1706.79 134.423 1694.94 142.118C1693.72 142.851 1693.36 144.194 1693.72 145.416C1693.6 146.148 1694.09 147.003 1694.82 147.37C1695.07 147.492 1695.34 147.614 1695.62 147.736C1695.89 147.858 1696.16 147.98 1696.41 148.103C1699.1 149.446 1701.78 150.667 1704.59 151.767C1701.91 154.087 1696.65 159.828 1702.03 161.904C1706.06 163.492 1711.8 158.606 1712.9 154.698C1716.81 155.919 1720.71 156.896 1724.74 157.751C1729.63 158.728 1734.52 159.339 1739.52 159.583C1740.18 159.611 1740.85 159.644 1741.54 159.678C1743.92 159.797 1746.46 159.922 1748.93 159.828C1745.87 164.347 1742.94 169.11 1740.26 173.873C1735.37 182.789 1731.83 192.194 1731.34 202.331C1730.97 204.041 1730.85 205.506 1731.1 206.361C1731.1 207.705 1732.32 208.071 1733.9 207.705C1741.6 205.751 1748.93 199.522 1754.3 193.782C1757.36 190.484 1760.9 186.331 1763.34 181.934C1762.97 189.262 1764.81 195.613 1767.86 202.819C1770.67 209.659 1774.82 218.697 1782.52 220.896C1783.98 221.384 1784.96 220.285 1785.57 219.186C1789.97 211.125 1793.51 200.499 1794.24 191.583C1794.61 187.43 1794.48 183.156 1793.75 179.003C1797.42 182.301 1801.45 185.11 1805.6 187.675C1809.39 189.995 1814.39 192.316 1819.64 194.026C1822.33 218.209 1813.66 241.292 1797.29 259.857ZM1726.7 127.217C1728.04 128.683 1729.39 130.026 1730.85 131.37C1729.51 132.103 1727.55 132.591 1726.45 131.126C1725.36 129.782 1725.72 128.317 1726.7 127.217ZM1705.81 152.133C1707.65 152.866 1709.36 153.477 1711.19 154.087C1710.88 154.497 1710.57 154.938 1710.26 155.389C1708.7 157.629 1706.95 160.133 1704.1 160.438C1701.42 160.683 1701.42 158.118 1702.27 156.408C1703.13 154.82 1704.47 153.354 1705.81 152.133ZM1852.5 101.813C1850.31 102.675 1847.86 102.984 1845.46 103.288C1844.11 103.458 1842.78 103.626 1841.51 103.889C1834.06 105.233 1826.61 106.943 1819.52 109.385C1817.08 110.118 1814.76 110.973 1812.44 112.072C1811.89 112.317 1811.31 112.592 1810.73 112.866L1810.73 112.867L1810.72 112.868C1810.15 113.142 1809.57 113.417 1809.02 113.66L1808.92 113.709L1808.8 113.77L1808.72 113.81C1808.57 113.88 1808.43 113.951 1808.28 114.023C1807.51 114.397 1806.7 114.788 1805.97 115.248C1791.68 122.943 1781.17 136.011 1773.48 149.935C1773.11 150.545 1773.23 151.034 1773.6 151.522C1773.72 151.767 1773.84 152.011 1774.33 152.133C1774.45 152.133 1774.45 152.133 1774.58 152.255L1774.58 152.255C1774.6 152.255 1774.62 152.255 1774.63 152.256C1774.65 152.257 1774.67 152.259 1774.68 152.265C1774.72 152.277 1774.75 152.307 1774.82 152.377L1774.82 152.377C1787.03 156.53 1798.64 160.683 1809.02 168.621C1816.96 174.728 1822.94 182.056 1827.58 190.484C1821.6 188.53 1815.74 186.331 1810.12 183.156C1808.16 182.056 1806.21 180.835 1804.38 179.491C1799.43 175.536 1794.81 171.18 1790.31 166.942L1790.31 166.941L1790.31 166.94L1790.31 166.94L1790.31 166.939L1790.31 166.939L1790.31 166.939C1789.25 165.944 1788.2 164.955 1787.16 163.98C1785.81 162.759 1782.39 163.614 1783.49 165.812C1784.07 167.058 1784.57 168.378 1785.05 169.656L1785.05 169.657C1785.18 170.008 1785.31 170.356 1785.45 170.698C1785.62 171.567 1785.92 172.498 1786.21 173.403L1786.21 173.404L1786.21 173.406C1786.32 173.771 1786.44 174.133 1786.55 174.484C1789.84 186.82 1788.62 200.132 1783.37 211.98C1773.72 199.4 1768.71 184.133 1768.96 168.377C1768.96 166.667 1765.9 166.423 1765.42 167.889C1759.92 180.835 1749.17 189.873 1737.94 198.056C1738 197.751 1738.06 197.415 1738.12 197.079L1738.12 197.079C1738.18 196.743 1738.24 196.407 1738.3 196.102C1742.7 182.056 1748.81 169.354 1758.7 157.751C1759.07 157.263 1759.19 156.774 1759.19 156.286C1759.31 155.064 1757.84 153.965 1756.62 154.087C1756.22 154.087 1755.9 154.171 1755.52 154.269C1755.47 154.282 1755.42 154.295 1755.37 154.308L1755.35 154.314L1755.28 154.332L1755.25 154.331C1755.25 154.331 1755.24 154.331 1755.23 154.331L1755.22 154.331L1755.21 154.33C1755.2 154.329 1755.18 154.326 1755.17 154.322C1755.13 154.309 1755.1 154.28 1755.03 154.21L1755.03 154.209C1752.19 153.656 1749.19 153.665 1746.2 153.675C1744.58 153.68 1742.95 153.685 1741.36 153.599C1736.23 153.354 1731.22 152.622 1726.21 151.767C1718.52 150.301 1711.19 147.981 1704.1 144.927C1710.33 142.607 1717.29 142.24 1723.77 142.118C1729.63 142.118 1736.71 142.362 1743.19 143.339C1746.49 144.072 1749.66 144.805 1752.71 145.66C1752.84 145.66 1752.96 145.66 1753.08 145.782C1754.67 146.148 1755.77 145.416 1755.65 144.194C1755.77 143.706 1755.65 143.095 1754.91 142.484C1746.97 136.133 1739.28 129.782 1732.2 122.576C1729.22 119.458 1726.43 116.183 1723.67 112.928L1723.67 112.927L1723.66 112.925L1723.66 112.924C1721.56 110.444 1719.46 107.976 1717.29 105.599C1718.49 106.062 1719.7 106.499 1720.9 106.936L1720.9 106.936L1720.9 106.937L1720.9 106.937L1720.9 106.937L1720.9 106.937L1720.9 106.938L1720.9 106.938L1720.9 106.938L1720.91 106.938L1720.91 106.939L1720.91 106.939L1720.91 106.939L1720.91 106.94L1720.91 106.94L1720.91 106.94L1720.91 106.94L1720.91 106.941L1720.91 106.941L1720.91 106.941L1720.91 106.941L1720.91 106.942L1720.91 106.942L1720.92 106.942L1720.92 106.943L1720.92 106.943L1720.92 106.943C1723.52 107.889 1726.11 108.828 1728.53 109.996C1734.15 112.683 1739.4 116.103 1744.29 119.767C1752.71 126.118 1758.7 133.935 1764.56 142.24C1764.44 142.24 1764.44 142.24 1764.32 142.362C1754.18 148.957 1770.42 161.171 1778.12 157.873C1778.48 157.751 1778.61 157.141 1778.12 156.896C1776.75 156.319 1775.37 156.012 1773.98 155.705L1773.98 155.705C1772.13 155.297 1770.28 154.888 1768.47 153.843C1764.81 151.644 1761.39 147.125 1765.29 143.339C1766.03 144.438 1766.76 145.538 1767.61 146.637C1768.71 148.225 1771.52 147.125 1771.52 145.416C1773.35 143.416 1775.07 141.309 1776.8 139.195C1778.76 136.791 1780.74 134.378 1782.88 132.103C1787.28 127.462 1792.04 123.065 1797.05 119.034C1807.68 110.607 1819.4 103.645 1831.98 98.7596C1833.17 98.3066 1834.32 97.8489 1835.44 97.4012C1840.06 95.5551 1844.26 93.8771 1849.57 93.3856C1852.62 93.1413 1856.29 92.897 1857.14 95.4619C1857.87 97.294 1856.65 100.225 1852.5 101.813ZM1547.75 497.585C1547.89 497.432 1548.04 497.267 1548.22 497.133C1550.13 494.629 1552.24 492.256 1554.68 490.212C1547.76 489.355 1540.97 487.51 1534.51 485.071C1530.56 483.581 1526.81 481.726 1523.05 479.871C1519.67 478.198 1516.29 476.525 1512.76 475.118C1512.43 475.019 1512.11 474.904 1511.8 474.789L1511.8 474.789C1511.49 474.673 1511.17 474.558 1510.84 474.459C1509.79 474.13 1509.72 472.877 1510.65 472.35C1510.7 472.325 1510.74 472.3 1510.77 472.278C1510.83 472.243 1510.87 472.218 1510.91 472.218C1516.79 469.299 1522.49 466.074 1528.22 462.834C1530.89 461.319 1533.58 459.802 1536.29 458.311C1549.4 451.126 1563.71 444.733 1578.93 444.205C1596.07 443.612 1610.97 451.917 1624.41 461.408C1624.97 461.408 1625.55 461.392 1626.13 461.376L1626.13 461.376L1626.13 461.376C1626.7 461.359 1627.28 461.343 1627.84 461.343C1627.91 461.178 1627.99 461.013 1628.07 460.848L1628.07 460.847C1628.15 460.683 1628.23 460.518 1628.3 460.354C1630.28 456.201 1632.52 452.181 1634.76 448.16C1635.28 447.248 1635.8 446.331 1636.31 445.412L1636.31 445.407L1636.31 445.407L1636.31 445.407V445.407C1637.54 443.207 1638.77 441.004 1640.16 438.866C1641.26 436.478 1642.39 434.128 1643.53 431.758C1643.9 430.988 1644.28 430.217 1644.65 429.441C1644.45 429.243 1644.45 428.913 1644.58 428.65C1646.95 424.365 1653.74 425.552 1653.68 430.232C1653.81 430.364 1653.87 430.561 1653.94 430.759C1654.07 430.957 1654.07 431.22 1654.01 431.484C1654.07 435.966 1652.03 440.514 1650.05 444.403C1648.39 447.686 1646.43 450.823 1644.48 453.949L1644.48 453.95L1644.48 453.951L1644.48 453.952L1644.48 453.952L1644.48 453.953L1644.48 453.953C1643.8 455.031 1643.13 456.109 1642.47 457.19C1637.79 465.1 1634.76 473.668 1633.24 482.632C1639.9 484.742 1646.36 487.905 1652.56 491.135C1656.58 493.244 1660.66 495.551 1664.29 498.386C1667.65 500.758 1670.35 503.856 1672.4 507.35C1678.66 517.5 1679.71 530.353 1679.98 541.954C1680.24 554.873 1678.39 568.055 1671.8 579.458C1666 589.477 1657.17 597.518 1647.09 603.253C1625 615.71 1597.85 615.381 1573.99 608.592C1561.4 605.032 1549.93 598.903 1541.49 588.818C1533.65 579.458 1529.1 567.989 1528.24 555.861C1527.39 543.008 1530.55 530.156 1535.76 518.423C1538.73 511.766 1542.42 505.372 1546.57 499.374L1546.57 499.369C1546.57 499.365 1546.57 499.362 1546.57 499.359C1546.57 499.356 1546.57 499.354 1546.57 499.352L1546.57 499.348C1546.57 499.346 1546.57 499.343 1546.58 499.341C1546.58 499.328 1546.59 499.318 1546.6 499.308C1546.62 499.292 1546.63 499.275 1546.63 499.242C1546.73 499.095 1546.81 498.952 1546.9 498.814L1546.9 498.813L1546.9 498.812C1547.12 498.456 1547.32 498.124 1547.56 497.792C1547.62 497.729 1547.68 497.659 1547.75 497.586L1547.75 497.585ZM1651.17 429.968C1649.79 429.704 1648.47 429.243 1647.15 428.65C1648.54 427.134 1650.64 428.188 1651.17 429.968ZM1635.35 452.591C1633.85 455.355 1632.38 458.073 1631.07 460.815C1629.68 463.715 1628.3 466.813 1626.98 470.043C1626.78 470.702 1626.6 471.378 1626.42 472.054C1626.24 472.729 1626.06 473.405 1625.86 474.064C1625.57 475.052 1625.28 476.058 1625 477.063C1624.72 478.068 1624.44 479.073 1624.15 480.062C1624.15 480.095 1624 480.588 1623.83 481.164L1623.83 481.166L1623.82 481.173L1623.82 481.183L1623.82 481.185L1623.82 481.188C1623.65 481.759 1623.45 482.406 1623.36 482.764C1623.03 483.85 1622.72 484.953 1622.4 486.055L1622.4 486.06C1622.09 487.164 1621.78 488.268 1621.45 489.355C1621.25 490.212 1619.6 490.081 1619.86 489.158C1620 488.729 1620.11 488.284 1620.23 487.839C1620.34 487.395 1620.46 486.95 1620.59 486.521C1619.6 486.785 1618.61 487.18 1618.28 487.905C1618.28 487.938 1618.27 487.988 1618.25 488.037C1618.23 488.087 1618.22 488.136 1618.22 488.169C1618.08 488.565 1618.15 488.96 1618.22 489.29C1618.68 490.214 1620.1 490.733 1621.02 491.069C1621.15 491.117 1621.27 491.16 1621.38 491.201C1623.16 491.86 1624.94 492.387 1626.78 492.783C1627.09 492.831 1627.44 492.904 1627.8 492.982C1628.44 493.119 1629.14 493.268 1629.82 493.31C1630.21 493.31 1630.54 493.244 1630.87 493.178C1631.53 492.981 1632.06 492.519 1632.26 491.597C1632.45 490.476 1632.06 489.619 1631.53 488.828C1631.4 488.894 1631.2 488.96 1631.07 488.96L1630.67 490.146C1630.54 490.41 1630.08 490.344 1630.08 490.081C1630.07 489.909 1630.06 489.74 1630.04 489.569L1630.04 489.562C1629.91 487.834 1629.77 486.042 1630.67 481.907C1630.8 481.184 1630.94 480.526 1631.07 479.869L1631.07 479.864C1632.32 472.35 1634.83 464.572 1638.39 458.311C1639.63 456.164 1640.94 454.051 1642.24 451.948L1642.24 451.945L1642.24 451.944L1642.24 451.943L1642.24 451.942L1642.24 451.942C1642.74 451.142 1643.23 450.343 1643.72 449.544C1644.32 448.49 1644.91 447.435 1645.44 446.314C1647.55 442.096 1649.33 437.812 1650.91 433.461C1650.97 433.232 1651.04 432.987 1651.1 432.741L1651.11 432.736C1651.17 432.489 1651.24 432.242 1651.3 432.011C1649.26 431.682 1647.28 431.023 1645.44 430.1C1644.71 432.143 1643.92 434.186 1643.06 436.164C1643.06 436.296 1643 436.493 1642.93 436.691C1640.85 442.425 1638.06 447.584 1635.35 452.591ZM1622.17 478.48C1623.29 473.536 1624.74 468.659 1626.65 463.979C1622.5 466.022 1617.16 469.318 1613.87 471.625C1611.36 473.339 1608.86 474.987 1606.35 476.634C1608.59 476.437 1610.9 476.502 1612.88 476.568C1615.58 476.7 1619.27 477.293 1622.17 478.48ZM1538.39 481.709L1538.4 481.71C1545.32 484.017 1552.37 486.06 1559.62 487.049C1567.92 487.642 1576.3 486.851 1584.2 484.214C1591.78 481.644 1598.64 477.425 1605.3 473.075C1608.92 470.768 1612.48 468.263 1615.97 465.759C1616.3 465.561 1616.63 465.347 1616.96 465.133L1616.96 465.132L1616.96 465.132C1617.29 464.918 1617.62 464.704 1617.95 464.506C1618.41 464.111 1618.87 463.65 1619.34 463.188C1616.2 463.188 1613.03 463.076 1609.88 462.964C1608.86 462.927 1607.83 462.891 1606.81 462.859C1597.26 462.595 1587.7 462.727 1578.21 463.386C1568.91 464.045 1559.69 465.1 1550.46 466.616C1545.98 467.341 1541.56 468.197 1537.14 469.12C1535.88 469.388 1534.61 469.68 1533.34 469.973C1529.92 470.76 1526.48 471.552 1522.97 471.889C1522.58 471.955 1522.25 471.361 1522.71 471.164C1526.44 469.472 1530.43 468.606 1534.41 467.744C1534.93 467.632 1535.44 467.52 1535.96 467.407C1540.64 466.418 1545.38 465.561 1550.13 464.77C1559.42 463.254 1568.91 462.199 1578.34 461.606C1587.3 461.013 1596.27 460.815 1605.23 461.079C1607.36 461.132 1609.48 461.207 1611.6 461.282C1614.71 461.392 1617.82 461.501 1620.92 461.54L1621.18 461.277C1620.46 460.878 1619.73 460.478 1619 460.077L1619 460.074L1618.99 460.071L1618.99 460.068L1618.98 460.065L1618.98 460.062L1618.97 460.058L1618.97 460.055L1618.96 460.051L1618.96 460.051C1611.64 456.014 1604.23 451.926 1596.33 449.412C1571.79 441.628 1549.87 453.793 1528.81 465.475C1524.19 468.037 1519.62 470.577 1515.06 472.877C1516.82 473.396 1518.43 474.109 1520.38 474.97L1520.38 474.971L1520.38 474.971L1520.38 474.971C1521.65 475.532 1523.06 476.157 1524.75 476.832C1525.48 477.096 1526.27 477.425 1526.99 477.755C1530.73 479.067 1534.54 480.379 1538.34 481.69L1538.34 481.691L1538.34 481.692L1538.35 481.692L1538.35 481.693L1538.35 481.694L1538.35 481.694L1538.35 481.695L1538.36 481.696L1538.36 481.696L1538.36 481.697L1538.36 481.698L1538.36 481.698L1538.36 481.699L1538.37 481.7L1538.37 481.7L1538.37 481.701L1538.37 481.702L1538.37 481.702L1538.38 481.703L1538.38 481.704L1538.38 481.704L1538.38 481.705L1538.38 481.706L1538.39 481.706L1538.39 481.707L1538.39 481.708L1538.39 481.708L1538.39 481.709ZM1558.56 490.608H1558.37C1555.73 492.322 1553.75 494.365 1552.04 497.067C1550.46 499.374 1548.88 501.681 1547.36 503.988C1537.14 522.576 1530.55 543.997 1536.02 565.419C1541.1 585.193 1558.83 597.98 1577.68 603.912C1596.73 609.91 1617.75 608.658 1636.01 600.616C1644.65 596.793 1652.62 591.52 1659.48 585.061C1663.5 581.238 1667.19 576.954 1669.76 572.076C1672.33 567.264 1673.71 561.991 1674.57 556.652C1676.22 546.37 1676.29 535.956 1674.77 525.673C1674.04 520.664 1672.99 515.589 1671.08 510.909C1669.36 507.679 1667.19 504.713 1664.42 502.143C1656.98 495.316 1647.4 491.293 1638.02 487.359L1638.02 487.358L1638.02 487.358L1638.02 487.357L1638.02 487.357L1638.01 487.357L1638.01 487.356L1638.01 487.356C1636.26 486.619 1634.51 485.885 1632.78 485.137C1632.75 485.401 1632.72 485.681 1632.68 485.961C1632.65 486.241 1632.62 486.521 1632.58 486.785C1633.57 487.312 1634.17 488.367 1634.36 489.487C1635.55 491.597 1635.16 494.497 1633.57 495.419C1631.36 496.737 1627.84 495.987 1625.28 495.443C1625.03 495.389 1624.78 495.336 1624.54 495.288C1621.78 494.76 1618.02 493.903 1616.3 491.531C1615.05 489.883 1615.97 487.049 1618.15 486.324C1618.94 485.928 1619.93 485.73 1620.85 485.598C1620.89 485.376 1620.95 485.174 1621 484.982C1621.05 484.832 1621.09 484.688 1621.12 484.544C1621.27 483.774 1621.45 482.982 1621.62 482.207C1621.74 481.654 1621.86 481.11 1621.97 480.589C1621.04 480.449 1619.84 480.143 1618.73 479.86C1618.27 479.743 1617.83 479.63 1617.42 479.534C1615.71 479.271 1614 479.139 1612.22 479.007C1611.36 478.941 1610.44 478.941 1609.58 478.941C1608.19 479.038 1606.88 479.246 1605.56 479.456C1604.18 479.674 1602.79 479.895 1601.28 479.996C1601.24 479.996 1601.21 479.979 1601.18 479.963C1601.14 479.946 1601.11 479.93 1601.08 479.93C1594.62 483.819 1588.03 487.049 1580.71 488.894C1573.53 490.674 1565.95 491.201 1558.56 490.608ZM1955.34 523.276C1951.46 534.426 1945.91 544.979 1938.8 554.459C1930.86 564.952 1921.07 573.598 1910.21 581.11C1898.21 589.457 1885.43 597.029 1871.88 602.515C1864.48 605.496 1856.78 607.821 1848.96 609.491C1841.79 611.22 1834.51 612.412 1827.11 612.949C1813.32 613.962 1799.64 612.293 1786.57 608.477C1775.77 605.734 1765.26 601.62 1755.53 596.135C1737.98 586.178 1722.16 572.048 1711.53 554.876C1708.72 551.18 1706.4 547.185 1705.02 542.892C1704.3 540.622 1721.51 534.645 1738.14 528.865C1740.73 527.966 1743.31 527.072 1745.8 526.198L1760.84 520.295C1777.74 513.677 1794.57 507.119 1811.46 500.56C1825.91 494.658 1840.36 488.695 1854.81 482.673C1867.83 477.228 1881.43 471.878 1895.14 466.488L1895.14 466.488L1895.14 466.488L1895.14 466.488L1895.14 466.488L1895.14 466.487C1903.04 463.379 1910.98 460.257 1918.86 457.095C1933.33 451.031 1945.46 445.864 1950.11 443.886L1950.11 443.886C1951.08 443.472 1951.73 443.198 1952 443.084H1952.35C1953.13 442.965 1954.26 443.561 1954.56 444.336C1957.61 451.908 1959.64 460.196 1960.65 468.602C1963.4 486.847 1961.43 505.807 1955.34 523.276ZM1802.27 507.238C1786.51 513.617 1770.69 519.878 1754.87 526.019C1752.01 527.121 1749.15 528.23 1746.3 529.339L1746.29 529.34L1746.29 529.34L1746.29 529.341L1746.29 529.341L1746.29 529.342L1746.29 529.342L1746.29 529.342L1746.29 529.343L1746.28 529.343L1746.28 529.344L1746.28 529.344L1746.28 529.345L1746.28 529.345L1746.28 529.346L1746.28 529.346L1746.28 529.347L1746.27 529.347L1746.27 529.348L1746.27 529.348L1746.27 529.349L1746.27 529.349L1746.27 529.35L1746.27 529.35L1746.27 529.351L1746.27 529.351L1746.26 529.352L1746.26 529.352L1746.26 529.353L1746.26 529.353L1746.26 529.354L1746.26 529.354L1746.26 529.354L1746.26 529.355L1746.25 529.355L1746.25 529.356L1746.25 529.356L1746.25 529.357L1746.25 529.357L1746.25 529.358L1746.25 529.358L1746.25 529.359L1746.24 529.359L1746.24 529.36C1737.06 532.924 1727.86 536.492 1718.63 539.851C1718.81 540.209 1719.05 540.626 1719.23 540.865C1725.08 549.987 1732.78 558.394 1741.08 565.191C1750.21 572.703 1760.66 578.606 1771.88 582.482C1793.44 589.994 1817.85 589.636 1840.12 585.343C1860.95 581.289 1881.31 573.061 1898.27 560.302C1931.64 535.26 1950.5 492.273 1940.59 451.372C1940.14 451.55 1939.7 451.714 1939.25 451.878L1939.25 451.878L1939.25 451.878L1939.25 451.878L1939.25 451.878L1939.25 451.878L1939.25 451.878L1939.25 451.878L1939.25 451.878L1939.25 451.878L1939.25 451.878L1939.25 451.878L1939.25 451.878L1939.25 451.878L1939.25 451.878L1939.25 451.878L1939.25 451.878L1939.25 451.878L1939.25 451.878L1939.25 451.878L1939.25 451.879L1939.25 451.879L1939.25 451.879L1939.25 451.879L1939.25 451.879L1939.25 451.879L1939.25 451.879L1939.25 451.879L1939.25 451.879L1939.25 451.879L1939.25 451.879L1939.25 451.879L1939.25 451.879L1939.25 451.879L1939.25 451.879L1939.25 451.879L1939.25 451.879L1939.25 451.879L1939.25 451.879L1939.25 451.879L1939.25 451.879L1939.25 451.879L1939.25 451.879C1938.8 452.043 1938.35 452.206 1937.91 452.385C1925.37 457.751 1912.83 462.938 1900.24 468.125C1873.37 479.156 1846.39 489.828 1819.29 500.322C1813.61 502.647 1807.94 504.972 1802.27 507.238ZM1836.06 608C1861.49 604.303 1885.49 593.094 1905.91 577.95C1926.68 562.568 1943.1 542.654 1951.28 518.149C1955.22 506.522 1957.25 494.359 1957.37 482.137C1957.43 473.551 1956.41 465.264 1954.8 456.976C1953.85 453.578 1952.77 450.179 1951.46 446.84C1948.83 448.033 1946.14 449.166 1943.4 450.239C1949.19 472.895 1945.55 497.46 1935.58 518.566C1916.65 558.752 1875.52 582.958 1832.12 589.159C1809.14 592.438 1784.96 591.484 1763.53 582.005C1753.62 577.652 1744.36 571.63 1736.36 564.416C1732.42 560.839 1728.72 556.963 1725.38 552.789C1722.69 549.451 1718.45 542.773 1717.08 540.448C1714.28 541.461 1711.47 542.475 1708.6 543.488C1709.94 545.216 1711.22 546.961 1712.51 548.704L1712.51 548.704C1714.69 551.651 1716.87 554.593 1719.23 557.44C1723.47 562.568 1728.07 567.457 1732.9 572.048C1742.63 581.229 1753.5 589.278 1765.32 595.539C1786.99 606.986 1811.64 611.577 1836.06 608ZM1783.76 531.027C1783.65 533.233 1783.17 536.214 1780.6 536.87C1773.68 538.599 1779.05 524.111 1780.54 521.845C1780.78 521.488 1781.5 521.428 1781.56 521.845L1781.62 521.905C1783.65 524.111 1783.94 528.225 1783.76 531.027ZM1757.74 558.036C1760.42 558.096 1761.5 555.055 1761.86 552.909C1762.45 549.391 1761.44 545.873 1760.12 542.654C1759.89 542.057 1759.11 542.117 1758.69 542.475C1758.67 542.495 1758.64 542.508 1758.62 542.521C1758.57 542.548 1758.51 542.574 1758.51 542.654C1757.08 545.158 1751.59 557.857 1757.74 558.036ZM1795.94 560.838C1795.94 563.223 1795.76 566.622 1792.72 566.98C1784.78 567.874 1788.78 553.445 1790.57 550.106L1790.75 549.927C1791.23 549.57 1792.06 549.45 1792.42 549.987C1794.69 553.207 1795.94 556.963 1795.94 560.838ZM1810.57 545.218C1813.32 544.919 1813.73 540.507 1813.73 538.48C1813.67 534.724 1812 530.908 1809.91 527.808C1809.38 526.973 1808 527.45 1807.88 528.225C1806.45 531.862 1806.15 535.559 1806.81 539.375L1806.81 539.393C1807.11 541.426 1807.71 545.515 1810.57 545.218ZM1829.85 514.81C1830.27 516.837 1830.81 520.534 1828.42 521.667C1825.55 523.038 1823.58 519.401 1822.87 517.195C1821.88 514.332 1822.16 512.105 1822.61 508.61V508.61C1822.67 508.102 1822.74 507.567 1822.81 506.999C1822.93 506.165 1823.88 505.747 1824.42 506.224C1826.87 508.371 1829.08 511.65 1829.85 514.81ZM1837.43 565.31C1840.42 564.118 1840.12 560.421 1839.34 557.917C1838.15 554.22 1835.46 550.882 1832.6 548.318C1832.24 548.02 1831.76 547.781 1831.4 547.96C1831.17 548.02 1830.99 548.497 1830.93 548.675C1830.03 552.372 1830.03 568.351 1837.43 565.31ZM1850.69 531.683C1851.64 533.829 1852.48 537.228 1849.97 538.659C1847.34 540.149 1844.96 537.764 1844.12 535.558C1842.63 531.862 1841.91 527.807 1842.15 523.872C1842.15 523.753 1842.15 523.694 1842.21 523.634C1842.33 523.097 1843.05 522.799 1843.58 523.038C1844.91 523.701 1845.94 525.006 1846.9 526.232L1846.9 526.233C1847.15 526.548 1847.4 526.859 1847.64 527.152C1848.78 528.523 1849.91 530.013 1850.69 531.683ZM1853.85 506.582C1855.46 507.774 1858.69 509.742 1860.66 507.953C1864.48 504.495 1852 498.771 1849.73 498.235C1847.88 497.817 1848.3 498.891 1848.42 499.189C1849.43 502.229 1851.28 504.674 1853.85 506.582ZM1877.49 508.609C1877.25 507.894 1877.61 507.357 1878.21 507.178C1881.85 506.105 1891.58 513.975 1887.1 517.553C1885.07 519.162 1882.21 517.135 1880.72 515.704C1879.23 514.308 1878.66 512.402 1878.08 510.473L1878.08 510.473L1878.08 510.473L1878.08 510.473L1878.08 510.473L1878.08 510.473L1878.08 510.472L1878.08 510.472L1878.08 510.472L1878.08 510.472L1878.08 510.472L1878.08 510.472L1878.08 510.472L1878.08 510.471L1878.08 510.471L1878.08 510.471L1878.08 510.471L1878.08 510.471L1878.08 510.471L1878.08 510.471L1878.08 510.47L1878.08 510.47L1878.08 510.47L1878.08 510.47C1877.9 509.847 1877.71 509.221 1877.49 508.609ZM1874.92 539.911C1876.48 541.759 1879.04 544.204 1881.55 542.415C1886.92 538.659 1876.06 531.862 1873.07 531.087L1873.05 531.079C1872.73 530.998 1871.24 530.613 1871.7 532.458C1872.3 535.201 1873.13 537.705 1874.92 539.911ZM1885.01 485.297C1886.57 485.297 1890.51 485.476 1890.74 487.682C1891.16 492.213 1878.8 491.319 1876.89 489.47C1876.6 489.172 1876.6 488.815 1876.72 488.457C1877.61 487.682 1878.86 486.668 1880.12 486.191C1881.67 485.595 1883.4 485.297 1885.01 485.297ZM1907.34 476.294C1910.86 477.665 1914.56 478.261 1918.38 477.904L1918.39 477.903C1920.3 477.724 1923.52 477.423 1923.46 474.863C1923.4 472.061 1919.7 472.12 1917.73 472.24C1914.62 472.359 1910.74 472.717 1908 474.446C1906.98 475.101 1906.27 475.877 1907.34 476.294ZM1917.31 505.807C1915.52 507.834 1911.34 506.82 1909.13 506.165C1906.44 505.39 1901.91 503.422 1901.13 500.5C1901.13 500.322 1901.19 499.904 1901.97 499.666C1905.61 498.473 1909.37 498.831 1912.89 500.083C1914.92 500.799 1919.7 503.005 1917.31 505.807ZM-30.9255 499.826C-29.9108 499.297 -28.9089 498.735 -27.9081 498.173C-23.9743 495.966 -20.0547 493.767 -15.4171 493.574C-12.0917 493.455 -8.64186 494.511 -6.32484 496.845C-8.59461 498.432 -10.3787 500.501 -11.0293 503.093C-11.5841 505.492 -11.0357 508.362 -8.64906 509.616C-6.34437 510.848 -3.87855 509.84 -2.43617 507.899C-0.0770368 504.667 -0.845714 500.816 -2.99513 497.693C-0.189708 496.073 3.13952 495.121 5.98729 494.654C10.9912 493.843 16.3075 494.653 20.6212 497.565C24.3153 500.004 27.5782 504.216 27.9333 508.791C27.7585 508.788 27.5781 508.805 27.3977 508.823C27.2174 508.84 27.0371 508.858 26.8622 508.855C24.1404 509.18 19.8299 510.352 18.8536 513.34C18.1268 515.561 20.2179 517.263 22.2285 517.626C24.8347 518.061 27.4623 516.613 28.8664 514.486C29.7314 513.225 30.1567 511.802 30.2842 510.343C34.6068 510.271 39.1798 511.233 43.0034 512.697C48.7798 514.903 53.9311 518.787 58.7548 522.583C60.6438 524.055 62.4289 525.587 64.2222 527.253C64.896 528.18 65.5698 529.107 66.1916 530.065C69.1808 534.642 72.4524 540.789 69.4623 546.048C67.209 542.985 64.1025 540.483 61.0223 538.868C57.3605 536.964 53.405 535.992 49.2902 535.944C45.443 535.879 42.0318 536.809 38.7508 538.565C38.4487 537.562 37.8789 536.575 37.3089 535.588C35.9892 533.302 34.3578 531.196 32.4226 529.404C30.1437 527.256 27.4871 525.534 24.5948 524.364C18.2047 521.334 9.1494 521.367 2.48998 526.39C-3.62794 531.03 -6.0973 539.591 -4.43409 547.15C-3.97779 549.381 -3.09779 551.505 -1.9579 553.479C-6.99574 555.071 -10.6896 559.351 -12.5126 564.352C-14.108 568.667 -14.1025 573.236 -12.7962 577.538C-18.9714 577.64 -24.2057 583.572 -25.4669 589.426C-26.283 593.291 -26.1378 597.502 -24.7296 601.261C-24.2857 602.39 -23.2637 604.64 -21.9562 605.824C-28.0148 608.768 -31.204 616.082 -29.4032 622.8C-28.851 624.836 -27.8231 626.736 -26.5136 628.405C-29.2472 629.429 -31.501 631.284 -33.105 633.665C-34.0899 634.719 -34.9329 635.898 -35.604 637.255C-37.4613 641.237 -37.2239 646.087 -35.2421 649.999C-34.8142 650.861 -34.2824 651.662 -33.6985 652.433C-33.5186 652.745 -33.3685 653.005 -33.1366 653.286C-39.2675 655.025 -44.6544 658.412 -45.7174 665.329C-46.0863 667.69 -45.8158 669.958 -45.1217 672.12C-44.271 675.993 -41.9417 679.428 -38.7372 682.219C-34.3972 686.016 -28.4848 688.698 -22.7556 686.984C-19.4564 685.98 -16.7512 683.586 -14.7996 680.728L-14.7081 680.594C-13.7742 679.229 -12.4733 677.327 -11.6536 675.379C-8.84864 678.678 -5.0807 681.005 -0.643931 681.491C4.60436 682.063 9.78991 680.246 13.7259 676.866C15.9496 674.958 17.7395 672.54 19.0597 669.907L19.2151 669.594C19.8528 668.309 20.579 666.847 20.9368 665.36C21.068 665.411 21.1923 665.467 21.3131 665.52C21.5218 665.613 21.7207 665.702 21.9282 665.757C26.4293 667.315 31.3454 666.832 35.4797 664.514L35.4808 664.513L35.4819 664.513C35.8967 664.273 36.3118 664.033 36.7485 663.712L37.0083 663.562C39.368 662.13 42.235 659.298 43.501 656.212C44.0323 655.212 44.4817 654.191 44.6031 653.082C47.5774 654.274 50.927 654.556 54.3981 653.73C61.3704 652.129 67.6859 646.751 68.5829 639.306C68.5879 639.229 68.5995 639.147 68.6117 639.062L68.6121 639.061C68.6337 638.91 68.6568 638.748 68.6466 638.577C70.5334 639.565 72.8199 640.046 75.0823 640.125C77.3226 640.287 79.6728 640.038 81.5233 639.524C87.1865 638.055 92.0057 634.164 94.4521 628.804C94.8357 628.028 95.0852 627.261 95.3347 626.493C96.594 626.874 98.0668 626.786 99.2419 626.662C101.964 626.337 104.757 625.417 107.035 623.963C112.132 620.674 113.909 615.354 113.444 609.388C113.051 604.628 111.258 599.844 107.932 596.362C104.849 592.462 100.187 590.027 95.0774 590.414C96.8088 586.575 96.2458 582.12 94.7097 578.02C91.3813 569.135 83.1893 562.505 73.8619 561.587C75.0369 560.412 76.1716 559.202 77.3057 557.993L77.3097 557.989L77.3126 557.986L77.3144 557.984C79.1874 555.986 81.0583 553.991 83.1061 552.163C83.1666 552.107 83.2266 552.051 83.2862 551.996L83.4401 551.852C84.524 550.834 85.5138 549.906 87.0506 550.716C87.7967 551.098 88.5763 551.823 89.2945 552.492C89.6173 552.792 89.9277 553.081 90.2172 553.321C92.2262 555.002 94.2052 556.63 96.2582 558.146C102.783 562.968 111.838 567.854 120.217 566.41C121.504 566.36 122.737 565.856 123.714 564.668C125.616 562.323 127.6 555.082 124.725 552.863C123.52 551.937 121.935 551.682 120.468 551.446C120.117 551.39 119.773 551.335 119.443 551.272C116.91 550.725 114.4 550.096 111.882 549.333C106.957 547.882 102.224 546.043 97.6525 543.764C95.2959 542.562 92.9912 541.33 90.7823 539.903C91.8763 539.335 92.9579 538.737 94.0384 538.139C98.9048 535.448 103.752 532.767 109.628 532.833C112.828 532.856 116.179 533.622 118.822 535.56L118.852 535.612C117.212 536.489 115.863 537.753 115.06 539.602C113.72 542.8 115.24 546.632 118.69 547.689C122.416 548.862 125.6 545.5 125.189 541.789C124.957 539.707 123.959 537.858 122.553 536.384C125.221 535.605 128.183 535.696 130.819 536.183C137.097 537.338 142.926 541.316 145.906 547.076C149.553 554.114 148.462 561.463 145.517 568.358C145.141 569.268 146.662 569.983 147.21 569.251C152.388 562.383 151.447 551.635 146.892 544.706C142.397 537.88 134.186 533.616 126.106 533.779C124.387 533.801 122.603 534.069 120.886 534.576C119.983 533.85 118.975 533.185 118.006 532.706C108.579 527.897 96.9774 532.517 89.2591 538.705C83.1544 534.61 77.6709 529.671 73.0765 523.873C65.666 514.469 60.4856 503.944 55.255 493.317L55.2543 493.315C54.6328 492.053 54.0107 490.789 53.3841 489.525C53.3242 489.421 53.2641 489.317 53.1522 489.243C53.1721 488.678 52.9021 488.21 52.2026 488.198C46.8686 488.438 39.2296 492.363 37.7666 497.988C36.9541 501.02 38.8973 502.946 41.0483 504.752C44.1848 507.305 47.2693 509.888 50.3319 512.553C53.0286 514.944 55.7034 517.417 58.2003 520.063C58.1068 520.001 58.0225 519.934 57.9418 519.87C57.8291 519.781 57.7236 519.697 57.6107 519.641C51.5338 515.114 45.1832 510.954 37.6544 509.551C35.234 509.078 32.7698 508.769 30.3215 508.728C29.9386 504.585 27.1892 500.423 24.3506 497.906C19.151 493.219 12.1196 491.599 5.32311 492.544C2.39342 492.989 -1.33753 493.965 -4.48463 495.713C-5.94203 494.268 -7.68104 493.056 -9.35804 492.431C-17.1911 489.542 -26.1932 493.146 -31.9951 498.574C-32.6845 499.179 -31.497 500.156 -30.9255 499.826ZM-3.83534 501.157C-3.33509 503.223 -3.50209 505.813 -5.26625 507.316C-6.95655 508.708 -8.52369 507.673 -8.72621 505.643C-8.82057 504.52 -8.46119 503.342 -7.95179 502.425C-7.19886 501.09 -6.08802 499.894 -4.7754 498.929C-4.33351 499.574 -4.0475 500.309 -3.83534 501.157ZM120.547 536.988C122.536 539.234 123.89 542.539 121.341 544.842C119.325 546.629 116.942 544.541 116.888 542.287C116.841 540.167 118.083 538.48 119.79 537.356C120.08 537.258 120.287 537.138 120.547 536.988ZM-0.0987653 536.543C2.41881 528.786 10.3616 524.547 18.23 525.337C22.8006 525.816 26.8883 528.097 30.095 531.371L30.285 531.56C31.8558 533.122 33.4657 534.722 34.2117 536.822C34.4757 537.639 34.7098 538.404 34.84 539.23C34.7916 539.98 34.8619 540.761 34.9309 541.528V541.53V541.531C34.9612 541.867 34.9912 542.199 35.0109 542.525C34.6951 548.457 31.1035 553.994 27.2612 556.697C21.0453 561.048 12.7035 560.877 6.47069 556.44C0.186025 552.033 -2.43275 543.778 -0.0987653 536.543ZM-9.82276 570.211C-9.79383 566.662 -8.40199 563.434 -6.11451 560.797C-4.90296 559.389 -3.24842 558.428 -1.61732 557.48C-1.01612 557.131 -0.418101 556.783 0.153432 556.416C3.1383 560.026 7.1162 562.717 11.6532 563.977C17.2556 565.522 23.3907 564.75 28.3262 561.901C28.6443 563.172 29.2302 564.427 29.8302 565.466C29.784 565.994 29.7893 566.675 29.7943 567.326L29.7966 567.667L29.7972 567.835L29.797 568.048C29.7491 568.12 29.7356 568.202 29.7202 568.295L29.7117 568.345C29.7053 568.381 29.6977 568.418 29.6872 568.458C29.605 568.998 29.5641 569.549 29.5244 570.084V570.086L29.5233 570.099C29.5076 570.312 29.4921 570.522 29.4741 570.728C29.2047 572.061 28.8834 573.424 28.4502 574.713C27.4299 577.865 25.6684 581.653 23.0853 584.738C18.1929 590.541 10.2512 591.662 3.3612 588.367C-3.16285 585.345 -9.81825 577.897 -9.82276 570.211ZM-18.7695 602.945C-20.0191 601.381 -20.965 599.503 -21.4573 597.57C-21.9057 595.474 -21.8264 593.212 -21.2855 591.029C-20.5111 587.811 -18.7732 585.422 -16.5494 583.515C-15.007 582.348 -13.3145 581.44 -11.4421 580.844C-11.1941 581.393 -10.8641 581.964 -10.5122 582.454C-6.58522 588.776 0.235097 593.151 7.37621 594.361C7.00719 596.722 6.41442 598.934 5.3518 600.933C5.32628 600.972 5.30016 601.013 5.27306 601.056L5.25988 601.077C5.22094 601.14 5.18029 601.207 5.13756 601.278L5.13622 601.28L5.13329 601.285C5.03844 601.442 4.93322 601.616 4.81249 601.799C2.69701 604.613 -0.0243025 606.739 -3.83717 607.693C-9.24073 609.012 -15.1708 607.379 -18.7695 602.945ZM24.8417 589.819C24.9047 589.748 24.988 589.683 25.0715 589.617C25.1549 589.552 25.2383 589.486 25.3011 589.415C27.1089 592.666 30.2974 595.189 33.6533 596.923C33.6727 601.276 33.3563 605.407 30.9254 609.235C28.3465 613.286 24.0807 616.096 19.2464 616.601C14.5461 617.098 9.85692 615.095 6.98986 611.209C5.99413 609.844 5.37011 608.404 4.74621 606.963C8.11071 603.912 10.5535 599.385 10.8378 594.718C15.8461 594.874 20.7798 593.342 24.8417 589.819ZM60.9372 591.63C61.4392 592.38 61.9929 593.099 62.5387 593.684C64.514 596.146 66.823 598.345 69.7313 599.783C70.5068 600.167 71.3043 600.468 72.1538 600.74C72.0225 601.23 71.936 601.733 71.8496 602.235L71.8489 602.239C71.7334 602.911 71.6179 603.582 71.3955 604.225C70.7566 606.118 69.708 607.901 68.3973 609.351C65.7543 612.331 62.0116 614.007 58.0605 614.002C54.0576 614.028 50.1521 612.542 47.3932 609.563C46.0177 608.141 44.916 606.352 44.134 604.518C43.6432 603.337 43.4664 602.092 43.298 600.905L43.2976 600.904L43.2534 600.593C43.2497 600.532 43.2524 600.481 43.2556 600.432C43.2593 600.373 43.2637 600.316 43.2593 600.243C43.2732 600.028 43.2871 599.812 43.3829 599.618C46.8065 599.789 50.2336 599.126 53.3749 597.728C56.3302 596.368 58.9996 594.273 60.9372 591.63ZM43.306 609.083C43.9198 609.906 44.6156 610.751 45.3334 611.514C46.3949 612.633 47.5823 613.61 48.8656 614.393C48.8743 614.408 48.8849 614.416 48.8962 614.422C48.9014 614.424 48.9065 614.426 48.9117 614.427L48.9216 614.43L48.9348 614.434C48.9405 614.436 48.9463 614.438 48.9518 614.441C48.9613 614.446 48.9701 614.454 48.9775 614.467C48.9925 614.493 49.0129 614.498 49.0334 614.504L49.0485 614.508C49.052 614.509 49.0554 614.511 49.0587 614.512C49.0701 614.518 49.0807 614.526 49.0895 614.541C51.2383 615.863 53.6827 616.738 56.147 617.047C57.5539 617.204 58.953 617.228 60.314 617.065C57.8717 623.393 52.1656 628.627 45.0129 628.116C41.5594 627.893 38.1074 626.354 35.3968 624.178C33.9255 622.949 32.7059 621.437 31.7761 619.827C31.262 618.936 30.9502 617.977 30.64 617.023C30.4255 616.362 30.2117 615.704 29.932 615.073C34.623 610.84 37.1311 604.266 35.3464 597.816C35.459 597.864 35.5681 597.911 35.675 597.957C36.0919 598.137 36.4742 598.303 36.8894 598.449C37.9327 598.816 38.998 599.102 40.0853 599.305C39.4807 602.217 42.1304 607.406 43.306 609.083ZM13.0019 637.939C9.88744 635.304 7.76586 631.749 6.85534 627.773C6.41503 625.81 6.41442 624.01 6.79357 622.267C7.29271 620.732 8.1715 619.255 9.4901 617.939C10.9293 618.632 12.4123 619.161 13.8874 619.556C17.8728 620.58 24.5039 620.908 27.7484 617.649C28.4769 620.831 31.3857 624.069 33.4028 625.883C34.8221 627.142 36.3674 628.259 38.0824 629.07C36.1162 630.343 34.894 633.265 34.3971 635.284L34.3872 635.323L34.3808 635.349C34.375 635.373 34.3696 635.397 34.3645 635.421C34.3491 635.495 34.3368 635.566 34.3245 635.637C34.3044 635.753 34.2844 635.869 34.2515 635.992C33.0067 637.195 31.732 638.347 30.2855 639.32C28.5272 640.474 26.5289 641.212 24.4766 641.497C20.3717 642.066 16.1764 640.678 13.0019 637.939ZM11.9358 647.49C11.6825 649.091 11.7789 650.698 12.0093 652.297L11.8534 652.387C11.1737 652.682 10.5135 653.025 9.85143 653.37C8.62511 654.008 7.39208 654.65 6.01659 654.995C3.84643 655.555 1.48827 655.669 -0.716319 655.21C-2.42909 654.883 -4.05409 654.228 -5.44935 653.371C-8.1161 651.032 -9.76795 647.691 -10.8103 644.206C-11.9586 640.297 -11.5303 636.24 -9.55885 632.816C-6.52638 628.71 -1.45875 627.17 3.54528 626.359L3.54955 626.422C3.55407 626.482 3.55968 626.544 3.56591 626.607L3.57824 626.727L3.58446 626.786C3.59997 626.933 3.61547 627.08 3.62352 627.214C4.19664 632.286 7.00817 637.036 10.8843 640.27C11.9597 641.173 13.1091 641.964 14.3025 642.591C14.2654 642.647 14.2228 642.724 14.1803 642.801L14.1781 642.804L14.1733 642.813C14.1534 642.849 14.1335 642.885 14.1142 642.918C14.095 642.951 14.0763 642.982 14.0588 643.009C12.956 644.338 12.233 645.725 11.9358 647.49ZM-24.8888 622.341C-25.877 619.309 -25.6243 615.908 -24.4541 613.016C-23.7033 611.197 -22.5785 609.785 -21.3418 608.448C-20.7045 607.872 -20.0072 607.4 -19.3318 607.01C-18.7041 607.618 -18.0025 608.113 -17.3308 608.557C-17.2189 608.631 -17.1069 608.705 -16.965 608.83C-11.264 612.466 -3.84559 612.477 1.92101 609.148C2.01098 609.304 2.13097 609.512 2.16893 609.698C2.75548 612.753 4.72277 615.081 7.21544 616.759C5.85888 617.888 4.92809 619.395 4.385 621.094C3.98754 622.086 3.75414 623.121 3.60253 624.178C3.37572 624.205 3.1693 624.238 2.963 624.27C2.84484 624.289 2.72667 624.308 2.60473 624.325C2.51366 624.338 2.42052 624.351 2.3236 624.363C-2.34523 623.595 -7.54469 625.627 -10.7291 628.989C-11.5144 629.789 -12.1356 630.633 -12.6969 631.58C-12.7136 631.59 -12.7282 631.591 -12.7418 631.589L-12.7536 631.587L-12.7638 631.584C-12.7717 631.582 -12.7797 631.58 -12.788 631.579C-12.801 631.577 -12.815 631.579 -12.8308 631.588L-12.8609 631.536C-13.564 631.317 -14.2843 631.242 -15.0126 631.165C-15.334 631.132 -15.6569 631.098 -15.9806 631.051C-17.1278 630.744 -18.2312 630.273 -19.2086 629.66C-21.7913 627.826 -23.9306 625.32 -24.8888 622.341ZM-32.2194 647.077C-34.3201 639.839 -30.3729 633.958 -24.6304 630.227C-24.0626 630.73 -23.473 631.152 -22.8833 631.573C-20.5026 633.177 -16.8867 634.761 -13.8832 634.204C-14.3164 635.494 -14.6078 636.909 -14.6832 638.338C-15.2037 641.755 -14.689 645.406 -13.313 648.629C-12.7789 649.914 -12.0071 651.131 -11.1614 652.236C-12.3043 652.896 -13.2973 653.816 -14.0364 654.935C-14.8401 655.072 -15.6135 655.315 -16.3884 655.559C-17.2551 655.831 -18.1235 656.104 -19.0382 656.23C-19.9456 656.338 -20.8308 656.364 -21.7462 656.338C-22.8554 656.217 -23.9426 656.013 -25.0979 655.572C-28.6837 654.04 -31.1389 650.748 -32.2194 647.077ZM-29.2283 682.132C-31.7006 681.689 -34.1012 680.65 -36.1541 679.134C-38.491 677.366 -40.4143 674.875 -41.5204 672.119C-42.0265 670.402 -42.213 668.64 -41.8499 666.629C-40.8484 660.925 -36.4288 657.542 -31.6332 655.051C-30.3097 656.503 -28.7345 657.672 -26.9677 658.452C-24.0973 659.705 -20.3219 660.365 -17.0287 659.71C-17.8447 663.576 -16.3525 667.84 -14.3949 671.351C-14.4099 671.407 -14.431 671.467 -14.4541 671.527L-14.4868 671.612L-14.5137 671.681C-14.5274 671.717 -14.5405 671.752 -14.5523 671.787C-14.5621 671.816 -14.5712 671.845 -14.5786 671.873C-15.1238 673.088 -15.699 674.251 -16.52 675.349C-17.9323 677.341 -19.6885 678.979 -21.7066 680.282C-24.0363 681.766 -26.4583 682.61 -29.2283 682.132ZM12.3015 673.546C12.1897 673.652 12.0749 673.76 11.9602 673.868L11.7866 674.031L11.6106 674.197C11.5393 674.265 11.4691 674.332 11.4009 674.398C8.08617 676.935 3.81957 677.944 -0.395518 677.122C-5.7798 676.075 -9.95582 672.321 -11.928 667.225C-13.0421 664.336 -13.8386 660.916 -12.8104 657.898C-12.2373 656.251 -11.0827 654.892 -9.8379 653.689C-7.52088 656.022 -4.49269 657.668 -1.17897 658.248C1.71911 659.069 4.75487 659.048 7.60851 658.232C9.37706 657.695 11.3891 656.741 12.8937 655.388C13.8219 658.316 15.3816 661.017 17.6225 662.979C17.435 664.334 17.2396 665.555 16.8284 666.762C16.8198 666.782 16.8115 666.802 16.8036 666.822L16.7954 666.842C16.7728 666.898 16.7521 666.953 16.732 667.008C16.714 667.058 16.6965 667.107 16.6791 667.156L16.6776 667.161C16.6316 667.291 16.5857 667.422 16.5268 667.56C15.4203 669.722 14.1639 671.625 12.5196 673.337C12.4487 673.405 12.3757 673.475 12.3015 673.546ZM38.9785 656.537C37.736 658.224 36.1576 659.689 34.3694 660.791C31.3122 662.695 27.5652 663.403 24.0116 662.407C23.3559 662.232 22.8043 661.996 22.1927 661.656C22.1517 661.645 22.1238 661.627 22.0958 661.608L22.0819 661.599L22.0625 661.587C22.0442 661.577 22.0239 661.567 21.9988 661.56C19.3284 660.054 17.1211 657.311 15.9089 654.132C15.3508 652.445 15.0525 650.609 15.1339 648.83C15.1793 647.349 15.5526 645.956 15.9259 644.563C16.0957 644.257 16.2135 643.981 16.3833 643.676C18.6719 644.64 21.1742 645.135 23.7042 645.198C26.0705 645.217 28.3827 644.783 30.5367 643.955C31.9036 643.443 33.7161 642.743 34.663 641.503C35.1311 643.034 35.785 644.527 36.5649 645.878C37.9746 648.319 39.8358 650.223 41.9626 651.627L41.9108 651.657C41.2757 652.435 40.7975 653.345 40.316 654.26L40.3153 654.261C39.9049 655.041 39.4923 655.826 38.9785 656.537ZM53.8474 650.377C48.1702 652.061 43.1313 650.052 39.8722 645.007C38.2986 642.521 37.2964 639.706 37.6031 636.758C37.7226 635.165 38.1998 633.712 39.1986 632.443C39.4626 632.107 39.7759 631.81 40.0836 631.519C40.4744 631.149 40.8561 630.787 41.1164 630.366C42.3757 630.747 43.7607 630.986 45.1377 631.092C50.1841 631.434 55.6133 629.2 58.8176 625.272C63.4452 628.488 66.2706 633.022 64.9275 638.854C63.5983 644.47 59.2869 648.76 53.8474 650.377ZM96.3291 592.462C102.94 593.355 108.256 599.083 108.51 606.002C108.843 613.776 103.799 620.637 96.2204 621.549C96.2997 619.286 95.9773 617.048 95.2831 614.886C95.1009 614.091 94.8149 613.355 94.4989 612.568C92.4009 607.614 88.3126 603.533 83.805 600.524C84.8821 600.11 85.9811 599.614 87.0421 598.932C88.5187 598.011 89.7195 596.971 90.7483 595.754C91.9491 594.714 92.986 593.63 93.8808 592.421C93.8808 592.421 93.9329 592.391 93.9028 592.339C94.4895 592.401 95.0876 592.42 95.6694 592.439C95.8922 592.446 96.1127 592.453 96.3291 592.462ZM80.7656 601.379C81.2953 601.696 81.8249 602.014 82.3247 602.279C85.7831 605.27 89.3015 608.365 91.3293 612.597C93.6732 617.616 92.8795 623.2 90.259 627.9C88.6571 630.764 86.3617 633.267 83.5863 634.939C83.4824 634.999 83.371 635.046 83.2596 635.093C83.1482 635.14 83.0367 635.187 82.9329 635.247C78.0392 637.448 73.1846 636.719 68.3835 634.642C67.4247 629.862 64.2496 625.322 59.5048 624.182C60.8871 622.137 61.6797 619.671 61.6229 616.933C61.6079 616.907 61.6059 616.874 61.6039 616.84C61.6018 616.807 61.5998 616.773 61.5848 616.747C64.8263 616.123 67.8555 614.651 70.3529 612.378C72.5686 610.337 75.3091 605.845 74.8542 602.298C74.8901 602 74.926 601.702 74.9319 601.352C76.8606 601.694 78.8252 601.737 80.7656 601.379ZM69.8441 564.945C82.8439 563.466 95.8323 576.125 90.3406 589.408C87.9263 595.305 81.796 598.844 75.4985 598.255C70.0124 597.751 65.1808 593.821 62.5033 589.064C63.0565 587.982 63.4758 586.909 63.8352 585.732C64.9192 581.85 65.1589 575.547 62.4938 571.89C65.2831 570.003 67.8025 567.648 69.7322 564.871C69.7372 564.88 69.7428 564.886 69.7488 564.891C69.7561 564.897 69.7641 564.901 69.7723 564.904L69.78 564.906L69.788 564.908C69.7964 564.911 69.8048 564.913 69.8127 564.916C69.8243 564.922 69.8352 564.93 69.8441 564.945ZM58.7464 574.093C58.8251 574.055 58.904 574.015 58.983 573.975L59.147 573.892C59.4012 573.763 59.6555 573.633 59.9043 573.524L59.9342 573.576C59.9913 573.842 60.051 574.105 60.1112 574.367L60.1902 574.708L60.1916 574.715L60.1931 574.722C60.538 576.211 60.8719 577.653 60.8374 579.22C60.7882 581.534 60.2552 583.85 59.3347 585.975C57.3536 590.582 53.2757 593.837 48.4897 595.146C43.6517 596.484 38.5373 595.904 34.1139 593.402C31.8911 592.191 29.9641 590.533 28.2368 588.621C27.8629 588.213 27.541 587.776 27.2411 587.256C31.2006 582.477 33.7665 575.523 32.7572 569.456C34.1626 570.93 35.7458 572.233 37.4769 573.311C43.8714 577.308 51.7955 577.236 58.3896 574.26C58.5076 574.208 58.6267 574.152 58.7464 574.093ZM45.161 572.823C41.5935 572.043 38.1694 570.072 35.9241 567.143C33.7389 564.317 32.2991 561.824 31.4711 559.67C31.5007 559.641 31.5312 559.614 31.562 559.588C31.6178 559.54 31.6746 559.497 31.7294 559.454C31.7622 559.429 31.7943 559.404 31.8249 559.38C31.8577 559.354 31.8889 559.328 31.9177 559.301C31.941 559.28 31.9628 559.258 31.9825 559.236C34.9094 556.507 37.0287 552.859 38.0308 548.955C38.4918 547.235 38.8389 544.956 38.7622 542.784C38.8618 541.757 38.9314 540.677 38.9709 539.546C46.8302 536.602 56.3857 538.635 62.8766 544.239C65.8791 546.8 68.7463 550.686 69.1514 554.747C69.5183 558.622 67.399 562.27 64.9857 565.049C60.181 570.524 52.5121 574.398 45.161 572.823ZM42.6138 500.384C42.4979 500.438 42.3843 500.495 42.2734 500.551C41.8083 500.786 41.3904 500.997 41.053 500.8C40.5812 500.103 40.511 499.382 40.6566 498.674C41.4012 497.067 43.6626 495.305 44.8114 494.41C44.9473 494.304 45.0675 494.21 45.1678 494.13C46.6063 493.023 48.1129 492.153 49.6715 491.253L49.9248 491.162L49.9259 491.161C50.4842 490.96 51.0742 490.748 51.6478 490.597C51.4047 492.815 50.0524 494.912 48.534 496.481C47.4452 497.595 46.2364 498.501 44.8856 499.28C44.1064 499.73 43.3491 500.098 42.6138 500.384ZM52.5748 510.675L52.5675 510.669C52.0233 510.205 51.4791 509.742 50.9424 509.291C49.0152 507.633 47.1182 506.027 45.1391 504.398C44.7331 504.064 44.27 503.727 43.7933 503.379L43.7926 503.378L43.7911 503.377L43.7864 503.374L43.7834 503.372C43.3345 503.044 42.8734 502.707 42.4365 502.357C43.016 502.161 43.6475 501.935 44.145 501.717C46.1871 500.815 48.2132 499.645 49.8955 498.12C50.8666 497.282 52.7325 495.235 53.5272 493.252C60.2557 510.425 69.4902 527.26 84.5625 538.368C91.505 543.434 99.3124 547.239 107.375 549.927C111.682 551.388 116.047 552.47 120.457 553.388C122.415 553.781 124.198 554.829 123.777 557.22C123.582 558.441 123.334 559.692 122.811 560.825C122.414 561.817 121.757 562.958 120.791 563.446C119.802 563.532 118.835 563.537 117.868 563.541C117.418 563.42 116.978 563.261 116.552 563.107C116.357 563.036 116.164 562.967 115.975 562.902C105.645 559.168 95.8949 553.438 87.321 546.266C86.9552 545.992 86.3816 545.838 85.996 546.13C81.2646 549.693 76.6394 553.68 72.7157 558.161C73.3064 555.465 72.9298 552.773 71.9219 550.308C73.0426 548.686 73.5566 546.527 74.0421 544.487L74.0443 544.478L74.0465 544.469C74.1809 543.905 74.3131 543.35 74.4556 542.818C75.0483 540.606 75.5373 538.453 74.7312 536.217C74.0027 534.096 72.5953 532.145 71.2773 530.318L71.2766 530.317L71.2744 530.314L71.1792 530.182L70.9387 529.848L70.818 529.679C69.2605 527.462 67.577 525.386 65.8417 523.34C62.2891 519.226 58.3069 515.568 54.1988 512.052C53.6625 511.602 53.1186 511.138 52.5748 510.675ZM27.3164 510.602C27.4093 510.583 27.5098 510.577 27.6101 510.57L27.6916 510.565C27.7644 510.56 27.8362 510.553 27.9039 510.539C27.625 513.056 26.0809 515.54 23.4491 516.021C22.4679 516.241 20.0716 516.17 20.9542 513.859C21.0792 513.519 21.4003 513.232 21.7038 512.96L21.7053 512.959C21.7938 512.879 21.8807 512.801 21.961 512.724C23.4436 511.452 25.4499 510.848 27.3164 510.602ZM1726.58 175.827C1727.43 179.003 1724.5 184.133 1721.69 185.843C1719 187.43 1715.1 186.697 1714.85 183.278C1714.61 179.247 1718.03 175.583 1721.32 173.995C1723.89 172.774 1726.09 173.751 1726.58 175.827ZM1721.69 175.339C1720.35 175.827 1719.13 177.171 1718.27 178.514C1717.42 179.98 1715.34 186.087 1719.86 184.743C1722.67 183.888 1726.82 173.385 1721.69 175.339ZM1688.23 179.125C1684.44 180.347 1680.78 184.377 1680.78 188.53C1680.78 192.316 1684.68 193.904 1687.98 192.682C1691.52 191.339 1694.33 186.087 1694.21 182.423C1694.21 179.369 1691.52 178.148 1688.23 179.125ZM1692.01 184.866C1691.28 187.675 1689.45 191.827 1685.91 191.827C1682.12 191.827 1682.12 187.919 1683.34 185.476C1684.32 183.644 1689.69 177.537 1692.13 181.812C1692.68 182.677 1692.35 183.733 1692.1 184.557C1692.07 184.664 1692.04 184.767 1692.01 184.866ZM1758.45 198.545C1761.63 197.446 1763.46 200.133 1763.46 202.331C1763.46 205.873 1761.75 210.27 1757.97 211.491C1755.16 212.346 1751.49 210.636 1751.74 207.339C1751.98 203.919 1755.28 199.766 1758.45 198.545ZM1758.21 200.133C1754.79 201.965 1751.61 209.171 1756.01 209.781C1758.82 210.148 1760.16 206.972 1760.77 204.896C1760.79 204.856 1760.8 204.815 1760.81 204.772L1760.86 204.608C1761.11 203.74 1761.48 202.486 1761.26 201.72C1760.9 200.011 1759.31 199.522 1758.21 200.133ZM1808.65 200.865C1806.33 199.644 1804.01 201.232 1802.55 203.186C1800.96 205.384 1799.61 208.316 1800.96 210.636C1802.79 213.69 1807.06 212.59 1808.9 210.27C1810.85 207.705 1812.19 202.697 1808.65 200.865ZM1807.68 208.804C1805.97 211.369 1802.18 211.369 1802.3 208.316C1802.3 207.583 1802.55 206.606 1803.03 205.506C1803.89 203.674 1806.09 200.255 1808.29 202.697C1809.63 204.407 1808.65 207.338 1807.68 208.804ZM1789.48 235.796C1791.06 233.231 1793.63 230.3 1796.56 231.888C1799.86 233.72 1798.64 238.728 1796.68 241.17C1794.97 243.125 1790.94 245.934 1788.38 243.613C1786.12 241.472 1787.8 238.636 1789.35 236.007L1789.48 235.796ZM1792.53 242.391C1793.26 241.902 1794 241.414 1794.61 240.804C1796.44 238.85 1797.54 236.407 1796.32 234.575C1794.72 231.488 1792.47 234.181 1791.59 235.239C1791.53 235.311 1791.48 235.375 1791.43 235.43C1791.06 235.919 1789.6 238.239 1789.23 239.216C1787.77 243.125 1791.43 243.125 1792.53 242.392L1792.53 242.391ZM1765.42 234.208C1764.32 235.185 1760.16 239.949 1760.53 242.513C1760.9 245.689 1764.44 246.178 1767.13 244.223C1769.69 242.391 1772.5 237.628 1771.89 234.33C1771.16 231.277 1767.98 231.766 1765.42 234.208ZM1769.2 238.117C1768.35 240.315 1766.76 242.514 1765.54 243.368C1763.95 244.468 1762 243.246 1762.36 241.414C1762.55 240.668 1763.09 239.779 1763.56 239.02C1763.7 238.785 1763.84 238.563 1763.95 238.361C1764.68 237.14 1765.66 235.674 1766.88 234.697C1767.86 233.964 1769.45 233.598 1769.69 235.185C1769.94 236.162 1769.45 237.506 1769.2 238.117ZM1728.04 214.3C1731.34 214.789 1731.71 219.063 1731.1 221.506C1730.12 225.292 1726.45 230.544 1721.69 230.056C1713.63 229.201 1721.94 213.323 1728.04 214.3ZM1724.74 217.231C1722.42 220.041 1719.98 223.949 1720.71 226.636C1722.06 231.521 1727.19 225.781 1728.04 224.315C1728.78 222.85 1730.36 218.575 1729.14 216.621C1728.78 216.132 1726.82 214.789 1724.74 217.231ZM1684.93 218.819C1685.05 217.476 1683.95 213.079 1680.16 214.422C1676.38 215.766 1673.57 220.407 1672.35 224.071C1671.25 227.613 1673.57 231.399 1677.6 229.933C1681.51 228.468 1684.68 222.728 1684.93 218.819ZM1678.94 226.758C1676.26 228.956 1673.94 227.369 1674.06 224.804C1674.18 223.216 1676.26 218.208 1679.68 216.621C1683.1 215.155 1682.61 219.552 1682.36 220.529C1682.12 221.506 1681.75 222.483 1681.26 223.338C1680.78 224.437 1679.92 226.025 1678.94 226.758ZM1724.26 273.17C1721.69 269.384 1725.97 264.376 1728.77 261.933C1730.85 260.101 1733.42 259.002 1735.37 260.712C1738.67 263.643 1735.49 269.628 1733.54 271.948C1731.83 274.025 1726.7 276.712 1724.26 273.17ZM1731.58 271.46C1733.29 269.872 1734.39 267.552 1734.76 265.231C1735.13 263.399 1734.64 262.544 1733.05 262.178C1731.71 261.811 1729.39 262.422 1726.7 267.429C1726.21 268.284 1725.23 270.239 1725.6 271.46C1726.7 275.124 1730.61 272.437 1731.58 271.46ZM1689.33 273.902C1688.35 273.414 1686.52 273.658 1683.83 276.956C1681.63 279.887 1679.31 283.918 1679.92 286.971C1680.65 290.024 1684.07 290.391 1686.39 288.803C1689.81 286.482 1691.89 281.231 1691.4 277.2C1691.4 275.734 1690.55 274.391 1689.33 273.902ZM1689.08 281.719C1688.84 282.818 1688.35 283.918 1687.86 284.895C1687.13 286.238 1684.44 290.269 1682.24 287.826C1680.04 285.383 1683.58 278.299 1686.64 276.101C1688.71 274.513 1689.81 275.857 1689.69 278.299C1689.69 279.154 1689.33 280.742 1689.08 281.719ZM1761.02 270.605C1762.12 268.04 1766.03 261.811 1769.69 263.032C1772.01 263.887 1771.77 265.841 1770.67 268.773C1769.45 272.437 1766.88 277.078 1762.97 277.322C1758.82 277.689 1760.04 272.925 1761.02 270.605ZM1763.46 275.368C1764.32 275.49 1765.9 274.025 1766.27 273.414C1768.71 269.506 1770.55 265.353 1768.71 264.742C1767 264.254 1763.83 269.383 1763.1 270.849C1763.09 270.867 1763.08 270.885 1763.07 270.905C1763.05 270.96 1763.02 271.022 1762.99 271.092L1762.99 271.094C1762.49 272.205 1761.21 275.031 1763.46 275.368ZM1705.08 242.147C1702.88 240.804 1700.81 242.391 1698.61 244.834C1696.41 247.155 1692.5 253.262 1695.19 256.193C1698 259.246 1702.03 254.849 1703.49 252.773C1705.08 250.452 1708.5 244.101 1705.08 242.147ZM1702.03 251.918C1701.97 252.002 1701.91 252.088 1701.84 252.176L1701.84 252.176C1701.27 252.984 1700.6 253.932 1699.83 254.483C1698.61 255.338 1696.41 255.46 1696.29 253.017C1696.29 251.674 1697.14 248.865 1699.22 246.3C1700.32 244.834 1703.98 242.147 1704.47 245.689C1704.71 247.574 1703.12 250.141 1702.13 251.746L1702.03 251.918ZM113.913 18.7376C114.041 17.2743 113.391 14.85 111.653 14.6662C110.338 13.3946 108.005 13.1751 106.273 14.224C103.062 16.0588 102.51 21.2733 105.77 23.258C109.03 25.2426 113.687 22.5008 113.913 18.7376ZM106.635 19.4536C106.354 18.1646 106.846 16.6039 108.037 15.9598C108.853 15.6112 109.722 15.7032 110.458 16.0256L110.459 16.0284C110.589 16.5123 110.718 16.9962 110.771 17.4359C111.052 18.7248 110.572 20.0875 109.458 20.7759C108.133 21.6506 106.859 21.0175 106.635 19.4536ZM116.905 73.5405C113.845 73.5158 110.42 71.6405 110.424 68.2616C110.416 65.0807 113.55 63.2016 116.42 63.7317C118.862 64.1167 120.922 66.2281 121.297 68.5962C121.887 72.0108 119.051 73.5501 116.905 73.5405ZM116.332 71.1606C117.949 71.3769 119.262 70.7003 119.268 69.2695C119.263 68.0368 118.409 67.0314 117.333 66.4103C116.148 65.6235 114.22 65.9451 113.543 67.2959C112.587 69.3058 114.639 70.8999 116.332 71.1606ZM84.026 37.1391C82.1753 37.5051 80.2089 39.1363 79.6409 40.6527C78.4928 43.8834 81.0548 46.8996 84.28 46.8149C87.6265 46.6977 89.7767 43.3283 88.8555 40.1324C88.3889 38.6334 87.3162 37.2969 85.7435 37.0037C85.2706 36.9356 84.5552 36.9324 84.026 37.1391ZM86.7267 41.1575C86.8296 42.7539 85.8092 44.5213 84.0591 44.5356C81.9897 44.5704 81.417 42.1905 82.2275 40.6091C82.8162 39.4121 83.6647 39.1847 84.7438 39.0905C84.7765 39.0817 84.8116 39.0818 84.8494 39.0868C84.89 39.0922 84.9337 39.1033 84.9807 39.1153C85.0515 39.1334 85.1299 39.1534 85.2167 39.1586C86.1183 39.3717 86.588 40.1553 86.7267 41.1575ZM61.504 69.9366C61.6197 68.6713 62.0222 67.2643 63.6661 66.3691C66.6672 64.7205 69.6666 68.399 70.2274 70.977C70.8414 73.9955 69.0104 77.3442 65.534 76.9766C62.2557 76.6208 60.9945 73.1261 61.504 69.9366ZM63.4578 71.167C63.4601 73.1151 64.68 75.9712 66.8651 74.6712C68.719 73.5898 68.3237 70.9025 67.2067 69.6428C66.8787 69.146 66.2757 68.593 65.7259 68.4805C64.4282 68.2436 63.4348 68.8995 63.4578 71.167ZM55.3345 41.5787C57.891 43.3621 60.8065 41.1518 61.4784 38.5683C61.7598 37.1937 62.0117 34.9826 61.4564 33.6373C59.3855 29.0605 56.2633 30.7415 55.021 32.8933C53.3588 35.4173 52.8223 39.7184 55.3345 41.5787ZM55.9661 35.6931C56.2473 34.3185 57.6844 32.8941 58.6835 33.4709C59.5685 33.9819 59.465 35.3695 59.3801 36.5058L59.379 36.5202C59.3685 36.6614 59.3584 36.7987 59.3505 36.9298C59.291 37.9202 58.696 40.548 57.0909 40.1336C55.7607 39.7755 55.7085 36.6715 55.9661 35.6931ZM42.4742 62.4338C46.2081 61.8231 47.7648 65.6932 47.6189 68.7854C47.5055 71.9987 44.5543 74.8032 41.3679 73.5783C38.5333 72.4541 37.0329 68.309 38.4321 65.5306C39.1538 64.103 40.9103 62.658 42.4742 62.4338ZM42.0155 64.1157C40.7914 64.6386 39.9809 66.2199 40.0514 67.6951C40.1424 69.4895 41.5043 72.6324 43.6006 71.4861C45.6081 70.4934 45.6653 67.555 44.9357 65.8017C44.7289 65.2725 43.6031 63.4954 42.0155 64.1157ZM26.4691 45.6107C28.9766 43.5747 29.6105 39.6372 27.6307 36.8548C27.1935 36.1925 24.1996 33.7467 20.5536 36.8673C18.3329 38.7615 16.5962 43.1893 18.4665 45.8062C20.3489 48.225 24.3371 47.3512 26.4691 45.6107ZM20.7079 44.2312C20.1612 43.4033 20.5107 41.5558 20.8776 40.743C21.7443 38.8868 23.6901 36.9363 25.7325 38.013C27.5443 38.9566 26.0414 42.8021 24.0987 44.0372C23.194 44.5395 21.3964 45.3459 20.7079 44.2312ZM263.547 648.798C252.484 658.147 243.354 666.329 233.301 676.655C233.211 676.748 233.108 676.851 232.996 676.963C232.911 677.047 232.82 677.136 232.725 677.229L232.587 677.365C231.429 678.498 229.668 680.223 228.68 681.934C228.518 682.077 228.441 682.347 228.398 682.558C227.723 684.135 227.911 685.581 230.054 686.504C231.066 686.931 232.165 686.936 233.307 686.729C235.761 686.637 238.61 685.757 240.372 685.212C240.631 685.132 240.866 685.06 241.073 684.998C248.343 682.9 255.646 680.744 262.89 678.553C277.404 674.265 291.918 669.977 306.466 665.63C310.004 664.591 313.552 663.574 317.1 662.556C327.231 659.65 337.368 656.742 347.317 653.337C358.727 649.382 370.102 643.99 378.164 634.796C383.829 628.39 387.855 620.328 387.537 611.883C391.102 611.653 394.729 610.988 398.322 610.329C400.414 609.945 402.495 609.564 404.545 609.271C410.643 608.386 416.74 607.5 422.829 606.767C428.765 606.024 434.761 605.315 440.663 604.632C441.418 604.55 442.233 604.491 443.08 604.43C447.127 604.139 451.904 603.795 454.364 600.661C454.593 600.4 454.646 600.037 454.571 599.758C454.741 599.463 454.735 599.065 454.415 598.802C451.393 596.239 446.218 596.689 442.118 597.046C441.488 597.101 440.883 597.153 440.316 597.193C434.28 597.563 428.3 598.517 422.286 599.529C415.994 600.617 409.701 601.705 403.458 602.978C402.486 603.167 401.488 603.341 400.479 603.516L400.477 603.517C399.368 603.709 398.246 603.904 397.131 604.125L403.077 601.185C408.108 598.739 413.055 596.167 417.835 593.34C422.673 590.547 427.437 587.475 431.914 584.08C434.119 582.442 436.485 580.661 438.615 578.743C441.285 576.98 445.202 574.285 445.055 571.132C444.884 567.885 441.608 569.063 439.896 570.12C435.016 573.062 430.111 575.967 425.194 578.879L425.183 578.886C421.102 581.302 417.013 583.724 412.922 586.176C408.202 589.037 403.482 591.898 398.727 594.818C398.412 595.007 398.095 595.2 397.776 595.394C396.875 595.942 395.956 596.5 395.024 597.008C401.709 591.426 408.31 585.716 414.792 579.939C418.628 576.567 422.472 573.043 425.617 568.958C427.632 566.423 429.937 563.111 431.118 559.702C431.697 558.699 432.125 557.687 432.027 556.765C431.962 556.334 431.887 556.054 431.753 555.741C431.681 554.912 430.659 554.637 430.141 555.125C429.338 555.291 428.423 555.785 427.812 556.298C425.67 558.047 423.906 560.249 422.146 562.447L422.143 562.45L422.141 562.452L422.141 562.453C421.211 563.613 420.283 564.772 419.301 565.861C416.226 569.279 413.033 572.629 409.732 575.758C405.585 579.764 401.3 583.638 397.012 587.515C392.286 591.788 387.556 596.065 382.999 600.529C378.447 593.967 368.989 590.316 361.325 589.826C350.257 589.1 337.986 592.638 328.035 597.2C316.39 602.515 304.326 612.78 294.755 621.181C290.701 624.744 286.803 628.25 282.933 631.732C276.589 637.438 270.317 643.08 263.547 648.798ZM403.035 604.937C408.626 603.838 414.277 602.773 419.859 601.826C425.01 600.945 430.161 600.063 435.294 599.486C437.907 599.185 440.545 598.977 443.114 598.887C443.263 598.881 443.418 598.873 443.579 598.864C443.833 598.851 444.101 598.834 444.38 598.817L444.401 598.816L444.41 598.815C446.831 598.666 450.083 598.466 452.147 599.46C448.816 601.546 444.465 601.824 440.378 602.085C439.172 602.162 437.989 602.238 436.862 602.358C431.052 603.017 425.302 603.71 419.518 604.461C413.885 605.222 408.312 606.017 402.739 606.812C401.23 607.039 399.697 607.235 398.157 607.432C394.95 607.842 391.713 608.255 388.598 608.955C388.167 609.021 387.702 609.146 387.236 609.27L387.236 609.269C387.186 609.083 387.136 608.898 387.145 608.746C390.92 607.122 395.218 606.357 399.345 605.621L399.347 605.621C400.599 605.398 401.834 605.178 403.035 604.937ZM407.504 592.018C415.444 587.396 423.359 582.682 431.249 577.874C432.232 577.261 433.222 576.672 434.212 576.082C435.201 575.493 436.19 574.904 437.172 574.291C438.028 573.763 438.884 573.234 439.799 572.739L439.803 572.734C439.806 572.73 439.808 572.727 439.811 572.723C439.827 572.707 439.845 572.702 439.863 572.697C439.883 572.692 439.904 572.687 439.92 572.666C437.503 576.301 433.978 579.139 430.496 581.767C423.953 586.014 417.241 590.007 410.421 593.78C406.03 596.199 401.576 598.468 397.13 600.732C395.149 601.741 393.17 602.749 391.199 603.769C389.599 604.497 388.091 605.2 386.574 606.056C386.425 605.497 386.241 604.998 386.057 604.498C390.729 601.999 395.316 599.256 399.873 596.53C402.423 595.005 404.963 593.486 407.504 592.018ZM423.697 563.768L423.699 563.765C424.976 562.141 426.261 560.509 427.682 558.977C427.885 558.78 428.134 558.506 428.382 558.232C428.568 558.026 428.754 557.82 428.922 557.647C428.715 558.145 428.526 558.643 428.337 559.139L428.336 559.144C427.973 560.102 427.613 561.051 427.136 561.966C425.832 564.361 424.233 566.585 422.492 568.648C419.219 572.589 415.403 575.917 411.541 579.284L411.245 579.543L409.38 581.151L409.373 581.157C402.791 586.833 396.244 592.48 389.787 598.311C388.031 599.58 386.335 600.882 384.723 602.312C384.487 602.176 384.301 602.225 384.283 602.53L383.704 601.487C386.758 598.801 389.864 596.149 392.977 593.493L392.978 593.492C402.412 585.439 411.899 577.34 420.145 568.08C421.387 566.704 422.539 565.24 423.696 563.77L423.697 563.768ZM294.404 626.014C294.321 631.473 296.339 637.517 300.304 641.143C300.447 641.305 300.76 641.171 300.651 640.951C300.135 639.464 299.417 638.054 298.695 636.636L298.695 636.635C297.888 635.049 297.075 633.453 296.534 631.728C295.842 629.519 295.489 627.27 295.533 625.013C303.051 618.26 310.746 611.609 319.315 606.17C318.74 608.12 318.976 610.302 319.279 612.365L319.339 612.825C319.809 616.431 320.415 621.076 323.346 623.447C323.489 623.608 324.013 623.517 323.879 623.204C323.558 622.195 323.197 621.225 322.837 620.261C322.133 618.373 321.439 616.511 321.079 614.427L321.031 614.17L320.963 613.806L320.956 613.771C320.427 610.95 319.85 607.881 320.748 605.188C330.511 599.18 341.586 594.716 353.152 593.762C353.571 593.711 353.999 593.697 354.439 593.681C354.71 593.672 354.985 593.663 355.265 593.644C354.717 597.183 355.138 601.36 357.568 604.101C357.711 604.262 358.109 604.256 358.034 603.976C357.831 603.218 357.582 602.482 357.333 601.743C357.031 600.849 356.728 599.95 356.501 599C356.12 597.206 355.984 595.397 356.153 593.606C365.721 593.387 378.203 595.479 382.643 604.416C382.641 604.452 382.637 604.491 382.633 604.532C382.619 604.666 382.603 604.823 382.641 604.965L383.04 606.454C382.453 611.151 381.825 615.509 379.76 619.903C377.549 624.685 374.386 629.075 370.685 632.76C369.972 633.45 369.259 634.14 368.486 634.796C365.173 630.994 362.542 626.013 361.633 621.318C361.567 620.887 360.773 620.9 360.804 621.391C361.137 624.494 362.435 627.289 363.791 630.118C364.771 632.1 365.835 634.209 367.324 635.855C361.377 640.841 354.286 644.536 347.055 647.521C345.278 648.147 343.5 648.773 341.663 649.365C335.791 651.366 329.812 653.305 323.908 655.219L323.906 655.22L323.904 655.221L323.898 655.222L323.886 655.226L323.009 655.511C322.487 654.882 321.903 654.312 321.316 653.74C320.494 652.939 319.667 652.133 318.996 651.149C317.544 648.894 316.651 646.49 316.164 643.927C316.098 643.496 315.362 643.543 315.335 643.999C315.715 647.838 317.777 653.671 321.544 656.003C313.124 658.705 304.657 661.337 296.203 663.965L295.021 664.332C292.525 665.108 290.03 665.884 287.538 666.661C285.949 665.531 285.253 663.793 284.549 662.033C284.215 661.199 283.879 660.36 283.445 659.578C283.336 659.357 282.762 659.262 282.768 659.659C282.654 662.583 283.883 665.496 286.294 667.045L271.262 671.821C258.594 675.365 245.935 678.757 233.168 681.928C232.276 681.902 232.477 681.269 232.641 680.75C232.662 680.683 232.683 680.618 232.7 680.557C232.764 680.515 232.813 680.465 232.862 680.414C232.888 680.386 232.915 680.359 232.945 680.332C232.969 680.311 232.994 680.29 233.023 680.271C241.408 671.576 250.667 663.726 259.865 655.928C260.558 655.34 261.251 654.753 261.942 654.166C271.784 645.842 281.473 637.51 290.969 628.83C292.172 628.108 293.301 627.108 294.404 626.014ZM346.231 629.735C346.399 629.99 345.967 630.055 345.79 629.953C340.709 626.626 338.797 619.307 339.017 613.611C339.036 613.307 339.644 613.344 339.626 613.648C339.772 616.801 340.527 619.991 341.849 622.878C342.577 624.429 343.553 625.816 344.528 627.203L344.531 627.207L344.533 627.21L344.534 627.212C345.118 628.041 345.701 628.871 346.231 629.735ZM376.986 612.715C377.129 612.876 377.619 612.845 377.486 612.531C377.146 611.771 376.783 611.034 376.422 610.301C375.725 608.885 375.034 607.481 374.523 605.943C373.791 603.395 373.431 600.748 373.62 598.104C373.672 597.741 372.98 597.577 372.952 598.033C372.263 602.907 373.208 609.039 376.986 612.715ZM335.89 638.242C335.707 637.743 336.544 637.518 336.762 637.959C337.381 639.339 338.128 640.636 338.908 641.873C339.188 642.297 339.493 642.709 339.797 643.12L339.798 643.122L339.798 643.122C340.406 643.945 341.014 644.768 341.427 645.687C341.527 646.06 341.154 646.16 340.918 646.023C338.39 644.406 336.918 640.96 335.89 638.242ZM-4.61561 190.919C-5.2339 189.38 -5.85255 187.84 -6.54823 186.322C-3.46009 180.691 -3.46009 174.878 -4.82252 168.611C-6.45741 160.618 -8.18312 152.625 -9.99964 144.632V158.983C-9.72731 160.163 -9.47767 161.343 -9.22804 162.523C-8.97816 163.705 -8.72828 164.886 -8.45558 166.068C-8.31178 166.733 -8.15736 167.401 -8.00209 168.073C-7.37281 170.798 -6.72987 173.581 -6.72987 176.422C-6.72987 178.483 -7.11903 180.488 -7.50587 182.481C-7.61354 183.036 -7.72096 183.589 -7.81983 184.142C-8.18312 183.87 -8.72816 183.961 -9.00062 184.324C-9.13685 184.097 -9.29579 183.87 -9.45472 183.643C-9.61366 183.416 -9.77259 183.189 -9.90882 182.962V187.14C-9.63636 187.321 -9.45472 187.503 -9.18226 187.594C-8.41371 196.474 -9.09022 205.194 -9.77772 214.056C-9.82154 214.62 -9.86537 215.185 -9.90882 215.751V250.538C-9.00062 259.53 -7.54737 268.522 -4.91334 277.15C-4.09584 279.966 -3.18763 282.872 -2.09767 285.688C-4.82252 286.142 -7.45655 287.141 -9.90882 288.595V292.954C-7.18409 291.138 -4.18666 289.775 -0.916881 288.776C0.990468 293.499 3.44286 298.041 6.531 302.037C6.25853 302.037 5.89525 302.037 5.53185 301.946C4.36413 301.752 3.42797 301.094 2.49181 300.436C2.11742 300.172 1.74303 299.909 1.35375 299.676C0.990468 299.494 0.263906 299.494 0.263906 300.039C-0.00855539 302.855 3.26122 304.126 5.62267 304.308C9.25585 304.58 11.9807 302.491 14.0697 299.676C14.6147 299.04 13.5248 298.676 13.0705 299.04C11.7991 300.039 10.3458 301.129 8.7108 301.674C7.80248 299.357 6.78051 297.064 5.75853 294.77C4.73681 292.477 3.7152 290.184 2.807 287.868C3.03429 287.822 3.23876 287.777 3.44323 287.732C3.64745 287.686 3.85167 287.641 4.0786 287.595C11.4357 286.869 18.3386 287.686 25.7865 290.229C34.4152 293.227 41.0456 298.222 46.4952 305.398C46.677 305.67 46.7678 305.852 46.9495 306.034C51.7633 313.936 53.6706 319.749 54.3065 326.288C54.8514 332.101 54.034 338.187 51.1276 343.273C45.042 353.809 30.6003 359.895 18.7019 360.258C7.43932 360.53 -3.18763 354.354 -9.818 345.544C-9.87416 345.544 -9.89564 345.509 -9.92518 345.461C-9.94349 345.431 -9.96498 345.397 -9.99964 345.362V357.715C-5.73072 361.802 -0.553599 365.072 5.53185 367.252C14.3422 370.34 23.425 369.341 31.9628 365.889C41.0456 362.256 50.6733 357.624 55.7598 348.995C65.3874 332.646 59.0295 311.756 46.2228 298.949C39.774 292.5 31.5087 287.868 22.6075 285.779C16.1587 284.235 8.61998 283.872 1.89879 285.325C0.536366 281.51 -0.64442 277.695 -1.64357 273.79C-4.2776 264.071 -5.73072 254.08 -6.36659 243.998C-6.91151 234.098 -6.82069 224.288 -6.18495 214.388C-6.12599 213.386 -6.05982 212.379 -5.99354 211.369C-5.65113 206.156 -5.30372 200.866 -5.91249 195.768C-5.69508 196.167 -5.4922 196.565 -5.29212 196.958C-4.99073 197.55 -4.69593 198.129 -4.36842 198.675C-1.73439 203.398 1.53539 207.667 5.07775 211.754C12.0715 219.656 20.1551 226.559 28.3297 233.19C37.9575 240.91 48.4935 248.539 59.7562 254.262C58.8479 257.168 58.2121 260.165 57.8487 263.072C55.4873 278.149 61.8452 294.317 74.8336 302.4C88.4578 310.847 109.439 310.666 121.156 299.221C127.786 292.773 130.965 283.872 132.963 275.152C134.962 266.251 134.144 254.988 129.875 246.632C122.972 233.099 107.259 224.652 91.7277 226.105C80.3741 227.195 67.1133 236.005 62.5718 247.268C61.8452 248.721 61.1186 250.174 60.5736 251.628C50.2192 246.178 40.5914 239.638 31.2362 232.1C23.0616 225.56 14.978 218.748 7.98424 210.937C4.80529 207.304 1.80797 203.489 -0.64442 199.402C-2.30213 196.678 -3.45814 193.801 -4.61561 190.919ZM97.4498 301.855C87.6404 302.4 78.5576 298.222 72.1088 290.956C65.7508 283.781 62.8443 274.425 63.2985 264.798C63.3362 264.37 63.3722 263.948 63.4077 263.533C63.6283 260.956 63.8281 258.619 64.2976 256.351C69.9289 258.894 75.7419 260.892 81.7366 262.164V262.436C81.6095 263.961 81.0377 265.353 80.4568 266.767C80.2075 267.374 79.9565 267.985 79.7383 268.612C79.5566 269.339 80.5558 269.702 81.0099 269.521C84.2798 268.522 85.4604 265.252 85.2788 262.164C85.0972 258.349 82.9173 255.17 80.465 252.354C79.7383 251.446 78.1034 252.173 78.8301 253.262C80.3741 255.624 81.7366 258.167 81.9182 260.983C76.1052 258.894 70.5647 256.532 65.115 253.807C65.5692 252.173 66.1141 250.538 66.8407 248.903C69.3839 244.271 72.472 240.002 77.0134 236.641C82.9173 232.281 90.456 229.92 97.9039 230.283C107.804 230.646 116.887 236.096 122.972 243.726C128.525 255.768 128.085 260.136 127.565 265.291C127.481 266.124 127.395 266.977 127.332 267.886C126.878 274.062 125.788 280.238 122.791 285.688C117.795 294.862 108.077 301.31 97.4498 301.855Z" fill="#E0E0E0"/>
</svg>